<?xml version="1.0" standalone="no"?>
<!DOCTYPE svg PUBLIC "-//W3C//DTD SVG 20010904//EN"
 "http://www.w3.org/TR/2001/REC-SVG-20010904/DTD/svg10.dtd">
<svg version="1.0" xmlns="http://www.w3.org/2000/svg"
 width="400.000000pt" height="138.000000pt" viewBox="0 0 400.000000 138.000000"
 preserveAspectRatio="xMidYMid meet">

<g transform="translate(0.000000,138.000000) scale(0.100000,-0.100000)"
fill="#000000" stroke="none">
<path d="M970 940 l0 -320 55 0 55 0 0 320 0 320 -55 0 -55 0 0 -320z"/>
<path d="M1110 940 l0 -320 50 0 50 0 0 320 0 320 -50 0 -50 0 0 -320z"/>
<path d="M1230 1053 c0 -115 3 -259 7 -320 l6 -113 49 0 48 0 0 320 0 320 -55
0 -55 0 0 -207z"/>
<path d="M1368 965 c-1 -162 -2 -305 -2 -317 -1 -21 4 -23 52 -26 l52 -3 0
320 0 321 -50 0 -50 0 -2 -295z"/>
<path d="M1490 940 l0 -320 50 0 50 0 0 320 0 320 -50 0 -50 0 0 -320z"/>
<path d="M1620 940 l0 -320 50 0 50 0 0 320 0 320 -50 0 -50 0 0 -320z"/>
<path d="M1750 940 l0 -320 50 0 50 0 0 320 0 320 -50 0 -50 0 0 -320z"/>
<path d="M1880 940 l0 -320 50 0 50 0 0 320 0 320 -50 0 -50 0 0 -320z"/>
<path d="M2000 940 l0 -320 50 0 50 0 0 320 0 320 -50 0 -50 0 0 -320z"/>
<path d="M2140 940 l0 -320 45 0 45 0 0 168 c0 93 3 237 7 320 l6 152 -51 0
-52 0 0 -320z"/>
<path d="M2260 940 l0 -320 50 0 50 0 0 320 0 320 -50 0 -50 0 0 -320z"/>
<path d="M2390 941 l0 -321 50 0 50 0 -2 318 -3 317 -47 3 -48 3 0 -320z"/>
<path d="M2520 940 l0 -320 50 0 50 0 0 320 0 320 -50 0 -50 0 0 -320z"/>
<path d="M2650 940 l0 -320 45 0 45 0 0 320 0 320 -45 0 -45 0 0 -320z"/>
<path d="M2770 940 l0 -320 50 0 50 0 0 320 0 320 -50 0 -50 0 0 -320z"/>
<path d="M2900 940 l0 -320 50 0 50 0 0 320 0 320 -50 0 -50 0 0 -320z"/>
<path d="M3030 940 l0 -320 50 0 50 0 0 320 0 320 -50 0 -50 0 0 -320z"/>
<path d="M3160 940 l0 -320 50 0 50 0 0 320 0 320 -50 0 -50 0 0 -320z"/>
<path d="M3290 940 l0 -320 50 0 50 0 0 320 0 320 -50 0 -50 0 0 -320z"/>
<path d="M3420 940 l0 -320 45 0 45 0 0 320 0 320 -45 0 -45 0 0 -320z"/>
<path d="M3540 940 l0 -320 50 0 50 0 0 320 0 320 -50 0 -50 0 0 -320z"/>
<path d="M3670 940 l0 -320 55 0 55 0 0 320 0 320 -55 0 -55 0 0 -320z"/>
<path d="M185 1048 c-21 -25 -25 -38 -21 -62 4 -17 1 -71 -5 -121 -10 -72 -17
-95 -36 -113 -23 -23 -23 -24 -21 -240 l3 -217 77 -3 77 -3 6 48 c9 74 39 129
86 160 36 24 53 28 110 28 60 0 71 -3 105 -31 58 -47 76 -77 83 -140 3 -32 11
-59 19 -62 9 -3 12 80 12 392 l0 396 -234 0 -234 0 -27 -32z m239 -160 c3 -39
3 -75 -1 -79 -12 -11 -156 -39 -203 -39 -46 0 -46 0 -25 88 25 104 22 102 129
102 l93 0 7 -72z"/>
<path d="M730 455 l0 -115 164 0 164 0 6 34 c16 85 105 155 197 156 81 0 168
-74 185 -159 l7 -31 439 2 440 3 19 49 c22 58 50 91 101 117 73 38 179 14 230
-51 l26 -33 18 28 c23 35 107 75 157 75 48 0 99 -23 138 -63 l30 -30 27 26
c48 45 95 67 142 67 91 -1 169 -60 192 -146 l12 -44 176 2 175 3 0 110 0 110
-1522 3 -1523 2 0 -115z"/>
<path d="M405 476 c-83 -37 -120 -140 -75 -214 31 -51 76 -74 136 -69 66 4
107 34 129 92 21 55 14 103 -22 146 -46 54 -109 71 -168 45z m114 -62 c59 -50
50 -128 -19 -165 -60 -32 -140 16 -140 84 1 91 92 137 159 81z"/>
<path d="M420 369 c0 -9 -8 -20 -17 -24 -17 -6 -17 -7 0 -16 9 -6 17 -18 17
-28 0 -15 7 -17 38 -15 24 1 36 7 34 15 -2 7 5 19 15 27 17 12 17 14 1 23 -10
6 -18 16 -18 22 0 8 -14 13 -35 13 -26 0 -35 -4 -35 -17z"/>
<path d="M1193 470 c-61 -27 -85 -70 -80 -142 2 -44 9 -64 28 -84 34 -36 72
-54 116 -54 153 0 202 201 67 277 -48 28 -76 28 -131 3z m113 -49 c44 -27 60
-77 40 -124 -47 -114 -224 -47 -185 70 12 36 59 73 94 73 11 0 34 -9 51 -19z"/>
<path d="M1220 368 c0 -10 -7 -21 -16 -25 -15 -5 -15 -7 0 -15 9 -5 16 -17 16
-26 0 -14 8 -18 35 -18 27 0 35 4 35 18 0 10 7 21 15 24 8 4 15 10 15 15 0 5
-7 9 -15 9 -8 0 -15 8 -15 18 0 14 -8 18 -35 18 -27 0 -35 -4 -35 -18z"/>
<path d="M2470 468 c-142 -72 -93 -278 65 -278 154 0 201 212 61 279 -54 27
-71 26 -126 -1z m138 -63 c33 -39 31 -103 -5 -137 -42 -40 -96 -41 -137 -3
-21 20 -26 33 -26 73 0 49 19 79 60 95 30 12 85 -2 108 -28z"/>
<path d="M2500 374 c0 -6 -7 -17 -16 -25 -14 -11 -14 -13 0 -21 9 -5 16 -17
16 -27 0 -14 8 -17 35 -17 26 1 35 5 35 18 0 9 7 21 16 26 14 8 14 10 0 21 -9
8 -16 19 -16 25 0 7 -15 12 -35 12 -20 0 -35 -5 -35 -12z"/>
<path d="M2836 480 c-92 -28 -135 -152 -79 -229 41 -55 132 -77 193 -46 116
60 98 231 -29 274 -39 13 -45 13 -85 1z m94 -57 c39 -27 49 -45 50 -86 0 -88
-108 -131 -171 -68 -81 82 27 219 121 154z"/>
<path d="M2840 371 c0 -9 -5 -22 -10 -27 -8 -8 -6 -15 5 -24 8 -7 15 -18 15
-24 0 -7 15 -12 35 -12 19 0 34 5 34 11 -3 25 2 35 19 35 14 0 13 4 -7 19 -13
10 -21 22 -18 27 3 5 -12 10 -34 10 -30 1 -39 -2 -39 -15z"/>
<path d="M3163 469 c-61 -30 -87 -76 -81 -145 4 -47 10 -61 40 -91 65 -65 174
-55 226 20 45 66 21 176 -45 211 -53 27 -95 28 -140 5z m113 -48 c69 -42 63
-146 -11 -177 -67 -28 -135 17 -135 88 0 49 13 73 48 92 37 20 61 20 98 -3z"/>
<path d="M3190 368 c0 -10 -7 -21 -16 -25 -15 -5 -15 -7 0 -15 9 -5 16 -17 16
-26 0 -14 8 -18 35 -18 27 0 35 4 35 18 0 9 8 22 18 28 16 10 16 10 0 20 -10
6 -18 17 -18 23 0 8 -14 13 -35 13 -27 0 -35 -4 -35 -18z"/>
</g>
</svg>
