<?xml version="1.0" standalone="no"?>
<!DOCTYPE svg PUBLIC "-//W3C//DTD SVG 20010904//EN"
 "http://www.w3.org/TR/2001/REC-SVG-20010904/DTD/svg10.dtd">
<svg version="1.0" xmlns="http://www.w3.org/2000/svg"
 width="400.000000pt" height="178.000000pt" viewBox="0 0 400.000000 178.000000"
 preserveAspectRatio="xMidYMid meet">

<g transform="translate(0.000000,178.000000) scale(0.100000,-0.100000)"
fill="#000000" stroke="none">
<path d="M1241 1643 c0 -41 3 -52 9 -38 16 39 21 -9 23 -233 1 -122 5 -222 10
-222 9 0 9 368 1 473 -6 66 -10 77 -25 77 -16 0 -19 -8 -18 -57z"/>
<path d="M1300 1631 c0 -12 6 -21 15 -21 13 0 15 -33 17 -227 l3 -228 2 214
c3 188 5 212 18 201 9 -7 19 -10 22 -6 10 10 -8 35 -45 64 -32 24 -32 24 -32
3z"/>
<path d="M1314 1380 c0 -124 2 -174 3 -112 2 61 2 163 0 225 -1 61 -3 11 -3
-113z"/>
<path d="M1398 1523 c12 -120 9 -328 -5 -326 -8 2 -13 -7 -13 -23 0 -21 4 -25
23 -22 l22 3 -3 195 c-4 199 -8 240 -23 240 -4 0 -5 -30 -1 -67z"/>
<path d="M675 1571 c-22 -4 -46 -10 -53 -15 -21 -13 -92 -128 -168 -271 -53
-100 -67 -137 -65 -165 1 -24 -4 -43 -18 -59 -14 -16 -22 -40 -23 -73 -1 -26
-2 -56 -2 -65 -1 -13 7 -17 29 -18 l30 0 0 -65 c0 -58 -2 -66 -22 -75 -32 -14
-29 -25 6 -25 l30 0 3 228 3 227 62 120 c89 172 121 218 163 232 23 8 113 12
258 12 146 1 221 4 217 11 -7 11 -383 12 -450 1z"/>
<path d="M889 1540 c-181 -4 -250 -8 -262 -18 -20 -17 -82 -122 -142 -242
l-48 -95 -5 -151 c-5 -165 5 -387 18 -379 4 3 10 -5 14 -18 9 -34 8 -37 -13
-37 -11 0 -21 -8 -24 -17 -2 -10 -7 15 -12 55 l-8 72 -38 0 c-21 0 -40 -4 -44
-10 -3 -5 -1 -38 5 -73 12 -64 12 -65 48 -71 20 -3 94 -6 164 -6 143 0 130 8
142 -84 12 -88 95 -175 186 -195 88 -19 197 25 248 100 15 21 38 42 52 45 14
3 31 7 38 10 7 2 12 21 12 49 0 57 15 64 69 34 39 -22 44 -22 278 -15 131 4
387 11 568 16 182 5 358 12 392 16 81 9 113 1 113 -30 0 -44 47 -132 91 -170
105 -89 244 -79 333 26 20 23 43 63 50 88 10 33 18 45 32 45 11 0 20 -8 22
-20 6 -28 23 -46 41 -43 12 2 16 21 18 88 1 47 2 88 3 93 0 4 82 7 183 7 199
0 207 2 207 55 0 52 -10 55 -182 55 -139 0 -158 -2 -167 -17 -9 -16 -10 -16
-11 -2 0 9 7 20 16 23 9 3 92 6 184 6 115 0 171 4 176 11 5 8 10 6 16 -5 12
-22 28 -20 28 4 0 19 -7 20 -287 22 -174 1 -253 4 -201 7 48 4 89 9 92 11 2 3
-4 15 -14 28 -11 13 -21 18 -25 12 -8 -13 -95 -13 -95 0 0 5 -42 11 -92 13
l-93 3 98 2 c96 2 97 2 97 27 l0 25 -147 2 -148 2 145 6 145 5 -230 5 -230 6
233 2 233 2 -3 33 -3 32 -72 0 c-40 0 -160 -2 -267 -3 l-195 -2 -4 -27 c-2
-16 -5 9 -6 55 -1 75 -3 82 -21 82 -15 0 -20 -7 -21 -27 -1 -16 -2 -35 -3 -43
-2 -8 -4 -28 -5 -45 -2 -16 -5 -23 -8 -14 -6 23 -114 30 -334 22 l-179 -6 0
-29 0 -28 113 -2 c108 -2 109 -2 37 -8 -74 -6 -74 -6 -25 -11 40 -4 32 -6 -37
-7 -87 -2 -88 -2 -88 -27 0 -24 3 -25 63 -27 l62 -2 -57 -3 c-32 -2 -58 -8
-58 -13 0 -6 -20 -10 -45 -10 -25 0 -45 5 -45 10 0 6 -90 10 -249 10 -156 0
-252 -4 -256 -10 -3 -5 -26 -10 -50 -10 -24 0 -47 5 -50 10 -3 6 -33 10 -66
10 l-59 0 -1 -42 c-2 -30 -3 -35 -6 -15 -5 30 -24 35 -47 12 -16 -16 -31 -20
-22 -6 6 10 -44 22 -57 14 -4 -3 -2 -12 5 -21 11 -14 9 -14 -8 1 -17 14 -40
17 -125 17 -123 0 -159 -9 -213 -52 l-41 -31 30 33 c47 51 73 57 278 65 l187
8 0 33 c0 27 -4 34 -19 34 -10 0 -21 -7 -25 -15 -4 -12 -31 -15 -149 -15 -173
0 -230 -14 -283 -68 -20 -20 -43 -50 -51 -65 -8 -16 -17 -27 -19 -24 -10 10
26 64 69 104 25 23 62 46 83 52 22 6 105 11 187 11 99 0 147 4 147 11 0 8
-100 9 -350 3 -258 -5 -350 -4 -350 4 0 9 98 12 351 14 l351 3 -1 320 c-1 176
-5 322 -9 325 -4 3 -118 3 -253 0z m219 -26 c21 -15 22 -21 22 -170 l0 -154
-26 -10 c-14 -6 -75 -10 -136 -10 l-111 0 -101 -57 c-95 -53 -106 -57 -179
-61 -101 -5 -107 0 -107 92 0 61 5 82 35 144 66 138 115 213 148 227 49 22
424 21 455 -1z m1492 -464 c0 -5 -4 -10 -10 -10 -5 0 -10 5 -10 10 0 6 5 10
10 10 6 0 10 -4 10 -10z m-1475 -55 l0 -30 -60 0 -60 0 -3 33 -3 33 63 -3 c63
-3 63 -3 63 -33z m1475 -29 c0 -3 -4 -8 -10 -11 -5 -3 -10 -1 -10 4 0 6 5 11
10 11 6 0 10 -2 10 -4z m-827 -203 c-184 -3 -203 -5 -204 -21 0 -14 -2 -15 -7
-2 -11 24 -79 26 -105 3 l-22 -18 19 23 c19 22 21 22 270 20 l251 -3 -202 -2z
m-423 -10 c-14 -3 -28 -10 -32 -17 -6 -8 -8 -7 -8 3 0 8 -7 11 -20 8 -11 -3
-20 -1 -20 4 0 5 24 8 53 8 28 -1 41 -4 27 -6z m-467 -10 c-7 -2 -19 -2 -25 0
-7 3 -2 5 12 5 14 0 19 -2 13 -5z m535 -5 c-7 -19 -38 -22 -38 -4 0 10 9 16
21 16 12 0 19 -5 17 -12z m322 -3 c-14 -16 -50 -21 -50 -6 0 9 20 17 49 20 11
1 11 -2 1 -14z m746 2 c-10 -7 -16 -22 -14 -33 3 -16 12 -19 61 -18 39 1 57
-2 54 -10 -2 -7 -31 -11 -73 -11 l-69 0 -3 43 c-3 41 -3 42 29 42 30 0 31 -1
15 -13z m-986 -12 c0 -17 -46 -42 -56 -32 -7 7 35 46 49 47 4 0 7 -7 7 -15z
m120 11 c0 -11 -19 -15 -25 -6 -3 5 1 10 9 10 9 0 16 -2 16 -4z m220 -6 c0 -5
-4 -10 -9 -10 -6 0 -13 5 -16 10 -3 6 1 10 9 10 9 0 16 -4 16 -10z m230 -5 c0
-8 -4 -15 -10 -15 -5 0 -7 7 -4 15 4 8 8 15 10 15 2 0 4 -7 4 -15z m1240 -30
c-7 -8 -16 -15 -21 -15 -5 0 -9 7 -9 15 0 9 9 15 21 15 18 0 19 -2 9 -15z
m-1565 -26 c4 -6 0 -18 -8 -27 -10 -11 -13 -27 -10 -45 6 -29 6 -29 71 -25 46
2 66 -1 69 -9 4 -10 -18 -13 -85 -13 l-89 0 -6 67 c-5 47 -3 69 5 74 13 8 43
-4 53 -22z m125 2 c0 -26 -14 -34 -50 -26 -26 6 -28 9 -20 26 15 27 70 27 70
0z m293 -11 c6 -23 -17 -28 -30 -6 -4 8 -19 16 -33 19 -17 3 -11 5 16 6 34 1
43 -3 47 -19z m187 0 c0 -23 -15 -27 -23 -6 -3 8 -16 16 -29 19 -15 3 -10 5
15 6 31 1 37 -2 37 -19z m-1046 -22 c-9 -53 -12 -58 -37 -58 -17 0 -26 9 -36
36 -15 43 -6 54 46 54 31 0 32 -1 27 -32z m171 -35 l0 -63 -62 0 c-35 0 -63 4
-63 9 0 5 6 9 13 8 51 -2 77 4 77 18 0 10 -10 15 -30 15 -23 0 -28 4 -23 16 5
13 2 15 -15 10 -15 -5 -25 0 -36 16 -9 12 -16 26 -16 31 0 4 35 7 78 5 l77 -3
0 -62z m147 25 c-10 -22 -11 -21 -11 12 -1 26 2 31 11 22 8 -8 8 -17 0 -34z
m1638 32 c0 -5 -7 -7 -15 -4 -8 4 -15 8 -15 10 0 2 7 4 15 4 8 0 15 -4 15 -10z
m-700 -30 c0 -5 -5 -12 -11 -16 -14 -8 -33 11 -25 25 7 11 36 4 36 -9z m-83
-6 c-3 -3 -12 -4 -19 -1 -8 3 -5 6 6 6 11 1 17 -2 13 -5z m-119 -52 c2 -8 -14
-12 -55 -11 l-58 1 45 13 c51 15 62 14 68 -3z m-363 -11 c7 -12 -12 -24 -25
-16 -11 7 -4 25 10 25 5 0 11 -4 15 -9z m115 5 c0 -11 -19 -15 -25 -6 -3 5 1
10 9 10 9 0 16 -2 16 -4z m-810 -16 c0 -5 -5 -10 -11 -10 -5 0 -7 5 -4 10 3 6
8 10 11 10 2 0 4 -4 4 -10z m1801 -46 c4 -21 3 -44 -3 -51 -17 -21 -38 -3 -38
32 0 73 30 87 41 19z m-2171 -5 c0 -5 -4 -9 -10 -9 -5 0 -10 7 -10 16 0 8 5
12 10 9 6 -3 10 -10 10 -16z m190 -70 c0 -5 -9 -9 -20 -9 -22 0 -27 16 -7 23
15 5 27 -1 27 -14z"/>
<path d="M928 1513 c6 -2 18 -2 25 0 6 3 1 5 -13 5 -14 0 -19 -2 -12 -5z"/>
<path d="M1097 1499 c6 -8 13 -27 16 -44 4 -23 4 -20 3 9 -1 25 -6 41 -16 44
-12 4 -13 2 -3 -9z"/>
<path d="M628 1483 c-18 -21 -31 -43 -25 -43 2 0 13 14 25 30 25 33 24 41 0
13z"/>
<path d="M616 1405 c4 -8 8 -15 10 -15 2 0 4 7 4 15 0 8 -4 15 -10 15 -5 0 -7
-7 -4 -15z"/>
<path d="M1075 1397 c-6 -22 9 -77 20 -77 3 0 5 23 5 50 0 51 -15 68 -25 27z"/>
<path d="M560 1370 c-11 -22 -18 -40 -15 -40 2 0 14 18 25 40 11 22 18 40 15
40 -2 0 -14 -18 -25 -40z"/>
<path d="M598 1355 c-6 -13 -18 -26 -27 -28 -14 -4 -14 -5 1 -6 10 0 24 12 33
29 9 17 13 30 10 30 -3 0 -10 -11 -17 -25z"/>
<path d="M1072 1298 c-6 -7 -13 -30 -17 -50 -7 -36 -6 -38 19 -38 25 0 26 3
26 50 0 50 -8 61 -28 38z"/>
<path d="M493 1231 c-16 -43 -17 -143 -1 -159 7 -7 37 -11 73 -10 l60 1 -55 6
-55 6 -5 95 c-5 90 -6 93 -17 61z"/>
<path d="M646 1232 c12 -9 41 -32 65 -50 38 -29 37 -27 -10 17 -30 28 -60 51
-65 51 -6 0 -1 -8 10 -18z"/>
<path d="M532 1211 c-9 -5 -12 -26 -10 -67 3 -57 4 -59 32 -62 34 -4 85 4 105
17 11 7 4 21 -34 65 -46 54 -66 65 -93 47z"/>
<path d="M1102 1204 c-7 -8 -8 -14 -3 -14 10 0 25 19 20 25 -2 1 -10 -3 -17
-11z"/>
<path d="M660 1192 c0 -13 23 -32 39 -32 11 0 10 4 -4 20 -19 21 -35 26 -35
12z"/>
<path d="M787 1156 c-62 -36 -91 -58 -41 -33 88 45 126 67 113 66 -8 0 -40
-15 -72 -33z"/>
<path d="M650 1161 c0 -5 5 -13 10 -16 6 -3 10 -2 10 4 0 5 -4 13 -10 16 -5 3
-10 2 -10 -4z"/>
<path d="M660 1089 c-19 -11 -29 -19 -22 -19 15 0 72 28 72 35 0 8 -13 4 -50
-16z"/>
<path d="M1033 1013 c15 -2 39 -2 55 0 15 2 2 4 -28 4 -30 0 -43 -2 -27 -4z"/>
<path d="M1015 980 c3 -5 21 -10 40 -10 19 0 37 5 40 10 4 6 -12 10 -40 10
-28 0 -44 -4 -40 -10z"/>
<path d="M1163 1526 c4 -10 7 -69 7 -132 0 -74 4 -113 10 -109 6 4 10 -7 9
-27 0 -27 -2 -30 -9 -13 -5 12 -9 -53 -9 -167 -1 -186 -1 -188 20 -188 l22 0
-7 278 c-6 296 -13 363 -35 370 -10 3 -12 0 -8 -12z"/>
<path d="M1210 1479 c0 -11 4 -18 10 -14 5 3 7 12 3 20 -7 21 -13 19 -13 -6z"/>
<path d="M160 1306 c-16 -42 -9 -121 10 -121 18 0 27 104 11 132 -8 16 -11 14
-21 -11z"/>
<path d="M158 1148 c6 -6 18 -8 28 -6 14 3 12 5 -9 10 -19 3 -25 2 -19 -4z"/>
<path d="M1230 1001 l0 -161 24 0 24 0 -2 125 c-1 93 -4 125 -13 125 -8 0 -13
13 -13 29 0 17 -4 33 -10 36 -7 4 -10 -50 -10 -154z"/>
<path d="M228 1143 c6 -2 18 -2 25 0 6 3 1 5 -13 5 -14 0 -19 -2 -12 -5z"/>
<path d="M1773 1143 l-513 -3 0 -22 0 -21 617 6 c339 4 924 7 1300 7 676 0
683 0 683 20 0 20 -6 20 -787 18 -434 -2 -1019 -4 -1300 -5z"/>
<path d="M350 1095 c0 -14 5 -25 10 -25 6 0 10 4 10 9 0 5 3 16 6 25 4 11 1
16 -10 16 -10 0 -16 -9 -16 -25z"/>
<path d="M3177 1094 c-4 -4 -7 -63 -7 -131 l0 -123 25 0 26 0 -3 127 c-3 106
-6 128 -18 131 -9 1 -19 0 -23 -4z m33 -44 c0 -5 -7 -10 -16 -10 -8 0 -12 5
-9 10 3 6 10 10 16 10 5 0 9 -4 9 -10z m0 -84 c0 -11 -19 -15 -25 -6 -3 5 1
10 9 10 9 0 16 -2 16 -4z m-6 -87 c-3 -5 -10 -7 -15 -3 -5 3 -7 10 -3 15 3 5
10 7 15 3 5 -3 7 -10 3 -15z"/>
<path d="M3744 1087 c-2 -7 -3 -65 -2 -128 3 -110 4 -114 26 -117 22 -3 22 -3
22 127 0 125 -1 131 -20 131 -11 0 -23 -6 -26 -13z m36 -37 c0 -5 -4 -10 -10
-10 -5 0 -10 5 -10 10 0 6 5 10 10 10 6 0 10 -4 10 -10z m-5 -79 c3 -5 1 -12
-5 -16 -5 -3 -10 1 -10 9 0 18 6 21 15 7z m0 -81 c3 -5 1 -10 -4 -10 -6 0 -11
5 -11 10 0 6 2 10 4 10 3 0 8 -4 11 -10z"/>
<path d="M3828 1008 c2 -66 -1 -94 -10 -100 -10 -6 -10 -8 0 -8 7 0 12 -13 12
-31 0 -20 4 -29 13 -27 8 3 13 41 15 131 2 116 1 127 -15 127 -16 0 -18 -9
-15 -92z"/>
<path d="M1380 966 l0 -126 25 0 26 0 -3 123 c-3 118 -4 122 -25 125 -23 3
-23 2 -23 -122z m34 73 c-3 -5 -10 -7 -15 -3 -5 3 -7 10 -3 15 3 5 10 7 15 3
5 -3 7 -10 3 -15z m-4 -79 c0 -5 -4 -10 -10 -10 -5 0 -10 5 -10 10 0 6 5 10
10 10 6 0 10 -4 10 -10z m0 -80 c0 -5 -4 -10 -10 -10 -5 0 -10 5 -10 10 0 6 5
10 10 10 6 0 10 -4 10 -10z"/>
<path d="M1980 965 l0 -125 25 0 25 0 0 125 0 125 -25 0 -25 0 0 -125z m34 74
c-3 -5 -10 -7 -15 -3 -5 3 -7 10 -3 15 3 5 10 7 15 3 5 -3 7 -10 3 -15z m-4
-79 c0 -5 -4 -10 -10 -10 -5 0 -10 5 -10 10 0 6 5 10 10 10 6 0 10 -4 10 -10z
m0 -80 c0 -5 -2 -10 -4 -10 -3 0 -8 5 -11 10 -3 6 -1 10 4 10 6 0 11 -4 11
-10z"/>
<path d="M2143 1073 l-103 -4 0 -29 0 -30 235 0 c176 0 235 3 235 12 0 9 3 9
12 0 20 -20 28 -14 28 23 l0 35 -152 -2 c-84 -1 -199 -4 -255 -5z"/>
<path d="M2628 1050 l-5 -30 269 0 268 0 0 30 0 30 -264 0 -264 0 -4 -30z"/>
<path d="M3230 1050 l0 -31 250 2 250 1 0 29 0 29 -250 0 -250 0 0 -30z m480
10 c0 -5 -6 -10 -14 -10 -8 0 -18 5 -21 10 -3 6 3 10 14 10 12 0 21 -4 21 -10z"/>
<path d="M3802 1050 c0 -19 2 -27 5 -17 2 9 2 25 0 35 -3 9 -5 1 -5 -18z"/>
<path d="M1290 1040 c0 -28 2 -30 40 -30 38 0 40 2 40 30 0 28 -2 30 -40 30
-38 0 -40 -2 -40 -30z"/>
<path d="M1440 1040 l0 -30 265 0 265 0 0 30 0 30 -265 0 -265 0 0 -30z"/>
<path d="M3230 955 l0 -35 250 0 250 0 0 35 0 35 -250 0 -250 0 0 -35z"/>
<path d="M3800 962 c0 -18 5 -32 10 -32 6 0 8 11 4 28 -10 39 -14 40 -14 4z"/>
<path d="M1290 950 c0 -28 2 -30 40 -30 38 0 40 2 40 30 0 28 -2 30 -40 30
-38 0 -40 -2 -40 -30z"/>
<path d="M1440 950 l0 -30 265 0 265 0 0 30 0 30 -265 0 -265 0 0 -30z"/>
<path d="M3358 903 c67 -2 177 -2 245 0 67 1 12 3 -123 3 -135 0 -190 -2 -122
-3z"/>
<path d="M357 894 c-4 -4 -7 -23 -7 -43 0 -38 17 -33 23 6 5 34 17 40 17 10 0
-15 -9 -36 -20 -47 -23 -23 -26 -50 -6 -50 25 0 37 28 34 77 -2 34 -8 49 -18
51 -9 1 -19 0 -23 -4z"/>
<path d="M1290 866 c0 -24 4 -26 41 -26 36 0 40 2 37 23 -2 18 -10 23 -40 25
-35 3 -38 1 -38 -22z"/>
<path d="M1440 865 l0 -25 265 0 265 0 0 25 0 25 -265 0 -265 0 0 -25z"/>
<path d="M3230 865 l0 -25 250 0 250 0 0 25 0 25 -250 0 -250 0 0 -25z"/>
<path d="M3800 870 c0 -11 5 -20 10 -20 6 0 10 9 10 20 0 11 -4 20 -10 20 -5
0 -10 -9 -10 -20z"/>
<path d="M1388 823 c12 -2 30 -2 40 0 9 3 -1 5 -23 4 -22 0 -30 -2 -17 -4z"/>
<path d="M1988 823 c12 -2 30 -2 40 0 9 3 -1 5 -23 4 -22 0 -30 -2 -17 -4z"/>
<path d="M3178 823 c12 -2 30 -2 40 0 9 3 -1 5 -23 4 -22 0 -30 -2 -17 -4z"/>
<path d="M3337 805 c10 -13 28 -25 41 -25 23 0 23 0 5 25 -10 13 -28 25 -41
25 -23 0 -23 0 -5 -25z"/>
<path d="M3446 805 c15 -23 22 -25 90 -25 77 0 86 6 56 33 -14 13 -38 17 -91
17 l-71 0 16 -25z"/>
<path d="M3650 822 c0 -14 35 -42 54 -42 15 0 15 2 0 25 -15 23 -54 35 -54 17z"/>
<path d="M3748 823 c12 -2 30 -2 40 0 9 3 -1 5 -23 4 -22 0 -30 -2 -17 -4z"/>
<path d="M3834 823 c14 -4 17 -11 12 -34 -3 -16 -1 -29 4 -29 6 0 10 16 10 35
0 30 -3 35 -22 34 -19 -1 -20 -2 -4 -6z"/>
<path d="M3705 750 c3 -5 15 -10 26 -10 10 0 19 5 19 10 0 6 -12 10 -26 10
-14 0 -23 -4 -19 -10z"/>
<path d="M3760 745 c0 -8 2 -15 4 -15 2 0 11 -3 20 -6 12 -4 16 0 16 15 0 14
-6 21 -20 21 -11 0 -20 -7 -20 -15z"/>
<path d="M3630 679 c0 -5 4 -9 9 -9 5 0 22 -5 36 -10 25 -9 25 -11 9 -27 -15
-16 -14 -18 21 -30 20 -7 41 -10 46 -7 5 3 9 0 9 -5 0 -6 7 -11 15 -11 10 0
15 10 15 29 0 27 -5 31 -52 46 -29 9 -65 20 -80 25 -17 6 -28 5 -28 -1z"/>
<path d="M3806 622 c-7 -12 4 -52 15 -52 12 0 12 47 0 55 -5 3 -12 2 -15 -3z"/>
</g>
</svg>
