<?xml version="1.0" encoding="UTF-8"?>
<svg version="1.1" xmlns="http://www.w3.org/2000/svg" width="500" height="289">
<path d="M0 0 C0.27734375 2.23828125 0.27734375 2.23828125 0 5 C-1.93359375 7.16796875 -1.93359375 7.16796875 -4.4375 9.1875 C-7.70544403 11.70187282 -7.70544403 11.70187282 -10 15 C-10.17484831 17.2873598 -10.26720049 19.58141443 -10.3125 21.875 C-10.34988281 23.10992187 -10.38726562 24.34484375 -10.42578125 25.6171875 C-10.28407508 29.53361473 -10.28407508 29.53361473 -6 33 C-6 57.75 -6 82.5 -6 108 C96.96 108 199.92 108 306 108 C306 117.57 306 127.14 306 137 C307.65 137 309.3 137 311 137 C313.70238949 141.05358424 313.22937614 143.18310104 313 148 C312 150 312 150 310.40869141 150.61669922 C307.09221113 151.1444586 303.8095378 151.14256669 300.4609375 151.1328125 C299.37783798 151.13424759 299.37783798 151.13424759 298.27285767 151.13571167 C296.75156568 151.1363904 295.23027075 151.13455753 293.70898438 151.13037109 C291.37623641 151.12500285 289.04367962 151.1303344 286.7109375 151.13671875 C285.23177041 151.13605822 283.75260343 151.13477758 282.2734375 151.1328125 C281.22499161 151.13584885 281.22499161 151.13584885 280.15536499 151.13894653 C275.22994631 151.11497315 275.22994631 151.11497315 273 150 C272.34 151.98 271.68 153.96 271 156 C269.02 156 267.04 156 265 156 C263.77053482 153.54106964 263.85920997 151.74585072 263.75 149 C263.32823633 143.57426059 261.71591789 139.70098776 259.05859375 134.99609375 C258 133 258 133 258 131 C257.01 130.67 256.02 130.34 255 130 C253.33333333 128.33333333 251.66666667 126.66666667 250 125 C244.06755729 120.55066797 236.26116675 119.37403735 229 120 C219.01736162 122.00237402 211.926399 125.56948875 206 134 C202.5742017 139.75316604 201.50318463 145.06387799 201.17578125 151.71484375 C201 154 201 154 200 156 C198.02 156 196.04 156 194 156 C192.27147357 150.01663928 190.63040815 144.01077136 189 138 C189.01571045 138.59949463 189.0314209 139.19898926 189.04760742 139.81665039 C189.1104413 142.56516877 189.14914235 145.31353542 189.1875 148.0625 C189.22520508 149.47692383 189.22520508 149.47692383 189.26367188 150.91992188 C189.37618539 161.68371465 185.1714497 168.68489892 177.75 176.3125 C171.25295934 180.29932041 163.57095362 182.1174376 156 181 C146.965446 178.73816682 140.4648665 174.94808536 135.25 167.1875 C132.80620716 163.01772805 131.31911862 158.63300199 130 154 C128.88625 154.7734375 128.88625 154.7734375 127.75 155.5625 C125 157 125 157 122.6875 156.6875 C121.8521875 156.3471875 121.8521875 156.3471875 121 156 C120.67 154.35 120.34 152.7 120 151 C104.39584111 150.96959275 88.79168333 150.94999378 73.1875 150.9375 C72.04269543 150.9364967 70.89789085 150.93549339 69.71839523 150.93445969 C40.63894854 150.9105215 11.57274218 150.90611816 -17.49731445 151.73217773 C-18.41684906 151.75694183 -19.33638367 151.78170593 -20.28378296 151.80722046 C-21.92646772 151.8527338 -23.56902545 151.90334319 -25.21133423 151.96084595 C-28.96230366 152.06824722 -32.35548638 151.92866084 -36 151 C-36.33 152.65 -36.66 154.3 -37 156 C-39.58692879 156.71859133 -41.4482346 157.13354172 -44.08203125 156.49609375 C-47.08164741 154.15627096 -46.98246992 151.00297991 -47.4375 147.4375 C-48.87793644 138.48109334 -51.09293662 132.16851696 -58.1875 126.125 C-65.91769186 120.59059353 -74.30316589 118.89382651 -83.625 120.43359375 C-91.28276658 122.14595544 -97.41529633 125.4642525 -102.33984375 131.6953125 C-106.95256643 139.1801078 -108.47720843 147.36492544 -109 156 C-111.8125 156.625 -111.8125 156.625 -115 157 C-116.485 156.01 -116.485 156.01 -118 155 C-118 153.68 -118 152.36 -118 151 C-118.95261719 151.02320313 -119.90523437 151.04640625 -120.88671875 151.0703125 C-122.14097656 151.08835938 -123.39523438 151.10640625 -124.6875 151.125 C-125.92886719 151.14820313 -127.17023438 151.17140625 -128.44921875 151.1953125 C-131.81237857 151.01032021 -133.9985587 150.45767895 -137 149 C-137.02687279 147.18757948 -137.04633715 145.37504767 -137.0625 143.5625 C-137.07410156 142.55316406 -137.08570313 141.54382813 -137.09765625 140.50390625 C-137 138 -137 138 -136 137 C-133.66702567 136.95907063 -131.33294775 136.95758277 -129 137 C-129.00444122 136.39580231 -129.00888245 135.79160461 -129.01345825 135.1690979 C-129.05794009 128.84176006 -129.08796897 122.51446715 -129.10986328 116.18701172 C-129.11987842 113.83022251 -129.13349442 111.47344559 -129.15087891 109.11669922 C-129.17532519 105.71578932 -129.18652831 102.31504469 -129.1953125 98.9140625 C-129.20563507 97.87198639 -129.21595764 96.82991028 -129.22659302 95.7562561 C-129.2278939 87.14224193 -128.46206096 78.96746707 -124.375 71.25 C-123.84648438 70.24453125 -123.31796875 69.2390625 -122.7734375 68.203125 C-120.54803701 64.18367919 -118.27383758 60.19369762 -115.96679688 56.22070312 C-113.7929254 52.45903259 -111.78562922 48.65128479 -109.875 44.75 C-104.41254781 33.64599882 -104.41254781 33.64599882 -101 29 C-100.34 29 -99.68 29 -99 29 C-99 28.34 -99 27.68 -99 27 C-95.08922388 25.17310863 -91.99811298 24.74743842 -87.69677734 24.74121094 C-86.4455307 24.73490662 -85.19428406 24.72860229 -83.90512085 24.72210693 C-82.54872496 24.72568617 -81.19233036 24.729788 -79.8359375 24.734375 C-78.43779432 24.73302687 -77.03965159 24.73108511 -75.64151001 24.72857666 C-72.71799231 24.72563428 -69.79459716 24.72989571 -66.87109375 24.73925781 C-63.12392151 24.75067311 -59.37703513 24.74407433 -55.62987328 24.73211288 C-52.74569542 24.72488831 -49.86158544 24.72718458 -46.97740555 24.73236847 C-45.59550569 24.73370222 -44.21359966 24.73206685 -42.831707 24.72740936 C-40.90261706 24.7223323 -38.97350548 24.73144222 -37.04443359 24.74121094 C-35.94698822 24.74280212 -34.84954285 24.74439331 -33.71884155 24.74603271 C-31 25 -31 25 -28 27 C-28 27.66 -28 28.32 -28 29 C-27.34 29 -26.68 29 -26 29 C-24.82891936 32.51324192 -24.86770642 35.66365058 -24.88647461 39.31713867 C-24.88632858 40.05884811 -24.88618256 40.80055756 -24.8860321 41.56474304 C-24.88672866 44.01584805 -24.89450903 46.46687702 -24.90234375 48.91796875 C-24.90420884 50.61761941 -24.90563232 52.31727061 -24.90663147 54.016922 C-24.91044945 58.49019861 -24.92027362 62.96344276 -24.93133545 67.43670654 C-24.94156501 72.00141969 -24.9461324 76.56613807 -24.95117188 81.13085938 C-24.96189651 90.08725385 -24.97896433 99.04362422 -25 108 C-23.68 108 -22.36 108 -21 108 C-21.00444122 107.10908157 -21.00888245 106.21816315 -21.01345825 105.30024719 C-21.05355377 96.89889798 -21.08399399 88.49758097 -21.10362434 80.09615803 C-21.1140558 75.77703579 -21.12820337 71.4579927 -21.15087891 67.13891602 C-21.17263001 62.96976634 -21.18457343 58.80069275 -21.18975449 54.63149071 C-21.19344617 53.04190054 -21.2006551 51.45231446 -21.21146011 49.86275673 C-21.22600526 47.63408069 -21.22797669 45.40571792 -21.22705078 43.17700195 C-21.231492 41.90903275 -21.23593323 40.64106354 -21.24050903 39.33467102 C-20.92373656 34.94260321 -20.12840502 32.12840502 -17 29 C-16.98535298 26.99335807 -16.97921257 24.98607488 -17.02832031 22.97998047 C-17.12359054 16.24165347 -16.94683716 10.95244202 -12.24389648 5.80444336 C-5.45015425 -0.69618759 -5.45015425 -0.69618759 0 0 Z M147 122 C146.19752326 124.03952305 146.19752326 124.03952305 146 126 C146.6290625 125.83886719 147.258125 125.67773438 147.90625 125.51171875 C152.11667392 124.81529762 156.23962239 124.81576216 160.5 124.8125 C161.34175781 124.80025391 162.18351562 124.78800781 163.05078125 124.77539062 C167.55105444 124.76476006 170.8645359 125.04799922 175 127 C175.99 127 176.98 127 178 127 C178 126.01 178 125.02 178 124 C169.75857446 117.75649581 156.03408029 116.48488948 147 122 Z M145.0625 142.25 C142.58714293 148.65680654 142.17977383 154.9693736 144.98046875 161.3125 C147.30185442 165.15479353 150.97230574 167.27279535 155 169 C161.16062404 169.79458635 166.64173792 169.29739205 172 166 C175.60770243 162.80826326 177.70759261 159.82874455 178.4765625 155.01953125 C178.63023651 149.39645948 178.39450169 144.68207129 175 140 C169.5353143 134.95567473 165.1935971 133.42277171 157.828125 133.55078125 C152.13896218 134.45444662 148.69790703 138.028237 145.0625 142.25 Z M187 134 C188 137 188 137 188 137 Z " fill="#080808" transform="translate(169,63)"/>
<path d="M0 0 C1.63229065 -0.00391162 1.63229065 -0.00391162 3.29755688 -0.00790226 C5.11312824 -0.00455618 5.11312824 -0.00455618 6.96537781 -0.0011425 C8.239595 -0.00270249 9.5138122 -0.00426248 10.82664204 -0.00586975 C14.37975194 -0.0100675 17.93283519 -0.00797038 21.48594522 -0.00488353 C25.3114786 -0.00263145 29.13700722 -0.00610808 32.96253967 -0.00886345 C40.46319065 -0.01332221 47.96383165 -0.01234421 55.46448302 -0.00945081 C61.55760642 -0.00719719 67.65072701 -0.00688407 73.74385071 -0.00797462 C74.6093392 -0.00812786 75.4748277 -0.00828109 76.36654311 -0.00843897 C78.12447985 -0.00875868 79.88241659 -0.00908289 81.64035332 -0.00941156 C98.14470327 -0.01226666 114.64904768 -0.00897886 131.15339673 -0.00361119 C145.33087953 0.00085687 159.50835414 0.00008095 173.68583679 -0.00452995 C190.12903446 -0.00987518 206.57222727 -0.01199197 223.01542568 -0.00891769 C224.76708412 -0.00859912 226.51874256 -0.00828475 228.270401 -0.00797462 C229.56335106 -0.00774321 229.56335106 -0.00774321 230.88242131 -0.00750712 C236.9718931 -0.00664181 243.06136182 -0.00810514 249.15083313 -0.01045418 C256.56659687 -0.01325181 263.98235002 -0.0125147 271.39811254 -0.00717343 C275.18549765 -0.00453592 278.97286508 -0.0035322 282.76025009 -0.00682259 C286.8564736 -0.0103276 290.95265199 -0.0061574 295.0488739 -0.0011425 C296.25925481 -0.00337322 297.46963572 -0.00560395 298.71669483 -0.00790226 C299.8048886 -0.00529452 300.89308237 -0.00268677 302.01425171 0 C302.96111186 0.00016235 303.90797201 0.0003247 304.88352489 0.00049198 C307.00712585 0.12584114 307.00712585 0.12584114 308.00712585 1.12584114 C308.07956638 3.14548313 308.09089774 5.16751238 308.06962585 7.18834114 C308.06060242 8.2930677 308.05157898 9.39779427 308.0422821 10.53599739 C308.02487976 11.81797005 308.02487976 11.81797005 308.00712585 13.12584114 C305.19125362 14.53377726 302.88096569 14.24084044 299.72802734 14.22995186 C299.06243801 14.2290504 298.39684868 14.22814895 297.71108997 14.22722018 C295.42211628 14.22287019 293.13323268 14.21124182 290.84428406 14.19981575 C289.16035484 14.19510742 287.47642429 14.19085888 285.79249287 14.1870203 C281.9868264 14.17738749 278.18118708 14.1644912 274.37553787 14.14953423 C267.59294744 14.123279 260.81034547 14.10642637 254.02772522 14.08998299 C237.55598848 14.04869049 221.08429331 13.99633837 204.6125946 13.94224739 C203.873681 13.93982295 203.13476739 13.93739852 202.37346247 13.93490061 C187.63350656 13.88649395 172.89355345 13.83726345 158.15360546 13.78650188 C154.95479524 13.77549829 151.75598498 13.76450616 148.55717468 13.75352669 C147.76248822 13.75079838 146.96780175 13.74807008 146.14903388 13.7452591 C133.1641158 13.7007902 120.17918827 13.66025448 107.19425293 13.62118853 C93.7967346 13.58080835 80.39923254 13.53669682 67.00173837 13.48896259 C59.50445204 13.46234999 52.00716821 13.43742471 44.5098629 13.41676712 C37.49744778 13.39744229 30.48506577 13.37314075 23.47267914 13.34535027 C20.89459361 13.33595885 18.31650118 13.32829117 15.73840523 13.32242203 C12.23750499 13.31419972 8.73668193 13.29993608 5.23580933 13.28405952 C3.68571609 13.28259236 3.68571609 13.28259236 2.10430783 13.28109556 C1.17478435 13.27562112 0.24526086 13.27014668 -0.71243 13.26450634 C-1.52076072 13.2618483 -2.32909144 13.25919026 -3.16191703 13.25645167 C-4.99287415 13.12584114 -4.99287415 13.12584114 -5.99287415 12.12584114 C-6.09138585 10.29468231 -6.12260044 8.45964181 -6.11787415 6.62584114 C-6.12045227 5.62552864 -6.1230304 4.62521614 -6.12568665 3.59459114 C-5.88924749 -0.80039544 -3.9079162 0.00067007 0 0 Z " fill="#030303" transform="translate(176.9928741455078,151.87415885925293)"/>
<path d="M0 0 C0.74168427 0.00444122 1.48336853 0.00888245 2.24752808 0.01345825 C3.10000122 0.01369995 3.95247437 0.01394165 4.83078003 0.01419067 C5.72740356 0.02442261 6.6240271 0.03465454 7.54782104 0.04519653 C8.37145142 0.04721069 9.19508179 0.04922485 10.04367065 0.05130005 C13.12583978 0.0617788 16.20792965 0.08970133 19.29000854 0.11550903 C26.17875854 0.15675903 33.06750854 0.19800903 40.16500854 0.24050903 C40.16500854 14.76050903 40.16500854 29.28050903 40.16500854 44.24050903 C18.71500854 44.24050903 -2.73499146 44.24050903 -24.83499146 44.24050903 C-24.00982934 39.28953636 -23.56324645 37.24215408 -21.22561646 33.18191528 C-20.6861438 32.23074829 -20.14667114 31.2795813 -19.59085083 30.29959106 C-19.01141724 29.29009399 -18.43198364 28.28059692 -17.83499146 27.24050903 C-16.63979018 25.08433694 -15.4471389 22.92674965 -14.25686646 20.76785278 C-13.0335632 18.57087332 -11.8095999 16.37426125 -10.58499146 14.17800903 C-9.96108521 13.05201294 -9.33717896 11.92601685 -8.69436646 10.76589966 C-8.09624146 9.69404419 -7.49811646 8.62218872 -6.88186646 7.51785278 C-6.34400513 6.55097534 -5.8061438 5.5840979 -5.25198364 4.58792114 C-2.69581807 0.35333603 -2.69581807 0.35333603 0 0 Z " fill="#DDDDDD" transform="translate(79.83499145507813,94.75949096679688)"/>
<path d="M0 0 C-0.66 0.33 -1.32 0.66 -2 1 C-2.33 1.99 -2.66 2.98 -3 4 C-2.36707031 3.67644531 -1.73414063 3.35289062 -1.08203125 3.01953125 C3.09796824 1.63679378 6.93872347 1.67048141 11.3125 1.6875 C12.12912109 1.67138672 12.94574219 1.65527344 13.78710938 1.63867188 C19.51850562 1.63410503 23.74584733 2.70848808 29 5 C29 4.01 29 3.02 29 2 C28.01 1.67 27.02 1.34 26 1 C26.66 0.67 27.32 0.34 28 0 C36.02059626 5.67465111 41.84161986 11.52485959 45 21 C45.0685495 22.89470816 45.08480372 24.7916834 45.0625 26.6875 C45.05347656 27.68136719 45.04445313 28.67523438 45.03515625 29.69921875 C45.02355469 30.45847656 45.01195312 31.21773437 45 32 C45.99 32 46.98 32 48 32 C49.32 26.72 50.64 21.44 52 16 C52.66 16.33 53.32 16.66 54 17 C53.69188262 19.45895618 53.37871012 21.91708307 53.0625 24.375 C52.97548828 25.07367188 52.88847656 25.77234375 52.79882812 26.4921875 C52.11328125 31.7734375 52.11328125 31.7734375 51 34 C49.02 34 47.04 34 45 34 C43.27147357 28.01663928 41.63040815 22.01077136 40 16 C40.01571045 16.59949463 40.0314209 17.19898926 40.04760742 17.81665039 C40.1104413 20.56516877 40.14914235 23.31353542 40.1875 26.0625 C40.21263672 27.00544922 40.23777344 27.94839844 40.26367188 28.91992188 C40.37618539 39.68371465 36.1714497 46.68489892 28.75 54.3125 C22.25295934 58.29932041 14.57095362 60.1174376 7 59 C-2.034554 56.73816682 -8.5351335 52.94808536 -13.75 45.1875 C-16.19379284 41.01772805 -17.68088138 36.63300199 -19 32 C-19.7425 32.515625 -20.485 33.03125 -21.25 33.5625 C-24 35 -24 35 -26.3125 34.6875 C-26.869375 34.460625 -27.42625 34.23375 -28 34 C-28.33 32.35 -28.66 30.7 -29 29 C-40.55 29 -52.1 29 -64 29 C-64 28.34 -64 27.68 -64 27 C-45.685 27.495 -45.685 27.495 -27 28 C-27 29.32 -27 30.64 -27 32 C-25.35 32 -23.7 32 -22 32 C-22.0825 30.741875 -22.165 29.48375 -22.25 28.1875 C-22.11629454 17.49106308 -17.6894342 11.02303618 -10.32910156 3.7956543 C-4.6473288 -1.5491096 -4.6473288 -1.5491096 0 0 Z M-3.9375 20.25 C-6.41285707 26.65680654 -6.82022617 32.9693736 -4.01953125 39.3125 C-1.69814558 43.15479353 1.97230574 45.27279535 6 47 C12.16062404 47.79458635 17.64173792 47.29739205 23 44 C26.60770243 40.80826326 28.70759261 37.82874455 29.4765625 33.01953125 C29.63023651 27.39645948 29.39450169 22.68207129 26 18 C20.5353143 12.95567473 16.1935971 11.42277171 8.828125 11.55078125 C3.13896218 12.45444662 -0.30209297 16.028237 -3.9375 20.25 Z M38 12 C39 15 39 15 39 15 Z " fill="#181818" transform="translate(318,185)"/>
<path d="M0 0 C0.27734375 2.23828125 0.27734375 2.23828125 0 5 C-1.93359375 7.16796875 -1.93359375 7.16796875 -4.4375 9.1875 C-7.70544403 11.70187282 -7.70544403 11.70187282 -10 15 C-10.17484831 17.2873598 -10.26720049 19.58141443 -10.3125 21.875 C-10.34988281 23.10992187 -10.38726562 24.34484375 -10.42578125 25.6171875 C-10.28407508 29.53361473 -10.28407508 29.53361473 -6 33 C-6 57.75 -6 82.5 -6 108 C95.64 108 197.28 108 302 108 C302 108.33 302 108.66 302 109 C193.76 109 85.52 109 -26 109 C-26 83.59 -26 58.18 -26 32 C-25.67 32 -25.34 32 -25 32 C-25 57.08 -25 82.16 -25 108 C-23.68 108 -22.36 108 -21 108 C-21.00444122 107.10908157 -21.00888245 106.21816315 -21.01345825 105.30024719 C-21.05355377 96.89889798 -21.08399399 88.49758097 -21.10362434 80.09615803 C-21.1140558 75.77703579 -21.12820337 71.4579927 -21.15087891 67.13891602 C-21.17263001 62.96976634 -21.18457343 58.80069275 -21.18975449 54.63149071 C-21.19344617 53.04190054 -21.2006551 51.45231446 -21.21146011 49.86275673 C-21.22600526 47.63408069 -21.22797669 45.40571792 -21.22705078 43.17700195 C-21.231492 41.90903275 -21.23593323 40.64106354 -21.24050903 39.33467102 C-20.92373656 34.94260321 -20.12840502 32.12840502 -17 29 C-16.98535298 26.99335807 -16.97921257 24.98607488 -17.02832031 22.97998047 C-17.12359054 16.24165347 -16.94683716 10.95244202 -12.24389648 5.80444336 C-5.45015425 -0.69618759 -5.45015425 -0.69618759 0 0 Z " fill="#313131" transform="translate(169,63)"/>
<path d="M0 0 C1.13381104 0.01135986 1.13381104 0.01135986 2.29052734 0.02294922 C7.88065238 0.18868112 12.12226112 0.93417572 16.625 4.4375 C17.25792969 4.91960937 17.89085937 5.40171875 18.54296875 5.8984375 C24.80681528 10.98700561 28.98810629 16.41103495 30.0234375 24.58203125 C30.42823864 33.32380815 28.79363244 40.25674788 23.625 47.4375 C22.635 47.7675 21.645 48.0975 20.625 48.4375 C20.625 49.0975 20.625 49.7575 20.625 50.4375 C14.33059941 55.4407415 7.01646106 58.07561283 -1.0625 57.7109375 C-10.90770739 56.54680825 -18.34672529 52.26180765 -24.85546875 44.72265625 C-29.54785565 38.06522647 -28.85834403 30.25156178 -28.375 22.4375 C-26.80301138 14.9638931 -20.5802654 7.62605415 -14.375 3.4375 C-9.4307204 0.47386653 -5.61257003 -0.07817641 0 0 Z M-13.140625 16.390625 C-16.55241302 20.95030432 -18.21052586 24.6363362 -17.76171875 30.37109375 C-16.58168301 36.67653726 -13.33888785 39.81799845 -8.375 43.4375 C-2.4552691 45.41074363 4.2800541 45.40482184 10.0625 42.9375 C14.34001815 40.44301303 16.25705079 37.12272605 17.625 32.4375 C18.62386204 27.06861651 17.45466117 22.9216067 14.83203125 18.1953125 C12.25002932 14.43511552 8.73653338 12.23107094 4.625 10.4375 C-2.57770856 9.2925223 -8.22988015 10.95838512 -13.140625 16.390625 Z " fill="#131313" transform="translate(91.375,186.5625)"/>
<path d="M0 0 C7.26807709 5.63067122 12.84425064 12.14413648 14.14453125 21.53125 C14.47074841 30.85018695 12.29968893 37.29790155 6.57421875 44.56640625 C0.56040019 50.97688092 -6.76634263 54.04648812 -15.50390625 54.44140625 C-23.591349 54.07995629 -29.80082619 51.87502842 -35.6484375 46.21875 C-38.08270227 43.41618039 -39.66390924 40.65310688 -41.30078125 37.31640625 C-41.65914063 36.69636719 -42.0175 36.07632813 -42.38671875 35.4375 C-45.14690766 29.03244626 -43.4290668 20.7012629 -41.30078125 14.31640625 C-38.07546925 7.24552993 -32.87699 1.69164037 -25.73828125 -1.62109375 C-17.8479632 -4.1209965 -7.19405049 -4.47872557 0 0 Z M-29.30078125 13.31640625 C-32.40150046 18.01749667 -33.91504227 22.90517027 -32.8984375 28.55078125 C-31.33144515 34.07697913 -28.96941012 37.9210398 -24.30078125 41.31640625 C-19.11312745 44.02813437 -13.8811585 43.57062785 -8.30078125 42.31640625 C-2.90660318 39.51942503 0.44680461 36.00015084 3.01171875 30.50390625 C4.27979636 24.62463733 3.46305532 20.18840327 0.51171875 15.06640625 C-2.03801548 11.41777248 -4.11613782 9.10982486 -8.30078125 7.31640625 C-16.85244086 6.04370495 -23.38336071 6.66881556 -29.30078125 13.31640625 Z " fill="#242424" transform="translate(416.30078125,189.68359375)"/>
<path d="M0 0 C1.63229065 -0.00391162 1.63229065 -0.00391162 3.29755688 -0.00790226 C5.11312824 -0.00455618 5.11312824 -0.00455618 6.96537781 -0.0011425 C8.239595 -0.00270249 9.5138122 -0.00426248 10.82664204 -0.00586975 C14.37975194 -0.0100675 17.93283519 -0.00797038 21.48594522 -0.00488353 C25.3114786 -0.00263145 29.13700722 -0.00610808 32.96253967 -0.00886345 C40.46319065 -0.01332221 47.96383165 -0.01234421 55.46448302 -0.00945081 C61.55760642 -0.00719719 67.65072701 -0.00688407 73.74385071 -0.00797462 C74.6093392 -0.00812786 75.4748277 -0.00828109 76.36654311 -0.00843897 C78.12447985 -0.00875868 79.88241659 -0.00908289 81.64035332 -0.00941156 C98.14470327 -0.01226666 114.64904768 -0.00897886 131.15339673 -0.00361119 C145.33087953 0.00085687 159.50835414 0.00008095 173.68583679 -0.00452995 C190.12903446 -0.00987518 206.57222727 -0.01199197 223.01542568 -0.00891769 C224.76708412 -0.00859912 226.51874256 -0.00828475 228.270401 -0.00797462 C229.56335106 -0.00774321 229.56335106 -0.00774321 230.88242131 -0.00750712 C236.9718931 -0.00664181 243.06136182 -0.00810514 249.15083313 -0.01045418 C256.56659687 -0.01325181 263.98235002 -0.0125147 271.39811254 -0.00717343 C275.18549765 -0.00453592 278.97286508 -0.0035322 282.76025009 -0.00682259 C286.8564736 -0.0103276 290.95265199 -0.0061574 295.0488739 -0.0011425 C296.25925481 -0.00337322 297.46963572 -0.00560395 298.71669483 -0.00790226 C299.8048886 -0.00529452 300.89308237 -0.00268677 302.01425171 0 C302.96111186 0.00016235 303.90797201 0.0003247 304.88352489 0.00049198 C307.00712585 0.12584114 307.00712585 0.12584114 308.00712585 1.12584114 C308.07956638 3.14548313 308.09089774 5.16751238 308.06962585 7.18834114 C308.06060242 8.2930677 308.05157898 9.39779427 308.0422821 10.53599739 C308.02487976 11.81797005 308.02487976 11.81797005 308.00712585 13.12584114 C305.19125362 14.53377726 302.88096569 14.24084044 299.72802734 14.22995186 C299.06243801 14.2290504 298.39684868 14.22814895 297.71108997 14.22722018 C295.42211628 14.22287019 293.13323268 14.21124182 290.84428406 14.19981575 C289.16035484 14.19510742 287.47642429 14.19085888 285.79249287 14.1870203 C281.9868264 14.17738749 278.18118708 14.1644912 274.37553787 14.14953423 C267.59294744 14.123279 260.81034547 14.10642637 254.02772522 14.08998299 C237.55598848 14.04869049 221.08429331 13.99633837 204.6125946 13.94224739 C203.873681 13.93982295 203.13476739 13.93739852 202.37346247 13.93490061 C187.63350656 13.88649395 172.89355345 13.83726345 158.15360546 13.78650188 C154.95479524 13.77549829 151.75598498 13.76450616 148.55717468 13.75352669 C147.76248822 13.75079838 146.96780175 13.74807008 146.14903388 13.7452591 C133.1641158 13.7007902 120.17918827 13.66025448 107.19425293 13.62118853 C93.7967346 13.58080835 80.39923254 13.53669682 67.00173837 13.48896259 C59.50445204 13.46234999 52.00716821 13.43742471 44.5098629 13.41676712 C37.49744778 13.39744229 30.48506577 13.37314075 23.47267914 13.34535027 C20.89459361 13.33595885 18.31650118 13.32829117 15.73840523 13.32242203 C12.23750499 13.31419972 8.73668193 13.29993608 5.23580933 13.28405952 C3.68571609 13.28259236 3.68571609 13.28259236 2.10430783 13.28109556 C1.17478435 13.27562112 0.24526086 13.27014668 -0.71243 13.26450634 C-1.52076072 13.2618483 -2.32909144 13.25919026 -3.16191703 13.25645167 C-4.99287415 13.12584114 -4.99287415 13.12584114 -5.99287415 12.12584114 C-6.09138585 10.29468231 -6.12260044 8.45964181 -6.11787415 6.62584114 C-6.12045227 5.62552864 -6.1230304 4.62521614 -6.12568665 3.59459114 C-5.88924749 -0.80039544 -3.9079162 0.00067007 0 0 Z M-4.99287415 2.12584114 C-4.99287415 5.42584114 -4.99287415 8.72584114 -4.99287415 12.12584114 C97.63712585 12.12584114 200.26712585 12.12584114 306.00712585 12.12584114 C306.00712585 8.82584114 306.00712585 5.52584114 306.00712585 2.12584114 C203.37712585 2.12584114 100.74712585 2.12584114 -4.99287415 2.12584114 Z " fill="#565656" transform="translate(176.9928741455078,151.87415885925293)"/>
<path d="M0 0 C-0.66 0.33 -1.32 0.66 -2 1 C-2.33 1.99 -2.66 2.98 -3 4 C-2.36707031 3.67644531 -1.73414063 3.35289062 -1.08203125 3.01953125 C3.09796824 1.63679378 6.93872347 1.67048141 11.3125 1.6875 C12.12912109 1.67138672 12.94574219 1.65527344 13.78710938 1.63867188 C19.51850562 1.63410503 23.74584733 2.70848808 29 5 C29 4.01 29 3.02 29 2 C28.01 1.67 27.02 1.34 26 1 C26.66 0.67 27.32 0.34 28 0 C36.02059626 5.67465111 41.84161986 11.52485959 45 21 C45.0685495 22.89470816 45.08480372 24.7916834 45.0625 26.6875 C45.05347656 27.68136719 45.04445313 28.67523438 45.03515625 29.69921875 C45.02355469 30.45847656 45.01195312 31.21773437 45 32 C45.99 32 46.98 32 48 32 C49.32 26.72 50.64 21.44 52 16 C52.66 16.33 53.32 16.66 54 17 C53.69188262 19.45895618 53.37871012 21.91708307 53.0625 24.375 C52.97548828 25.07367188 52.88847656 25.77234375 52.79882812 26.4921875 C52.11328125 31.7734375 52.11328125 31.7734375 51 34 C49.02 34 47.04 34 45 34 C43.27147357 28.01663928 41.63040815 22.01077136 40 16 C40.01571045 16.59949463 40.0314209 17.19898926 40.04760742 17.81665039 C40.1104413 20.56516877 40.14914235 23.31353542 40.1875 26.0625 C40.21263672 27.00544922 40.23777344 27.94839844 40.26367188 28.91992188 C40.33726961 35.96077219 39.67673684 41.01735038 34.8125 46.4375 C34.214375 46.953125 33.61625 47.46875 33 48 C33.268125 47.360625 33.53625 46.72125 33.8125 46.0625 C34.4003125 44.5465625 34.4003125 44.5465625 35 43 C35.26425781 42.33355469 35.52851563 41.66710937 35.80078125 40.98046875 C38.98399795 32.36617142 38.93271147 25.67754133 35.1953125 17.22265625 C31.98253268 11.24856568 25.4360407 6.1453469 19 4 C9.96325695 3.17740961 2.4556322 3.48469276 -5 9 C-10.47626449 13.96637022 -13.58286899 18.63366763 -14.30078125 26.1484375 C-14.3389425 36.65550111 -12.81690087 42.47408448 -5.81640625 50.3359375 C-3.97286806 52.02485636 -2.2822931 53.0068263 0 54 C0 54.66 0 55.32 0 56 C-7.00444035 53.73385753 -11.24706445 49.37512331 -14.8984375 43.203125 C-16.69698244 39.60603512 -17.900778 35.86068213 -19 32 C-19.7425 32.515625 -20.485 33.03125 -21.25 33.5625 C-24 35 -24 35 -26.3125 34.6875 C-26.869375 34.460625 -27.42625 34.23375 -28 34 C-28.33 32.35 -28.66 30.7 -29 29 C-40.55 29 -52.1 29 -64 29 C-64 28.34 -64 27.68 -64 27 C-45.685 27.495 -45.685 27.495 -27 28 C-27 29.32 -27 30.64 -27 32 C-25.35 32 -23.7 32 -22 32 C-22.0825 30.741875 -22.165 29.48375 -22.25 28.1875 C-22.11629454 17.49106308 -17.6894342 11.02303618 -10.32910156 3.7956543 C-4.6473288 -1.5491096 -4.6473288 -1.5491096 0 0 Z M38 12 C39 15 39 15 39 15 Z " fill="#343434" transform="translate(318,185)"/>
<path d="M0 0 C4.62 0 9.24 0 14 0 C14 14.52 14 29.04 14 44 C9.38 44 4.76 44 0 44 C0 29.48 0 14.96 0 0 Z " fill="#D7D7D7" transform="translate(122,95)"/>
<path d="M0 0 C2.93715662 2.23479308 4.56762386 3.97310667 6 7.375 C6 11.13887306 4.74270569 13.70130708 3 17 C-0.7373856 19.4915904 -2.57331583 19.45793285 -7 19 C-9.94855414 17.46162393 -11.54706386 16.3392371 -12.6328125 13.12890625 C-13.26813494 9.55352782 -13.21695113 7.4989876 -11.75 4.125 C-8.2164972 -0.16568198 -5.37188074 -0.64833043 0 0 Z " fill="#171717" transform="translate(95,206)"/>
<path d="M0 0 C2.9375 1.375 2.9375 1.375 5 4 C5.70872149 7.46870192 5.70872149 10.53129808 5 14 C2.34178445 17.38318343 0.72160177 17.88402829 -3.5 18.5625 C-7.96195728 17.84539972 -9.33507152 16.60549148 -12 13 C-13.22011399 9.33965804 -13.35263082 7.77578781 -11.75 4.25 C-8.28606857 -0.20362612 -5.42246803 -0.56094497 0 0 Z " fill="#151515" transform="translate(333,206)"/>
<path d="M0 0 C8.27762514 2.50837126 12.68843736 8.51115702 16.8359375 15.73046875 C18.79706076 19.55400102 19.1123928 22.44661213 19.0625 26.6875 C19.05347656 27.68136719 19.04445313 28.67523438 19.03515625 29.69921875 C19.02355469 30.45847656 19.01195312 31.21773437 19 32 C19.99 32 20.98 32 22 32 C23.32 26.72 24.64 21.44 26 16 C26.66 16.33 27.32 16.66 28 17 C27.69188262 19.45895618 27.37871012 21.91708307 27.0625 24.375 C26.97548828 25.07367188 26.88847656 25.77234375 26.79882812 26.4921875 C26.11328125 31.7734375 26.11328125 31.7734375 25 34 C23.02 34 21.04 34 19 34 C17.27147357 28.01663928 15.63040815 22.01077136 14 16 C14.01571045 16.59949463 14.0314209 17.19898926 14.04760742 17.81665039 C14.1104413 20.56516877 14.14914235 23.31353542 14.1875 26.0625 C14.21263672 27.00544922 14.23777344 27.94839844 14.26367188 28.91992188 C14.33726961 35.96077219 13.67673684 41.01735038 8.8125 46.4375 C8.214375 46.953125 7.61625 47.46875 7 48 C7.268125 47.360625 7.53625 46.72125 7.8125 46.0625 C8.204375 45.051875 8.59625 44.04125 9 43 C9.26425781 42.33355469 9.52851563 41.66710937 9.80078125 40.98046875 C12.98399795 32.36617142 12.93271147 25.67754133 9.1953125 17.22265625 C5.75752927 10.83017698 -1.4063679 5.90119812 -8 3 C-4.59068103 1.86356034 -3.99664544 2.13252236 -0.8125 3.4375 C-0.09707031 3.72496094 0.61835938 4.01242188 1.35546875 4.30859375 C1.89816406 4.53675781 2.44085938 4.76492187 3 5 C3 4.01 3 3.02 3 2 C2.01 1.67 1.02 1.34 0 1 C0 0.67 0 0.34 0 0 Z M12 12 C13 15 13 15 13 15 Z " fill="#414141" transform="translate(344,185)"/>
<path d="M0 0 C3.11124914 2.78374923 3.90935635 4.42592356 4.5625 8.5625 C4 12 4 12 1.9375 14.4375 C-1.77350139 16.41143691 -3.85009967 16.66694827 -8 16 C-11 14 -11 14 -13 11 C-13.43781369 8.05205448 -13.13588814 5.75366823 -12 3 C-8.04496957 -0.77107553 -5.20515987 -1.92364604 0 0 Z " fill="#222222" transform="translate(406,207)"/>
<path d="M0 0 C4.77996651 3.0610623 8.2260203 6.0906988 9.85546875 11.6875 C11.08009271 17.39549303 11.2551444 22.93958009 8.37890625 28.1484375 C4.62885016 33.32708639 -0.13911812 36.22082224 -6.4296875 37.3125 C-13.10195776 37.66415918 -17.63110464 36.19728423 -22.68359375 31.8359375 C-27.65014406 26.6146923 -28.14321523 21.76303367 -28.10546875 14.7421875 C-27.41676873 9.99780958 -25.08562297 6.18830206 -21.68359375 2.8359375 C-20.69359375 2.8359375 -19.70359375 2.8359375 -18.68359375 2.8359375 C-19.28171875 3.5578125 -19.87984375 4.2796875 -20.49609375 5.0234375 C-21.21796875 5.9515625 -21.93984375 6.8796875 -22.68359375 7.8359375 C-23.26109375 8.5784375 -23.83859375 9.3209375 -24.43359375 10.0859375 C-26.72033247 15.11676268 -26.09672519 20.05629439 -24.87109375 25.3359375 C-24.47921875 26.1609375 -24.08734375 26.9859375 -23.68359375 27.8359375 C-22.69359375 28.1659375 -21.70359375 28.4959375 -20.68359375 28.8359375 C-20.68359375 29.4959375 -20.68359375 30.1559375 -20.68359375 30.8359375 C-15.11824409 33.24257519 -9.64673508 33.44731455 -3.68359375 32.8359375 C-0.23013227 31.48847226 -0.23013227 31.48847226 2.31640625 29.8359375 C2.97640625 29.8359375 3.63640625 29.8359375 4.31640625 29.8359375 C6.52558166 24.38663814 7.99134107 19.78661284 7.31640625 13.8359375 C5.9171568 10.53492619 5.9171568 10.53492619 4.31640625 7.8359375 C4.31640625 7.1759375 4.31640625 6.5159375 4.31640625 5.8359375 C3.32640625 5.5059375 2.33640625 5.1759375 1.31640625 4.8359375 C1.31640625 4.1759375 1.31640625 3.5159375 1.31640625 2.8359375 C-4.95702192 0.26222338 -11.17745249 -0.00403457 -17.68359375 1.8359375 C-17.68359375 1.1759375 -17.68359375 0.5159375 -17.68359375 -0.1640625 C-11.98347462 -2.06410221 -5.57785193 -2.41950491 0 0 Z " fill="#373737" transform="translate(100.68359375,197.1640625)"/>
<path d="M0 0 C40.92 0 81.84 0 124 0 C124 0.33 124 0.66 124 1 C123.29892624 1.01030746 122.59785248 1.02061493 121.87553406 1.03123474 C114.2923677 1.14297687 106.70922595 1.25631023 99.12609863 1.3706665 C96.17338486 1.41519128 93.22066655 1.45939583 90.26794434 1.50335693 C74.67896343 1.73595808 59.09094999 1.98300771 43.50390625 2.32421875 C42.32048141 2.34969284 41.13705658 2.37516693 39.91777039 2.40141296 C34.37165621 2.52139943 28.82578445 2.64739879 23.2800293 2.78295898 C21.30648237 2.82686308 19.33293117 2.87057596 17.359375 2.9140625 C16.47588882 2.93792526 15.59240265 2.96178802 14.68214417 2.9863739 C10.63276965 3.07054312 6.95246187 3.04303877 3 2 C2.67 3.65 2.34 5.3 2 7 C-0.375 7.625 -0.375 7.625 -3 8 C-3.66 7.34 -4.32 6.68 -5 6 C-3.35 5.67 -1.7 5.34 0 5 C0 3.35 0 1.7 0 0 Z " fill="#1A1A1A" transform="translate(130,212)"/>
<path d="M0 0 C0.27734375 2.23828125 0.27734375 2.23828125 0 5 C-1.93359375 7.16796875 -1.93359375 7.16796875 -4.4375 9.1875 C-7.70544403 11.70187282 -7.70544403 11.70187282 -10 15 C-10.09715342 17.33168218 -10.12978217 19.66629957 -10.125 22 C-10.12886719 23.8871875 -10.12886719 23.8871875 -10.1328125 25.8125 C-10.22227358 28.89677818 -10.22227358 28.89677818 -9 31 C-10.98 30.34 -12.96 29.68 -15 29 C-16.60580484 11.62162314 -16.60580484 11.62162314 -12.94921875 6.51171875 C-5.94950904 -0.65391 -5.94950904 -0.65391 0 0 Z " fill="#3F3F3F" transform="translate(169,63)"/>
<path d="M0 0 C5.9671728 3.60805797 10.93112887 8.04499348 13.484375 14.76953125 C15.70062957 24.35651124 14.18280949 32.21385979 9.60546875 40.76953125 C8 43 8 43 5 44 C5 44.66 5 45.32 5 46 C-1.30186564 51.00917525 -8.57610738 53.59170642 -16.65625 53.29296875 C-20.90734661 52.76158167 -25.09907983 51.79191607 -29 50 C-29.66 49.01 -30.32 48.02 -31 47 C-30.42894531 47.2165625 -29.85789062 47.433125 -29.26953125 47.65625 C-21.27201002 50.40261659 -13.03345645 51.84708175 -4.90234375 48.86328125 C2.58206089 45.02538331 7.12302924 41.18003502 9.8125 33.0625 C11.93935591 24.89537332 10.98789051 17.84173636 8 10 C5.87482852 6.53370089 3.39822796 4.2654853 0 2 C0 1.34 0 0.68 0 0 Z " fill="#434343" transform="translate(107,191)"/>
<path d="M0 0 C0.33 0 0.66 0 1 0 C1 17.16 1 34.32 1 52 C-1.31 52 -3.62 52 -6 52 C-6 55.3 -6 58.6 -6 62 C0.27 62 6.54 62 13 62 C13 63.65 13 65.3 13 67 C14.65 67 16.3 67 18 67 C18.33 65.02 18.66 63.04 19 61 C19.33 61 19.66 61 20 61 C20 63.64 20 66.28 20 69 C17.1875 69.625 17.1875 69.625 14 70 C12.515 69.01 12.515 69.01 11 68 C11 66.68 11 65.36 11 64 C10.04738281 64.02320313 9.09476563 64.04640625 8.11328125 64.0703125 C6.85902344 64.08835937 5.60476562 64.10640625 4.3125 64.125 C3.07113281 64.14820313 1.82976563 64.17140625 0.55078125 64.1953125 C-2.81237857 64.01032021 -4.9985587 63.45767895 -8 62 C-8.02687279 60.18757948 -8.04633715 58.37504767 -8.0625 56.5625 C-8.07410156 55.55316406 -8.08570312 54.54382813 -8.09765625 53.50390625 C-8 51 -8 51 -7 50 C-4.69 50 -2.38 50 0 50 C0 33.5 0 17 0 0 Z " fill="#6C6C6C" transform="translate(40,150)"/>
<path d="M0 0 C1.25124664 -0.00630432 2.50249329 -0.01260864 3.79165649 -0.019104 C5.14805239 -0.01552476 6.50444699 -0.01142294 7.86083984 -0.00683594 C9.25898303 -0.00818406 10.65712575 -0.01012583 12.05526733 -0.01263428 C14.97878503 -0.01557666 17.90218018 -0.01131523 20.82568359 -0.00195312 C24.57285584 0.00946217 28.31974221 0.0028634 32.06690407 -0.00909805 C34.95108193 -0.01632263 37.8351919 -0.01402636 40.7193718 -0.00884247 C42.10127166 -0.00750872 43.48317769 -0.00914409 44.86507034 -0.01380157 C46.79416028 -0.01887864 48.72327186 -0.00976872 50.65234375 0 C51.74978912 0.00159119 52.8472345 0.00318237 53.97793579 0.00482178 C56.69677734 0.25878906 56.69677734 0.25878906 59.69677734 2.25878906 C59.36677734 2.91878906 59.03677734 3.57878906 58.69677734 4.25878906 C58.20177734 3.76378906 58.20177734 3.76378906 57.69677734 3.25878906 C55.71522589 3.12792097 53.72899812 3.06742541 51.7434082 3.03417969 C50.46795639 3.01166138 49.19250458 2.98914307 47.87840271 2.96594238 C42.01568713 2.89031088 36.15286357 2.83719155 30.28979492 2.79882812 C27.19807985 2.77660774 24.10758247 2.73493169 21.01635742 2.67578125 C17.28030278 2.60443135 13.54538817 2.56795739 9.80868721 2.55570984 C8.38891299 2.54534734 6.96917056 2.52301312 5.54978752 2.4881134 C-4.10270054 2.20089821 -4.10270054 2.20089821 -12.23852539 6.80371094 C-13.29556468 7.92293416 -14.33230426 9.0640882 -15.30322266 10.25878906 C-15.30322266 7.25878906 -15.30322266 7.25878906 -13.30322266 4.25878906 C-12.64322266 4.25878906 -11.98322266 4.25878906 -11.30322266 4.25878906 C-11.30322266 3.59878906 -11.30322266 2.93878906 -11.30322266 2.25878906 C-7.39244654 0.43189769 -4.30133564 0.00622748 0 0 Z " fill="#6E6E6E" transform="translate(81.30322265625,87.7412109375)"/>
<path d="M0 0 C6.6 0 13.2 0 20 0 C20 1.98 20 3.96 20 6 C16.87507749 6.05791844 13.75029234 6.09356746 10.625 6.125 C9.73554687 6.14175781 8.84609375 6.15851563 7.9296875 6.17578125 C7.07890625 6.18222656 6.228125 6.18867188 5.3515625 6.1953125 C4.17327881 6.21102295 4.17327881 6.21102295 2.97119141 6.22705078 C1 6 1 6 -1 4 C-0.67 2.68 -0.34 1.36 0 0 Z " fill="#CFCFCF" transform="translate(96,147)"/>
<path d="M0 0 C0 0.66 0 1.32 0 2 C-1.546875 2.7425 -1.546875 2.7425 -3.125 3.5 C-7.55574117 6.03056559 -10.53442863 9.5570073 -13 14 C-15.18226213 22.16376376 -14.98369959 31.44470767 -11 39 C-8.84780505 41.86002796 -6.52274814 44.46342858 -4 47 C-8.02197773 47 -9.07959795 45.7067141 -12 43 C-17.75035482 35.33286024 -17.58098451 28.39258286 -17 19 C-15.56615553 12.18316314 -10.29864777 6.138277 -5.3125 1.5 C-3 0 -3 0 0 0 Z " fill="#4E4E4E" transform="translate(80,190)"/>
<path d="M0 0 C0.66 0 1.32 0 2 0 C1.505 0.7425 1.505 0.7425 1 1.5 C-0.46802416 5.17006041 -0.25477988 8.0509118 0 12 C2.32528287 14.32528287 2.84665898 14.29511025 6 14.3125 C7.051875 14.33763672 7.051875 14.33763672 8.125 14.36328125 C8.74375 14.24339844 9.3625 14.12351563 10 14 C12.29633824 10.55549263 12.54016485 8.06187717 13 4 C14.125 5.5625 14.125 5.5625 15 8 C14.36428817 11.62355744 13.74948986 14.1394746 11.3125 16.9375 C7.98144714 18.46798375 5.6251162 18.44518971 2 18 C-0.94855414 16.46162393 -2.54706386 15.3392371 -3.6328125 12.12890625 C-4.28521394 8.45741303 -4.23200586 6.49564888 -2.625 3.0625 C-1 1 -1 1 0 0 Z " fill="#393939" transform="translate(86,207)"/>
<path d="M0 0 C2.97 0.495 2.97 0.495 6 1 C6.33 1.99 6.66 2.98 7 4 C7.5775 4.28875 8.155 4.5775 8.75 4.875 C15.58135502 8.29067751 17.6489401 14.20036597 20 21 C20.96070434 23.88211302 21.10581883 25.69850044 21.0625 28.6875 C21.05347656 29.49574219 21.04445313 30.30398437 21.03515625 31.13671875 C21.02355469 31.75160156 21.01195313 32.36648437 21 33 C20.34 33 19.68 33 19 33 C17.67061563 30.34123126 17.59545944 27.89117819 17.25 24.9375 C15.90245624 16.14453458 13.37165453 10.58952292 6.3125 5.0625 C4.87552893 4.04092225 3.43811831 3.0199621 2 2 C1.34 1.34 0.68 0.68 0 0 Z " fill="#474747" transform="translate(104,184)"/>
<path d="M0 0 C3.85925077 4.73635322 5.2723974 8.69550771 5.125 14.8125 C5.10695313 15.78832031 5.08890625 16.76414063 5.0703125 17.76953125 C5.03550781 18.87361328 5.03550781 18.87361328 5 20 C5.99 20 6.98 20 8 20 C9.32 14.72 10.64 9.44 12 4 C12.66 4.33 13.32 4.66 14 5 C13.69188262 7.45895618 13.37871012 9.91708307 13.0625 12.375 C12.93198242 13.42300781 12.93198242 13.42300781 12.79882812 14.4921875 C12.11328125 19.7734375 12.11328125 19.7734375 11 22 C9.02 22 7.04 22 5 22 C3.49812867 16.80121464 2.07567177 11.58477736 0.68359375 6.35546875 C0.07893926 4.00771057 0.07893926 4.00771057 -1 2 C-0.67 1.34 -0.34 0.68 0 0 Z " fill="#323232" transform="translate(358,197)"/>
<path d="M0 0 C0.66 0.33 1.32 0.66 2 1 C1.401875 1.721875 0.80375 2.44375 0.1875 3.1875 C-0.534375 4.115625 -1.25625 5.04375 -2 6 C-2.5775 6.7425 -3.155 7.485 -3.75 8.25 C-6.03673872 13.28082518 -5.41313144 18.22035689 -4.1875 23.5 C-3.795625 24.325 -3.40375 25.15 -3 26 C-2.01 26.33 -1.02 26.66 0 27 C0 27.66 0 28.32 0 29 C2.475 29.99 2.475 29.99 5 31 C5 31.66 5 32.32 5 33 C8.3 33.33 11.6 33.66 15 34 C15 34.33 15 34.66 15 35 C8.85045006 35.64057812 4.82316463 35.02370573 -0.2734375 31.4296875 C-4.88233346 27.61327139 -6.58847368 24.30783815 -7.30859375 18.51953125 C-7.66723566 10.98805112 -5.81951739 6.74069938 -1 1 C-0.67 0.67 -0.34 0.34 0 0 Z " fill="#454545" transform="translate(80,199)"/>
<path d="M0 0 C0 0.33 0 0.66 0 1 C-2.31 1.33 -4.62 1.66 -7 2 C-7 2.66 -7 3.32 -7 4 C-7.66 4 -8.32 4 -9 4 C-8.88590407 5.45922693 -8.75834456 6.91740598 -8.625 8.375 C-8.55539062 9.18710938 -8.48578125 9.99921875 -8.4140625 10.8359375 C-8.17107412 13.20334191 -8.17107412 13.20334191 -6 15 C-1.66356399 15.31537716 0.32653229 15.44897847 4 13 C4.73606499 9.43230448 4.73606499 9.43230448 5 6 C5.33 6 5.66 6 6 6 C6.60550459 13.26605505 6.60550459 13.26605505 3.9375 16.5 C0.22693494 18.39475662 -1.88370608 18.66154724 -6 18 C-9.2856634 15.57146618 -10.70758271 13.87725186 -12 10 C-12 6.37396827 -11.20839025 4.83935889 -9 2 C-5.5647952 -0.29013653 -4.014669 -0.17842973 0 0 Z " fill="#404040" transform="translate(332,206)"/>
<path d="M0 0 C4.90536284 3.14136536 7.97597745 6.18022258 10.00390625 11.7109375 C10.45224828 14.75966328 10.37554771 17.76058159 10.31640625 20.8359375 C9.65640625 21.1659375 8.99640625 21.4959375 8.31640625 21.8359375 C8.19523437 21.09988281 8.0740625 20.36382812 7.94921875 19.60546875 C7.78164062 18.62964844 7.6140625 17.65382812 7.44140625 16.6484375 C7.19777344 15.20404297 7.19777344 15.20404297 6.94921875 13.73046875 C6.32642367 10.88175792 5.63775373 8.43705159 4.31640625 5.8359375 C3.32640625 5.5059375 2.33640625 5.1759375 1.31640625 4.8359375 C1.31640625 4.1759375 1.31640625 3.5159375 1.31640625 2.8359375 C-4.95702192 0.26222338 -11.17745249 -0.00403457 -17.68359375 1.8359375 C-17.68359375 1.1759375 -17.68359375 0.5159375 -17.68359375 -0.1640625 C-11.98347462 -2.06410221 -5.57785193 -2.41950491 0 0 Z " fill="#454545" transform="translate(100.68359375,197.1640625)"/>
<path d="M0 0 C3 1 3 1 4.6875 3.9375 C6.93508783 9.71701156 6.88992137 15.59721229 4.75 21.375 C1.81751618 25.77372572 -1.31633657 28.53491398 -6 31 C-6.66 31 -7.32 31 -8 31 C-8 30.34 -8 29.68 -8 29 C-6.9275 28.46375 -5.855 27.9275 -4.75 27.375 C-0.90086665 25.11080391 1.13371168 23.18048583 3 19 C3.85717533 11.99648791 3.3850193 6.20586871 0 0 Z " fill="#424242" transform="translate(343,202)"/>
<path d="M0 0 C0.33 0 0.66 0 1 0 C1.0825 1.299375 1.165 2.59875 1.25 3.9375 C2.2869032 12.87728708 6.37349189 19.94023272 13 26 C15.1154649 27.21010829 15.1154649 27.21010829 17 28 C17 28.66 17 29.32 17 30 C9.08179528 27.43822788 4.74339167 22.12884947 1 15 C-0.09506492 11.71480525 -0.09960608 9.26336585 -0.0625 5.8125 C-0.05347656 4.72582031 -0.04445313 3.63914063 -0.03515625 2.51953125 C-0.02355469 1.68808594 -0.01195312 0.85664063 0 0 Z " fill="#444444" transform="translate(301,211)"/>
<path d="M0 0 C0.99 0.495 0.99 0.495 2 1 C2.103125 2.299375 2.20625 3.59875 2.3125 4.9375 C3.18582732 14.24805739 8.10596713 21.00000598 15 27 C11.41504087 27 10.12894849 25.86898851 7.48828125 23.5625 C5.02785338 20.97937362 3.61810605 18.1784226 2 15 C1.63648438 14.38769531 1.27296875 13.77539062 0.8984375 13.14453125 C-0.25125066 10.40027561 -0.19556079 8.21355329 -0.125 5.25 C-0.09792969 3.77273437 -0.09792969 3.77273437 -0.0703125 2.265625 C-0.04710937 1.51796875 -0.02390625 0.7703125 0 0 Z " fill="#444444" transform="translate(373,212)"/>
<path d="M0 0 C5.61 0 11.22 0 17 0 C17 0.33 17 0.66 17 1 C12.38 1.33 7.76 1.66 3 2 C2.67 3.65 2.34 5.3 2 7 C-0.375 7.625 -0.375 7.625 -3 8 C-3.66 7.34 -4.32 6.68 -5 6 C-3.35 5.67 -1.7 5.34 0 5 C0 3.35 0 1.7 0 0 Z " fill="#262626" transform="translate(130,212)"/>
<path d="M0 0 C1.09731445 0.00676758 1.09731445 0.00676758 2.21679688 0.01367188 C3.99873419 0.02531852 5.78062863 0.04324809 7.5625 0.0625 C7.5625 0.3925 7.5625 0.7225 7.5625 1.0625 C6.32886719 1.08376953 6.32886719 1.08376953 5.0703125 1.10546875 C-2.12180714 1.41275331 -7.2934616 2.41742324 -13.51171875 6.1015625 C-14.14722656 6.41867188 -14.78273438 6.73578125 -15.4375 7.0625 C-16.0975 6.7325 -16.7575 6.4025 -17.4375 6.0625 C-16.7775 4.4125 -16.1175 2.7625 -15.4375 1.0625 C-10.23576905 0.19440561 -5.26771184 -0.06265348 0 0 Z " fill="#3C3C3C" transform="translate(328.4375,186.9375)"/>
<path d="M0 0 C2 1 2 1 2.60546875 2.78515625 C2.79753906 3.53667969 2.98960938 4.28820312 3.1875 5.0625 C4.86410201 10.51145652 8.034997 14.01327096 12 18 C7.97802227 18 6.92040205 16.7067141 4 14 C-0.08964656 9.13663653 -0.42064893 6.09940955 0 0 Z " fill="#545454" transform="translate(64,219)"/>
<path d="M0 0 C1.92392578 -0.00773438 1.92392578 -0.00773438 3.88671875 -0.015625 C7.01234783 0.22672708 8.71149683 0.59062582 11.3125 2.25 C11.3125 2.58 11.3125 2.91 11.3125 3.25 C10.28511719 3.15460938 9.25773437 3.05921875 8.19921875 2.9609375 C-0.10549731 2.26921248 -7.52265393 2.15689327 -15.6875 4.25 C-14.6875 2.25 -14.6875 2.25 -11.60546875 1.140625 C-7.72211798 0.12938737 -4.01619975 -0.01624348 0 0 Z " fill="#535353" transform="translate(402.6875,180.75)"/>
<path d="M0 0 C1 2 1 2 0.25 5.0625 C-0.1625 6.031875 -0.575 7.00125 -1 8 C-1.99 8.33 -2.98 8.66 -4 9 C-4.103125 9.70125 -4.20625 10.4025 -4.3125 11.125 C-5.09359003 14.39137647 -6.42058743 17.0471852 -8 20 C-8.66 20 -9.32 20 -10 20 C-8.56347895 15.08558588 -6.45840385 10.99761642 -3.875 6.625 C-3.50246094 5.98433594 -3.12992188 5.34367187 -2.74609375 4.68359375 C-1.83565998 3.11951523 -0.91851809 1.55934466 0 0 Z " fill="#818181" transform="translate(63,101)"/>
<path d="M0 0 C1.1456543 -0.01740234 1.1456543 -0.01740234 2.31445312 -0.03515625 C6.63915352 -0.01257296 9.35730385 0.14416228 12.5625 3.375 C11.84707031 3.21257812 11.13164063 3.05015625 10.39453125 2.8828125 C3.17788426 1.58879304 -4.23420394 2.28771003 -11.4375 3.375 C-8.70193232 -0.77778948 -4.45989785 -0.067404 0 0 Z " fill="#626262" transform="translate(91.4375,186.625)"/>
<path d="M0 0 C0.66 0 1.32 0 2 0 C1.52433594 0.84304687 1.52433594 0.84304687 1.0390625 1.703125 C-0.06874525 4.15196317 -0.38975399 6.08387855 -0.625 8.75 C-0.69976562 9.54921875 -0.77453125 10.3484375 -0.8515625 11.171875 C-0.90054688 11.77515625 -0.94953125 12.3784375 -1 13 C-1.66 13 -2.32 13 -3 13 C-4.35135135 6.73464373 -4.35135135 6.73464373 -2.625 3.125 C-1 1 -1 1 0 0 Z " fill="#494949" transform="translate(86,207)"/>
<path d="M0 0 C0.66 0.33 1.32 0.66 2 1 C1.21625 1.9075 0.4325 2.815 -0.375 3.75 C-3.93354711 8.63922194 -4.35329839 14.12177189 -5 20 C-5.33 20 -5.66 20 -6 20 C-7.03368414 8.51462062 -7.03368414 8.51462062 -3 3.25 C-2.0272438 2.14213878 -1.03631289 1.04864995 0 0 Z " fill="#3C3C3C" transform="translate(317,200)"/>
<path d="M0 0 C2.69082872 0.17635452 5.32851446 0.61835921 8 1 C8 1.33 8 1.66 8 2 C5.69 2 3.38 2 1 2 C1 5.3 1 8.6 1 12 C0.34 12 -0.32 12 -1 12 C-1.02687279 10.18757948 -1.04633715 8.37504767 -1.0625 6.5625 C-1.07410156 5.55316406 -1.08570312 4.54382813 -1.09765625 3.50390625 C-1 1 -1 1 0 0 Z " fill="#454545" transform="translate(33,200)"/>
<path d="M0 0 C0.33 0.66 0.66 1.32 1 2 C-2.3 4.64 -5.6 7.28 -9 10 C-9 7 -9 7 -7 4 C-6.34 4 -5.68 4 -5 4 C-5 3.34 -5 2.68 -5 2 C-3.35 1.34 -1.7 0.68 0 0 Z " fill="#525252" transform="translate(75,88)"/>
<path d="M0 0 C4.62 0 9.24 0 14 0 C13.34 1.32 12.68 2.64 12 4 C6.06 3.01 6.06 3.01 0 2 C0 1.34 0 0.68 0 0 Z " fill="#282828" transform="translate(85,230)"/>
<path d="M0 0 C2.91365213 3.80041582 4.13131548 5.80791607 4.0625 10.625 C4.05347656 11.44226563 4.04445313 12.25953125 4.03515625 13.1015625 C4.02355469 13.72804687 4.01195312 14.35453125 4 15 C2.13224341 12.19836511 1.27321694 10.11958197 0.3125 6.9375 C0.04050781 6.05964844 -0.23148437 5.18179688 -0.51171875 4.27734375 C-1 2 -1 2 0 0 Z " fill="#3A3A3A" transform="translate(358,197)"/>
<path d="M0 0 C-0.92493788 3.78383679 -1.39371171 5.56693694 -4.625 7.875 C-5.40875 8.24625 -6.1925 8.6175 -7 9 C-7.33 8.01 -7.66 7.02 -8 6 C-7.0479279 4.99403703 -6.08812654 3.99538437 -5.125 3 C-4.59132812 2.443125 -4.05765625 1.88625 -3.5078125 1.3125 C-2 0 -2 0 0 0 Z " fill="#313131" transform="translate(168,65)"/>
<path d="M0 0 C0.66 0 1.32 0 2 0 C1.731875 0.515625 1.46375 1.03125 1.1875 1.5625 C-1.11003752 6.27849807 -3.2093381 10.78163148 -4 16 C-4.33 16 -4.66 16 -5 16 C-5.7013076 9.40770855 -3.49602186 5.50623443 0 0 Z " fill="#4B4B4B" transform="translate(65,193)"/>
<path d="M0 0 C3.55710481 0.6097894 6.81080586 1.27611127 10 3 C11.14453125 5.578125 11.14453125 5.578125 12 8 C9.99743426 6.85865673 7.99800203 5.71181367 6 4.5625 C4.88625 3.92441406 3.7725 3.28632813 2.625 2.62890625 C1.75875 2.09136719 0.8925 1.55382812 0 1 C0 0.67 0 0.34 0 0 Z " fill="#4E4E4E" transform="translate(336,187)"/>
<path d="M0 0 C0 2.97 0 5.94 0 9 C-0.66 9 -1.32 9 -2 9 C-3.35439668 6.29120665 -3.06501451 3.99066732 -3 1 C-1 0 -1 0 0 0 Z " fill="#333333" transform="translate(125,208)"/>
<path d="M0 0 C3.99500618 1.3697164 6.80009492 3.25722422 10 6 C9.67 6.99 9.34 7.98 9 9 C6.95880212 7.38405168 4.95927063 5.7143618 3 4 C3 3.34 3 2.68 3 2 C2.01 1.67 1.02 1.34 0 1 C0 0.67 0 0.34 0 0 Z " fill="#545454" transform="translate(344,185)"/>
<path d="M0 0 C1.125 1.5625 1.125 1.5625 2 4 C1.125 7.75 1.125 7.75 0 11 C-1.32 11.33 -2.64 11.66 -4 12 C-3.525625 11.319375 -3.05125 10.63875 -2.5625 9.9375 C-0.7774364 6.58158044 -0.36846914 3.75838519 0 0 Z " fill="#484848" transform="translate(99,211)"/>
<path d="M0 0 C2.97 0.495 2.97 0.495 6 1 C6.33 1.99 6.66 2.98 7 4 C7.66 4.33 8.32 4.66 9 5 C5.12867972 4.42647107 2.91827204 2.51295648 0 0 Z " fill="#3C3C3C" transform="translate(104,184)"/>
<path d="M0 0 C1 2 1 2 0.1875 5.0625 C-1 8 -1 8 -3 9 C-2.5020163 5.26512223 -2.12508244 3.18762365 0 0 Z " fill="#5C5C5C" transform="translate(63,101)"/>
</svg>
