<?xml version="1.0" standalone="no"?>
<!DOCTYPE svg PUBLIC "-//W3C//DTD SVG 20010904//EN"
 "http://www.w3.org/TR/2001/REC-SVG-20010904/DTD/svg10.dtd">
<svg version="1.0" xmlns="http://www.w3.org/2000/svg"
 width="400.000000pt" height="400.000000pt" viewBox="0 0 400.000000 400.000000"
 preserveAspectRatio="xMidYMid meet">

<g transform="translate(0.000000,400.000000) scale(0.100000,-0.100000)"
fill="#000000" stroke="none">
<path d="M2105 3128 c-3 -7 -4 -240 -3 -518 l3 -505 73 -3 72 -3 0 -59 0 -60
-340 0 c-264 0 -342 -3 -345 -12 -2 -7 -6 -131 -7 -276 l-3 -262 103 0 102 0
0 33 c0 17 6 55 14 82 38 145 140 248 290 294 81 25 131 26 211 6 168 -44 289
-177 317 -350 6 -36 16 -65 22 -65 7 0 17 31 24 72 31 181 171 319 355 351
116 20 255 -25 345 -113 69 -65 110 -143 124 -234 l13 -76 106 0 c88 0 108 3
113 16 10 26 7 498 -4 514 -8 13 -57 15 -325 18 l-315 3 0 59 0 60 70 0 70 0
0 520 0 520 -540 0 c-423 0 -542 -3 -545 -12z m572 -206 c23 -14 173 -274 190
-329 14 -46 15 -61 5 -101 -19 -70 -59 -122 -121 -154 -90 -47 -177 -36 -255
32 -77 68 -98 168 -55 265 23 51 141 248 167 278 16 18 48 22 69 9z"/>
<path d="M2627 2738 c-110 -179 -118 -213 -67 -272 36 -40 76 -52 125 -36 48
16 75 53 75 104 0 31 -13 63 -52 134 -29 50 -56 92 -60 92 -4 0 -14 -10 -21
-22z"/>
<path d="M1895 3086 c-124 -59 -214 -158 -265 -291 -33 -86 -34 -252 -1 -345
29 -82 97 -179 164 -232 55 -44 171 -102 190 -95 9 3 12 133 12 500 0 439 -2
497 -15 497 -9 0 -47 -15 -85 -34z"/>
<path d="M3300 2620 c0 -441 2 -500 15 -500 35 0 154 69 212 123 111 104 163
223 163 372 0 153 -49 272 -154 376 -58 58 -180 129 -220 129 -15 0 -16 -43
-16 -500z"/>
<path d="M723 2845 c-184 -50 -342 -202 -400 -385 -7 -25 -17 -89 -20 -142
l-6 -98 572 0 571 0 0 314 c0 277 -2 315 -16 320 -9 3 -158 6 -332 5 -239 0
-330 -4 -369 -14z"/>
<path d="M307 2104 c-8 -9 -10 -636 -1 -658 5 -12 21 -16 74 -16 l68 0 7 57
c30 245 275 418 505 358 183 -47 306 -183 326 -361 l7 -55 71 3 71 3 3 333 2
332 -542 0 c-299 0 -552 3 -563 6 -11 3 -24 2 -28 -2z m903 -134 c23 -23 25
-47 5 -73 -11 -15 -27 -19 -75 -19 -68 0 -90 12 -90 51 0 48 18 59 93 60 34 1
52 -4 67 -19z"/>
<path d="M805 1736 c-101 -25 -170 -81 -213 -175 -34 -73 -35 -173 -4 -242
113 -246 441 -252 559 -11 24 48 28 69 27 133 -1 64 -6 86 -29 130 -47 91
-122 149 -210 164 -22 3 -49 8 -60 9 -11 2 -42 -2 -70 -8z"/>
<path d="M2061 1720 c-72 -33 -127 -85 -158 -148 -24 -49 -28 -68 -27 -138 1
-71 5 -88 33 -141 79 -148 256 -203 408 -127 66 34 108 79 140 153 21 47 24
68 21 131 -5 121 -63 211 -167 262 -66 33 -189 36 -250 8z"/>
<path d="M2960 1731 c-48 -16 -86 -40 -127 -80 -163 -163 -89 -442 134 -507
101 -29 206 -6 282 62 127 114 144 285 42 420 -55 73 -124 107 -226 111 -44 1
-91 -1 -105 -6z"/>
<path d="M507 1040 c-141 -5 -150 -6 -168 -29 -28 -34 -25 -96 6 -126 l24 -25
1606 0 1606 0 24 26 c46 49 25 136 -36 149 -34 8 -2848 12 -3062 5z"/>
</g>
</svg>
