<?xml version="1.0" standalone="no"?>
<!DOCTYPE svg PUBLIC "-//W3C//DTD SVG 20010904//EN"
 "http://www.w3.org/TR/2001/REC-SVG-20010904/DTD/svg10.dtd">
<svg version="1.0" xmlns="http://www.w3.org/2000/svg"
 width="500.000000pt" height="500.000000pt" viewBox="0 0 500.000000 500.000000"
 preserveAspectRatio="xMidYMid meet">

<g transform="translate(0.000000,500.000000) scale(0.100000,-0.100000)"
fill="#000000" stroke="none">
<path d="M2643 3923 c-10 -4 -13 -143 -13 -648 0 -739 -12 -662 104 -650 56 6
65 5 74 -11 10 -21 9 -115 -2 -133 -5 -8 -126 -11 -432 -11 l-424 0 0 -299 c0
-164 -3 -319 -6 -345 l-7 -46 132 0 131 0 0 49 c0 162 129 354 291 433 335
164 713 -49 755 -425 5 -45 10 -57 22 -55 11 2 20 27 30 88 8 47 25 109 39
137 108 229 348 352 586 299 226 -51 392 -236 414 -463 l6 -63 128 0 c121 0
129 1 143 22 23 32 24 613 2 644 -14 18 -33 19 -408 24 l-393 5 0 75 0 75 45
-3 c25 -2 64 0 87 3 l42 6 -2 647 -2 647 -665 2 c-366 1 -671 -1 -677 -4z
m711 -280 c9 -10 37 -49 61 -88 135 -214 185 -321 185 -391 0 -89 -78 -207
-165 -249 -50 -24 -152 -31 -209 -15 -64 18 -136 77 -171 140 -25 46 -30 66
-30 126 0 61 5 80 37 145 45 90 193 330 211 341 21 13 63 9 81 -9z"/>
<path d="M3286 3426 c-9 -14 -16 -28 -16 -30 0 -3 -16 -31 -36 -62 -55 -86
-77 -156 -64 -204 36 -134 242 -134 280 1 13 44 -2 95 -52 183 -22 39 -48 84
-57 100 -22 39 -35 42 -55 12z"/>
<path d="M2362 3854 c-71 -34 -109 -61 -161 -112 -117 -117 -163 -207 -188
-372 -29 -191 16 -359 134 -505 62 -76 127 -126 228 -176 134 -66 120 -133
120 588 0 723 17 650 -133 577z"/>
<path d="M4120 3280 c0 -697 -6 -647 77 -615 116 45 239 142 312 249 218 317
96 773 -253 941 -52 25 -104 45 -115 45 l-21 0 0 -620z"/>
<path d="M1195 3570 c-270 -6 -282 -7 -345 -32 -215 -85 -359 -231 -436 -442
-24 -69 -48 -221 -42 -281 l3 -40 713 -3 712 -2 0 395 0 395 -26 10 c-26 10
-104 10 -579 0z"/>
<path d="M377 2623 c-4 -3 -7 -185 -7 -404 0 -474 -8 -442 115 -437 l80 3 6
70 c28 296 326 515 621 454 95 -20 194 -75 267 -148 93 -92 136 -186 158 -338
l6 -43 71 0 c42 0 79 5 89 13 15 11 17 50 17 412 0 220 1 406 0 413 0 9 -149
12 -708 12 -390 0 -712 -3 -715 -7z m1124 -149 c9 -3 23 -19 30 -36 17 -42 -3
-79 -51 -90 -50 -12 -142 1 -157 20 -16 22 -16 64 0 86 22 31 106 40 178 20z"/>
<path d="M973 2161 c-101 -35 -170 -95 -225 -196 -32 -57 -33 -65 -33 -170 0
-104 2 -113 32 -170 127 -243 439 -288 622 -90 132 143 136 367 10 508 -59 67
-100 93 -182 118 -76 23 -156 23 -224 0z"/>
<path d="M2620 2166 c-25 -7 -61 -21 -80 -31 -55 -28 -139 -120 -167 -183 -23
-50 -27 -70 -26 -157 0 -80 4 -110 21 -148 68 -153 224 -248 387 -235 126 11
255 100 313 218 22 46 28 71 30 150 4 110 -14 172 -76 253 -89 116 -259 172
-402 133z"/>
<path d="M3705 2163 c-69 -21 -153 -80 -197 -139 -54 -70 -73 -132 -72 -237 1
-82 4 -94 40 -165 87 -171 278 -251 456 -191 109 37 188 110 240 226 19 39 23
65 22 143 0 83 -4 102 -28 152 -33 67 -92 138 -142 168 -88 55 -220 73 -319
43z"/>
<path d="M575 1300 c-60 -3 -117 -9 -126 -13 -26 -13 -49 -63 -49 -107 0 -34
6 -48 34 -76 l34 -34 2002 0 2002 0 34 34 c29 29 34 41 34 81 0 40 -5 52 -34
81 l-34 34 -139 1 c-581 4 -3671 3 -3758 -1z"/>
</g>
</svg>
