<?xml version="1.0" standalone="no"?>
<!DOCTYPE svg PUBLIC "-//W3C//DTD SVG 20010904//EN"
 "http://www.w3.org/TR/2001/REC-SVG-20010904/DTD/svg10.dtd">
<svg version="1.0" xmlns="http://www.w3.org/2000/svg"
 width="200.000000pt" height="200.000000pt" viewBox="0 0 200.000000 200.000000"
 preserveAspectRatio="xMidYMid meet">

<g transform="translate(0.000000,200.000000) scale(0.100000,-0.100000)"
fill="#000000" stroke="none">
<path d="M920 1957 c-36 -18 -108 -52 -160 -76 -52 -25 -210 -98 -350 -164
-140 -65 -265 -123 -277 -128 -13 -5 -23 -15 -23 -22 0 -8 170 -85 445 -201
l445 -187 157 67 c87 36 244 102 348 146 105 44 228 96 275 115 47 19 91 41
99 48 18 18 3 27 -199 121 -265 122 -276 128 -469 218 -101 47 -193 88 -205
91 -11 2 -50 -10 -86 -28z"/>
<path d="M0 929 c0 -320 4 -527 10 -539 12 -23 891 -376 914 -367 14 6 16 57
16 521 l0 516 -22 14 c-36 23 -882 376 -901 376 -16 0 -17 -38 -17 -521z"/>
<path d="M1880 1415 c-41 -18 -131 -56 -200 -85 -69 -29 -154 -65 -190 -80
-36 -15 -121 -51 -190 -80 -69 -29 -151 -63 -182 -77 l-58 -26 0 -519 c0 -452
2 -519 15 -524 19 -8 896 342 913 363 9 13 12 137 12 540 l0 523 -22 -1 c-13
0 -57 -15 -98 -34z"/>
</g>
</svg>
