<?xml version="1.0" standalone="no"?>
<!DOCTYPE svg PUBLIC "-//W3C//DTD SVG 20010904//EN"
 "http://www.w3.org/TR/2001/REC-SVG-20010904/DTD/svg10.dtd">
<svg version="1.0" xmlns="http://www.w3.org/2000/svg"
 width="400.000000pt" height="239.000000pt" viewBox="0 0 400.000000 239.000000"
 preserveAspectRatio="xMidYMid meet">

<g transform="translate(0.000000,239.000000) scale(0.100000,-0.100000)"
fill="#000000" stroke="none">
<path d="M1077 1813 c-3 -5 -8 -190 -11 -413 -4 -223 -11 -408 -14 -412 -7 -7
-553 -28 -720 -28 -70 0 -82 17 -23 33 44 11 33 20 -14 11 -24 -4 -39 -13 -42
-25 -3 -10 -11 -20 -19 -23 -59 -23 24 -26 650 -26 l664 0 7 37 c16 87 91 179
180 223 35 17 72 25 125 28 103 5 175 -22 246 -93 l53 -52 43 44 c24 24 70 57
102 73 51 26 70 30 135 29 94 0 146 -20 218 -83 56 -50 88 -101 101 -163 l8
-38 226 -3 c185 -2 228 -5 238 -17 7 -8 21 -15 31 -15 16 0 19 8 19 46 0 25
-6 51 -13 59 -14 13 -27 340 -27 672 l0 143 -40 0 c-33 0 -40 -3 -40 -20 0
-20 -7 -20 -301 -20 -292 0 -301 1 -306 20 -4 16 -14 20 -43 20 -29 0 -39 -4
-43 -20 -5 -19 -14 -20 -310 -20 -296 0 -305 1 -310 20 -4 15 -14 20 -40 20
-26 0 -36 -5 -40 -20 -5 -19 -14 -20 -307 -20 -293 0 -302 1 -307 20 -4 15
-14 20 -39 20 -18 0 -35 -3 -37 -7z m689 -138 c4 -8 1 -22 -6 -30 -19 -22
-581 -22 -600 0 -7 8 -10 22 -6 30 8 23 604 23 612 0z m702 -12 l-3 -28 -305
0 -305 0 -3 28 -3 27 311 0 311 0 -3 -27z m690 0 l-3 -28 -300 0 -300 0 -3 28
-3 27 306 0 306 0 -3 -27z m-1393 -143 l0 -25 -303 -3 c-263 -2 -303 0 -308
13 -4 8 -4 22 0 30 5 13 45 15 308 13 l303 -3 0 -25z m703 -2 l3 -28 -310 0
-311 0 0 30 0 30 308 -2 307 -3 3 -27z m690 0 l3 -28 -301 0 c-258 0 -301 2
-306 15 -4 8 -4 22 0 30 5 13 45 15 303 13 l298 -3 3 -27z m-1395 -127 c5 -5
7 -17 4 -25 -6 -14 -43 -16 -307 -16 -259 0 -301 2 -306 15 -15 38 5 40 307
38 168 -2 297 -7 302 -12z m705 -14 l-3 -22 -307 -3 -308 -2 0 24 c0 13 4 26
10 28 5 2 145 2 311 0 l300 -3 -3 -22z m690 0 l-3 -22 -300 0 c-285 0 -300 1
-303 19 -2 10 1 21 6 25 6 3 144 5 307 3 l296 -3 -3 -22z"/>
<path d="M1821 1190 c-67 -14 -127 -48 -167 -93 -39 -45 -74 -116 -74 -149 0
-33 33 -17 42 21 28 105 141 191 254 191 103 0 214 -79 249 -178 24 -67 47
-70 65 -7 15 55 78 128 134 157 59 31 175 31 232 1 54 -29 119 -103 137 -156
18 -54 53 -67 42 -15 -23 106 -111 192 -228 222 -124 32 -256 -27 -334 -150
-12 -18 -13 -18 -30 6 -78 114 -205 173 -322 150z"/>
<path d="M1772 1089 c-161 -81 -160 -313 1 -394 111 -55 234 -19 295 85 22 36
27 58 27 110 0 81 -30 140 -93 184 -37 26 -54 31 -115 34 -58 2 -80 -1 -115
-19z m168 -86 c60 -41 78 -98 51 -159 -24 -53 -60 -77 -114 -77 -53 0 -83 15
-107 56 -38 61 -19 144 39 180 34 22 100 21 131 0z"/>
<path d="M1838 938 c-27 -22 -30 -53 -7 -81 38 -49 99 -24 99 41 0 46 -54 69
-92 40z"/>
<path d="M2345 1094 c-43 -22 -84 -63 -106 -106 -26 -50 -26 -146 0 -197 83
-162 319 -161 402 1 27 53 27 142 0 195 -22 44 -79 99 -118 114 -39 14 -145
11 -178 -7z m163 -94 c65 -40 77 -128 26 -189 -52 -62 -136 -62 -188 0 -71 84
-14 209 94 209 19 0 50 -9 68 -20z"/>
<path d="M2397 932 c-10 -10 -17 -28 -17 -40 0 -27 33 -62 58 -62 31 0 62 29
62 59 0 54 -68 82 -103 43z"/>
</g>
</svg>
