<?xml version="1.0" encoding="UTF-8"?>
<svg version="1.1" xmlns="http://www.w3.org/2000/svg" width="589" height="424">
<path d="M0 0 C0 44.88 0 89.76 0 136 C-1.98 136.66 -3.96 137.32 -6 138 C-6.33 141.3 -6.66 144.6 -7 148 C-3.54159856 149.72920072 0.37288191 149.64582954 4.1875 150 C5.59394775 150.13353882 5.59394775 150.13353882 7.02880859 150.26977539 C13.7261408 150.87352395 20.40565728 151.211822 27.125 151.4375 C36.70665598 151.7707679 46.14584546 152.69927035 55.66162109 153.85009766 C62.55396667 154.66886399 69.40937063 155.23719873 76.33911133 155.61865234 C89.22180002 156.35080143 100.97248109 158.51685847 113.32519531 162.20654297 C116.86837297 163.25759512 120.43114974 164.23078323 123.99584961 165.20581055 C127.33518775 166.12103161 130.66762449 167.05977919 134 168 C133.67 169.65 133.34 171.3 133 173 C114.18102692 172.22506405 95.45776543 171.23943466 76.75 169 C36.78097115 163.90672507 36.78097115 163.90672507 -2.578125 170.44921875 C-9.40725308 172.00229465 -13.7481622 170.60648569 -19.5625 167.25 C-20.19607422 166.90195312 -20.82964844 166.55390625 -21.48242188 166.1953125 C-26.09416862 163.63059237 -30.79223187 161.00522927 -34.71118164 157.44580078 C-40.6201471 152.29470938 -45.85130751 152.10670169 -53.5 152.125 C-54.60859375 152.104375 -55.7171875 152.08375 -56.859375 152.0625 C-59.57367553 152.01570171 -62.28538133 151.99553097 -65 152 C-64.83918945 152.76747559 -64.67837891 153.53495117 -64.51269531 154.32568359 C-63.97382387 157.13653968 -63.79727777 159.76469505 -63.75 162.625 C-63.72421875 163.56601562 -63.6984375 164.50703125 -63.671875 165.4765625 C-64 168 -64 168 -65.203125 169.8359375 C-67 171 -67 171 -69.5 170.921875 C-70.7375 170.96054687 -70.7375 170.96054687 -72 171 C-73.73210407 172.82053676 -73.73210407 172.82053676 -75 175.25 C-79.07455999 181.81456888 -82.96222853 184.45715963 -90.3828125 186.4609375 C-97.32302771 187.89041466 -103.76903583 187.57068535 -110 184 C-118.51793332 177.76341491 -118.51793332 177.76341491 -119.75390625 173.2421875 C-119.83511719 172.50226563 -119.91632813 171.76234375 -120 171 C-120.66 171 -121.32 171 -122 171 C-122.66 168.03 -123.32 165.06 -124 162 C-125.02359619 161.91435791 -126.04719238 161.82871582 -127.10180664 161.74047852 C-130.92440969 161.42010457 -134.74678161 161.09704109 -138.5690918 160.77319336 C-140.21877018 160.63379529 -141.86850915 160.49511222 -143.51831055 160.35717773 C-145.89909152 160.15800035 -148.27963777 159.95619398 -150.66015625 159.75390625 C-151.38960953 159.6934462 -152.11906281 159.63298615 -152.87062073 159.57069397 C-153.57081833 159.51070724 -154.27101593 159.45072052 -154.99243164 159.38891602 C-155.5986586 159.33784195 -156.20488556 159.28676788 -156.82948303 159.23414612 C-158.65355552 159.03737295 -160.46973586 158.76928573 -162.28219604 158.48477173 C-166.06322642 157.99175578 -169.6805824 157.86607938 -173.49243164 157.85473633 C-174.20558029 157.85137772 -174.91872894 157.8480191 -175.65348816 157.84455872 C-177.98906234 157.83513132 -180.32456428 157.83311016 -182.66015625 157.83203125 C-184.29487639 157.82881431 -185.92959625 157.82544992 -187.5643158 157.82194519 C-190.98111641 157.81597547 -194.39789181 157.8141032 -197.81469727 157.81469727 C-202.18476196 157.81479908 -206.55466489 157.80111761 -210.9246912 157.78392506 C-214.29708088 157.77279136 -217.66943151 157.77077844 -221.04183769 157.77130699 C-222.65292356 157.77013007 -224.26401054 157.76572451 -225.8750782 157.75797462 C-228.12915464 157.74814148 -230.38288041 157.75106511 -232.63696289 157.75708008 C-233.91712784 157.75565506 -235.19729279 157.75423004 -236.51625061 157.75276184 C-240.94177432 158.06683677 -244.48374402 158.77947804 -247.98516846 161.59797668 C-250.78333163 163.5450824 -252.8498261 163.39849826 -256.23730469 163.43237305 C-257.49830994 163.45216721 -258.75931519 163.47196136 -260.05853271 163.49235535 C-261.42964529 163.49912459 -262.80075949 163.50557152 -264.171875 163.51171875 C-265.57864957 163.52856901 -266.98540911 163.54671973 -268.39215088 163.56611633 C-272.08774114 163.61358539 -275.78327048 163.64341441 -279.47906494 163.66955566 C-283.25309276 163.69937705 -287.02691074 163.74590189 -290.80078125 163.79101562 C-298.20041664 163.87701337 -305.60006735 163.94437397 -313 164 C-313.18828369 164.91906128 -313.18828369 164.91906128 -313.38037109 165.85668945 C-313.63681396 167.06651489 -313.63681396 167.06651489 -313.8984375 168.30078125 C-314.06520996 169.09911377 -314.23198242 169.89744629 -314.40380859 170.7199707 C-316.16102643 177.44014161 -321.23069596 181.61000748 -327 185 C-334.63377505 188.10676892 -342.31841247 187.70999562 -349.9453125 184.92578125 C-352.72090081 183.67518348 -354.85119152 182.14880848 -357 180 C-357 179.34 -357 178.68 -357 178 C-357.66 178 -358.32 178 -359 178 C-361.81532819 172.95859836 -363.5188509 168.77378925 -364 163 C-364.9178125 162.97421875 -365.835625 162.9484375 -366.78125 162.921875 C-380.98416094 162.26543794 -380.98416094 162.26543794 -386 158 C-390.20023099 151.96216795 -389.91194271 144.11672938 -389 137 C-388.51660156 136.525625 -388.03320312 136.05125 -387.53515625 135.5625 C-384.71216294 132.68922437 -385.18714005 128.03152184 -384.91601562 124.15625 C-384.41909808 118.81564123 -383.11525929 115.41193889 -380 111 C-371.37335651 104.0767065 -359.14064487 99.41644774 -348.6640625 95.87109375 C-340.70518965 93.09878714 -336.84910613 89.0460835 -331.9609375 82.44921875 C-331.31382812 81.64097656 -330.66671875 80.83273438 -330 80 C-329.34 80 -328.68 80 -328 80 C-327.773125 79.278125 -327.54625 78.55625 -327.3125 77.8125 C-325.72911418 74.4195304 -323.69229923 72.59587017 -321 70 C-314.06519632 63.23050337 -314.06519632 63.23050337 -307.625 56 C-305.25462398 53.29099884 -304.19346637 52.28231854 -301 51 C-300.01 51 -299.02 51 -298 51 C-298.05542969 50.27683594 -298.11085938 49.55367187 -298.16796875 48.80859375 C-297.75542452 41.91047049 -291.712468 34.83330051 -287 30 C-285.34416775 29.30686092 -283.67889021 28.63525576 -282 28 C-281.76925781 27.42507812 -281.53851563 26.85015625 -281.30078125 26.2578125 C-279.29905798 22.78334989 -276.20083145 21.13526144 -272.875 19 C-272.235625 18.57460937 -271.59625 18.14921875 -270.9375 17.7109375 C-258.95953791 9.86994224 -258.95953791 9.86994224 -252 9 C-252 6.36 -252 3.72 -252 1 C-243.0861964 -0.2998477 -234.17491651 -0.12572089 -225.19091797 -0.09765625 C-223.38409974 -0.09573435 -221.57728098 -0.09427184 -219.77046204 -0.0932312 C-215.88448977 -0.09007668 -211.9985394 -0.08381584 -208.11257553 -0.07516479 C-201.91563845 -0.06152812 -195.71870844 -0.05572124 -189.52175903 -0.05102539 C-175.19835641 -0.03900671 -160.87497187 -0.0172219 -146.55158234 0.00520325 C-133.51486361 0.0255851 -120.47815225 0.04365134 -107.44142067 0.05341816 C-102.31648489 0.05749846 -97.19157137 0.063603 -92.06664658 0.07516479 C-86.28645484 0.08810314 -80.50628028 0.0957502 -74.72607422 0.09765625 C-73.33851287 0.09820291 -73.33851287 0.09820291 -71.92291999 0.0987606 C-54.54460588 0.094448 -37.17785692 -0.25275024 -19.80659294 -0.7353363 C-18.85005341 -0.75995123 -17.89351388 -0.78456615 -16.90798831 -0.80992699 C-15.12411791 -0.85597109 -13.34035537 -0.90650777 -11.5567677 -0.9624424 C-10.36602741 -0.99227998 -10.36602741 -0.99227998 -9.15123177 -1.02272034 C-8.12382698 -1.05241582 -8.12382698 -1.05241582 -7.07566655 -1.08271122 C-5 -1 -5 -1 0 0 Z M-252 11 C-251 13 -251 13 -251 13 Z M-259 53 C-259.21081851 56.89459074 -259.21081851 56.89459074 -258 60 C-257.34 60 -256.68 60 -256 60 C-256 58.02 -256 56.04 -256 54 C-256.99 53.67 -257.98 53.34 -259 53 Z M-269 56 C-269 59.16227399 -268.82985212 62.11640488 -268.5 65.25 C-268.4071875 66.14203125 -268.314375 67.0340625 -268.21875 67.953125 C-268.1465625 68.62859375 -268.074375 69.3040625 -268 70 C-267.34 70 -266.68 70 -266 70 C-264.6728739 66.0186217 -264.93084087 62.14954773 -265 58 C-266.32 57.34 -267.64 56.68 -269 56 Z M-291.625 59.8125 C-292.67312866 59.91751831 -292.67312866 59.91751831 -293.74243164 60.0246582 C-295.95614605 60.2654319 -295.95614605 60.2654319 -299 61 C-301.11819238 64.17728857 -301.31330705 65.35378646 -301.5625 69.04296875 C-301.63726562 70.03490234 -301.71203125 71.02683594 -301.7890625 72.04882812 C-301.85867188 73.08458984 -301.92828125 74.12035156 -302 75.1875 C-302.46805413 82.02195706 -303.10381663 88.40286201 -305 95 C-300.8587477 97.07062615 -295.45977787 95.53011536 -291 95 C-290.3507959 94.9282959 -289.7015918 94.8565918 -289.03271484 94.78271484 C-281.16169836 94.00638853 -281.16169836 94.00638853 -274.23046875 90.62109375 C-269.51423476 82.72537617 -269.67797729 68.93613015 -270 60 C-271.68826323 58.31173677 -273.7471427 58.82808114 -276.0625 58.8125 C-281.29041877 58.86282894 -286.43386686 59.23179299 -291.625 59.8125 Z M-252 62 C-252 69.26 -252 76.52 -252 84 C-251.67 84 -251.34 84 -251 84 C-251 76.74 -251 69.48 -251 62 C-251.33 62 -251.66 62 -252 62 Z M-308.19921875 68.1640625 C-309.12347656 69.09992188 -310.04773438 70.03578125 -311 71 C-311.95519531 71.85335937 -312.91039062 72.70671875 -313.89453125 73.5859375 C-320.12741797 79.31261286 -320.12741797 79.31261286 -322.7109375 87.1171875 C-322.80159556 90.77874191 -322.49093037 94.3700906 -322 98 C-322.66 97.67 -323.32 97.34 -324 97 C-324.59355614 94.35139573 -324.74209269 91.70802678 -325 89 C-326.32 89 -327.64 89 -329 89 C-331.28882919 91.94278039 -332.82039068 94.46117205 -334 98 C-335.485 98.495 -335.485 98.495 -337 99 C-336.67 99.99 -336.34 100.98 -336 102 C-334.989375 101.855625 -333.97875 101.71125 -332.9375 101.5625 C-322 100 -322 100 -318.625 99.5625 C-314.36558046 98.90155559 -310.19563748 97.97993347 -306 97 C-305.23785964 86.64305688 -304.86569208 76.3864793 -305 66 C-306.39543748 65.88310223 -306.39543748 65.88310223 -308.19921875 68.1640625 Z M-263 88 C-263 92.62 -263 97.24 -263 102 C-262.67 102 -262.34 102 -262 102 C-262 97.38 -262 92.76 -262 88 C-262.33 88 -262.66 88 -263 88 Z M-276 101 C-276.99 101.66 -277.98 102.32 -279 103 C-276.69 103 -274.38 103 -272 103 C-273.32 102.34 -274.64 101.68 -276 101 Z M-279 106 C-279 106.33 -279 106.66 -279 107 C-276.69 107 -274.38 107 -272 107 C-272 106.67 -272 106.34 -272 106 C-274.31 106 -276.62 106 -279 106 Z M-380 116 C-380.82721617 119.66570303 -380.98726676 123.25006186 -381 127 C-375.57945025 125.83086182 -372.47635141 124.60105334 -369 120 C-368.11472891 116.31558496 -368.11472891 116.31558496 -368 113 C-372.83807563 112.65442317 -376.16916256 112.8818765 -380 116 Z M-328 124 C-327 126 -327 126 -327 126 Z M-352 130 C-352.33 130.66 -352.66 131.32 -353 132 C-348.76508841 132.42116585 -348.76508841 132.42116585 -345.1875 130.5 C-341.73170417 128.13031143 -338.06909954 128.76524426 -334 129 C-334.33 128.34 -334.66 127.68 -335 127 C-343.93981103 126.48718781 -343.93981103 126.48718781 -352 130 Z M-312 132 C-312 136.17163781 -311.41688219 137.72643022 -308.66650391 140.80957031 C-305.43753426 143.11611236 -301.94547092 142.35380266 -298.1875 141.875 C-297.39923828 141.80023438 -296.61097656 141.72546875 -295.79882812 141.6484375 C-293.86291851 141.46071293 -291.93084197 141.23417047 -290 141 C-290.33 140.34 -290.66 139.68 -291 139 C-293.58605332 138.5316735 -293.58605332 138.5316735 -296.5625 138.375 C-297.57441406 138.30023438 -298.58632813 138.22546875 -299.62890625 138.1484375 C-300.80259766 138.07496094 -300.80259766 138.07496094 -302 138 C-299.03 137.01 -296.06 136.02 -293 135 C-296.02093215 131.97906785 -299.56372072 132.53323166 -303.625 132.375 C-304.42679688 132.33632812 -305.22859375 132.29765625 -306.0546875 132.2578125 C-308.03607556 132.16346069 -310.01800645 132.08063785 -312 132 Z M-356.71875 140.95703125 C-358.28021109 143.02494384 -358.28021109 143.02494384 -360 146 C-359.67 146.66 -359.34 147.32 -359 148 C-358.62230469 147.46890625 -358.24460937 146.9378125 -357.85546875 146.390625 C-352.69345865 139.76584389 -347.03372682 136.79632943 -338.69140625 135.6953125 C-334.65533502 135.55797926 -331.65201288 136.42075119 -328 138 C-325.29113059 138.16798262 -325.29113059 138.16798262 -323 138 C-326.1413244 134.54454316 -328.63654304 133.16682297 -333.3203125 132.59375 C-342.84435119 132.35907143 -350.12133948 133.44497972 -356.71875 140.95703125 Z M-350.75 142.25 C-351.86375 143.11625 -351.86375 143.11625 -353 144 C-353 144.99 -353 145.98 -353 147 C-350.03 146.34 -347.06 145.68 -344 145 C-344 144.01 -344 143.02 -344 142 C-346.91258137 140.81339277 -347.81399691 140.91545314 -350.75 142.25 Z M-361 148 C-360 150 -360 150 -360 150 Z M-362 150 C-361 152 -361 152 -361 152 Z " fill="#040404" transform="translate(427,123)"/>
<path d="M0 0 C0 7.59 0 15.18 0 23 C-0.33 23 -0.66 23 -1 23 C-1 16.07 -1 9.14 -1 2 C-82.84 2 -164.68 2 -249 2 C-249 44.57 -249 87.14 -249 131 C-251.52475462 132.26237731 -253.31200466 132.09856404 -256.125 132.0625 C-257.73375 132.041875 -259.3425 132.02125 -261 132 C-261 135.3 -261 138.6 -261 142 C-263.3520006 143.1760003 -264.73734401 143.12084541 -267.35791016 143.11352539 C-268.70908432 143.11341209 -268.70908432 143.11341209 -270.08755493 143.11329651 C-271.06155243 143.10813522 -272.03554993 143.10297394 -273.0390625 143.09765625 C-274.03505463 143.0962413 -275.03104675 143.09482635 -276.05722046 143.09336853 C-279.24651053 143.08775936 -282.43573106 143.0752053 -285.625 143.0625 C-287.78385315 143.05748618 -289.94270741 143.05292307 -292.1015625 143.04882812 C-297.4010655 143.03778695 -302.70052778 143.02103988 -308 143 C-307.02535017 144.19484697 -307.02535017 144.19484697 -305.22279358 144.11352539 C-304.44939133 144.10828857 -303.67598907 144.10305176 -302.87915039 144.09765625 C-302.00476822 144.09435303 -301.13038605 144.0910498 -300.22950745 144.08764648 C-299.27849655 144.07934814 -298.32748566 144.0710498 -297.34765625 144.0625 C-296.37718857 144.05871338 -295.40672089 144.05492676 -294.40684509 144.05102539 C-290.23610411 144.03460045 -286.06545915 144.00649315 -281.89477539 143.97949219 C-278.85824023 143.96147543 -275.82172075 143.94933656 -272.78515625 143.9375 C-271.83616959 143.92920166 -270.88718292 143.92090332 -269.90943909 143.91235352 C-269.03190475 143.90905029 -268.15437042 143.90574707 -267.25024414 143.90234375 C-266.4760463 143.89710693 -265.70184845 143.89187012 -264.90419006 143.88647461 C-263 144 -263 144 -261 145 C-261 150.61 -261 156.22 -261 162 C-267.96003966 162.02464201 -274.92005416 162.04283222 -281.88012695 162.05493164 C-284.24992312 162.05997341 -286.61971615 162.06680665 -288.98950195 162.07543945 C-292.38754039 162.0875119 -295.78553785 162.09322971 -299.18359375 162.09765625 C-300.25024765 162.10281754 -301.31690155 162.10797882 -302.4158783 162.11329651 C-303.39681961 162.11337204 -304.37776093 162.11344757 -305.38842773 162.11352539 C-306.69081642 162.11685631 -306.69081642 162.11685631 -308.01951599 162.12025452 C-310 162 -310 162 -311 161 C-311.04063832 159.33382885 -311.042721 157.66611905 -311 156 C-310.67 157.32 -310.34 158.64 -310 160 C-308.68 159.67 -307.36 159.34 -306 159 C-306 157.02 -306 155.04 -306 153 C-305.01 153 -304.02 153 -303 153 C-303 155.31 -303 157.62 -303 160 C-290.13 160 -277.26 160 -264 160 C-264 155.05 -264 150.1 -264 145 C-277.53 145.33 -291.06 145.66 -305 146 C-304.67 147.98 -304.34 149.96 -304 152 C-304.99 152 -305.98 152 -307 152 C-307.34933594 151.08476562 -307.69867188 150.16953125 -308.05859375 149.2265625 C-308.51363281 148.03804687 -308.96867187 146.84953125 -309.4375 145.625 C-309.88996094 144.44164062 -310.34242188 143.25828125 -310.80859375 142.0390625 C-311.89271912 139.13963807 -311.89271912 139.13963807 -313 137 C-313.66 137 -314.32 137 -315 137 C-315.495 139.97 -315.495 139.97 -316 143 C-316.76183594 142.40251953 -316.76183594 142.40251953 -317.5390625 141.79296875 C-318.22742188 141.26316406 -318.91578125 140.73335937 -319.625 140.1875 C-320.29789062 139.66542969 -320.97078125 139.14335937 -321.6640625 138.60546875 C-329.23084073 133.4048904 -335.97559532 132.83586111 -345 134 C-349.59567715 135.77286422 -353.75678453 137.82918414 -356.26171875 142.203125 C-356.50535156 142.79609375 -356.74898437 143.3890625 -357 144 C-356.59910156 143.60167969 -356.19820312 143.20335937 -355.78515625 142.79296875 C-350.08979246 137.48504467 -344.76296835 135.41810759 -337.0625 134.5625 C-328.87256574 134.95405064 -322.59420287 138.67087427 -317.1796875 144.609375 C-316.79039062 145.06828125 -316.40109375 145.5271875 -316 146 C-315.34 145.67 -314.68 145.34 -314 145 C-311.27038751 149.58574899 -310.84200194 151.84164502 -312 157 C-311.938125 158.051875 -311.87625 159.10375 -311.8125 160.1875 C-312.20722161 168.21350616 -315.26225811 175.39887102 -321 181 C-326.95523135 185.76418508 -333.31799511 187.47843026 -340.921875 187.25390625 C-347.07294226 186.50236608 -352.57168212 184.42831788 -357 180 C-357 179.34 -357 178.68 -357 178 C-357.66 178 -358.32 178 -359 178 C-361.81532819 172.95859836 -363.5188509 168.77378925 -364 163 C-364.9178125 162.97421875 -365.835625 162.9484375 -366.78125 162.921875 C-380.98416094 162.26543794 -380.98416094 162.26543794 -386 158 C-390.20023099 151.96216795 -389.91194271 144.11672938 -389 137 C-388.51660156 136.525625 -388.03320312 136.05125 -387.53515625 135.5625 C-384.71216294 132.68922437 -385.18714005 128.03152184 -384.91601562 124.15625 C-384.41909808 118.81564123 -383.11525929 115.41193889 -380 111 C-371.37335651 104.0767065 -359.14064487 99.41644774 -348.6640625 95.87109375 C-340.70518965 93.09878714 -336.84910613 89.0460835 -331.9609375 82.44921875 C-331.31382812 81.64097656 -330.66671875 80.83273438 -330 80 C-329.34 80 -328.68 80 -328 80 C-327.773125 79.278125 -327.54625 78.55625 -327.3125 77.8125 C-325.72911418 74.4195304 -323.69229923 72.59587017 -321 70 C-314.06519632 63.23050337 -314.06519632 63.23050337 -307.625 56 C-305.25462398 53.29099884 -304.19346637 52.28231854 -301 51 C-300.01 51 -299.02 51 -298 51 C-298.05542969 50.27683594 -298.11085938 49.55367187 -298.16796875 48.80859375 C-297.75542452 41.91047049 -291.712468 34.83330051 -287 30 C-285.34416775 29.30686092 -283.67889021 28.63525576 -282 28 C-281.76925781 27.42507812 -281.53851563 26.85015625 -281.30078125 26.2578125 C-279.29905798 22.78334989 -276.20083145 21.13526144 -272.875 19 C-272.235625 18.57460937 -271.59625 18.14921875 -270.9375 17.7109375 C-258.95953791 9.86994224 -258.95953791 9.86994224 -252 9 C-252 6.36 -252 3.72 -252 1 C-243.0861964 -0.2998477 -234.17491651 -0.12572089 -225.19091797 -0.09765625 C-223.38409974 -0.09573435 -221.57728098 -0.09427184 -219.77046204 -0.0932312 C-215.88448977 -0.09007668 -211.9985394 -0.08381584 -208.11257553 -0.07516479 C-201.91563845 -0.06152812 -195.71870844 -0.05572124 -189.52175903 -0.05102539 C-175.19835641 -0.03900671 -160.87497187 -0.0172219 -146.55158234 0.00520325 C-133.51486361 0.0255851 -120.47815225 0.04365134 -107.44142067 0.05341816 C-102.31648489 0.05749846 -97.19157137 0.063603 -92.06664658 0.07516479 C-86.28645484 0.08810314 -80.50628028 0.0957502 -74.72607422 0.09765625 C-73.33851287 0.09820291 -73.33851287 0.09820291 -71.92291999 0.0987606 C-54.54460588 0.094448 -37.17785692 -0.25275024 -19.80659294 -0.7353363 C-18.85005341 -0.75995123 -17.89351388 -0.78456615 -16.90798831 -0.80992699 C-15.12411791 -0.85597109 -13.34035537 -0.90650777 -11.5567677 -0.9624424 C-10.36602741 -0.99227998 -10.36602741 -0.99227998 -9.15123177 -1.02272034 C-8.12382698 -1.05241582 -8.12382698 -1.05241582 -7.07566655 -1.08271122 C-5 -1 -5 -1 0 0 Z M-252 11 C-251 13 -251 13 -251 13 Z M-259 53 C-259.21081851 56.89459074 -259.21081851 56.89459074 -258 60 C-257.34 60 -256.68 60 -256 60 C-256 58.02 -256 56.04 -256 54 C-256.99 53.67 -257.98 53.34 -259 53 Z M-269 56 C-269 59.16227399 -268.82985212 62.11640488 -268.5 65.25 C-268.4071875 66.14203125 -268.314375 67.0340625 -268.21875 67.953125 C-268.1465625 68.62859375 -268.074375 69.3040625 -268 70 C-267.34 70 -266.68 70 -266 70 C-264.6728739 66.0186217 -264.93084087 62.14954773 -265 58 C-266.32 57.34 -267.64 56.68 -269 56 Z M-291.625 59.8125 C-292.67312866 59.91751831 -292.67312866 59.91751831 -293.74243164 60.0246582 C-295.95614605 60.2654319 -295.95614605 60.2654319 -299 61 C-301.11819238 64.17728857 -301.31330705 65.35378646 -301.5625 69.04296875 C-301.63726562 70.03490234 -301.71203125 71.02683594 -301.7890625 72.04882812 C-301.85867188 73.08458984 -301.92828125 74.12035156 -302 75.1875 C-302.46805413 82.02195706 -303.10381663 88.40286201 -305 95 C-300.8587477 97.07062615 -295.45977787 95.53011536 -291 95 C-290.3507959 94.9282959 -289.7015918 94.8565918 -289.03271484 94.78271484 C-281.16169836 94.00638853 -281.16169836 94.00638853 -274.23046875 90.62109375 C-269.51423476 82.72537617 -269.67797729 68.93613015 -270 60 C-271.68826323 58.31173677 -273.7471427 58.82808114 -276.0625 58.8125 C-281.29041877 58.86282894 -286.43386686 59.23179299 -291.625 59.8125 Z M-252 62 C-252 69.26 -252 76.52 -252 84 C-251.67 84 -251.34 84 -251 84 C-251 76.74 -251 69.48 -251 62 C-251.33 62 -251.66 62 -252 62 Z M-308.19921875 68.1640625 C-309.12347656 69.09992188 -310.04773438 70.03578125 -311 71 C-311.95519531 71.85335937 -312.91039062 72.70671875 -313.89453125 73.5859375 C-320.12741797 79.31261286 -320.12741797 79.31261286 -322.7109375 87.1171875 C-322.80159556 90.77874191 -322.49093037 94.3700906 -322 98 C-322.66 97.67 -323.32 97.34 -324 97 C-324.59355614 94.35139573 -324.74209269 91.70802678 -325 89 C-326.32 89 -327.64 89 -329 89 C-331.28882919 91.94278039 -332.82039068 94.46117205 -334 98 C-335.485 98.495 -335.485 98.495 -337 99 C-336.67 99.99 -336.34 100.98 -336 102 C-334.989375 101.855625 -333.97875 101.71125 -332.9375 101.5625 C-322 100 -322 100 -318.625 99.5625 C-314.36558046 98.90155559 -310.19563748 97.97993347 -306 97 C-305.23785964 86.64305688 -304.86569208 76.3864793 -305 66 C-306.39543748 65.88310223 -306.39543748 65.88310223 -308.19921875 68.1640625 Z M-263 88 C-263 92.62 -263 97.24 -263 102 C-262.67 102 -262.34 102 -262 102 C-262 97.38 -262 92.76 -262 88 C-262.33 88 -262.66 88 -263 88 Z M-276 101 C-276.99 101.66 -277.98 102.32 -279 103 C-276.69 103 -274.38 103 -272 103 C-273.32 102.34 -274.64 101.68 -276 101 Z M-279 106 C-279 106.33 -279 106.66 -279 107 C-276.69 107 -274.38 107 -272 107 C-272 106.67 -272 106.34 -272 106 C-274.31 106 -276.62 106 -279 106 Z M-380 116 C-380.82721617 119.66570303 -380.98726676 123.25006186 -381 127 C-375.57945025 125.83086182 -372.47635141 124.60105334 -369 120 C-368.11472891 116.31558496 -368.11472891 116.31558496 -368 113 C-372.83807563 112.65442317 -376.16916256 112.8818765 -380 116 Z M-328 124 C-327 126 -327 126 -327 126 Z M-352 130 C-352.33 130.66 -352.66 131.32 -353 132 C-348.76508841 132.42116585 -348.76508841 132.42116585 -345.1875 130.5 C-341.73170417 128.13031143 -338.06909954 128.76524426 -334 129 C-334.33 128.34 -334.66 127.68 -335 127 C-343.93981103 126.48718781 -343.93981103 126.48718781 -352 130 Z M-312 132 C-312 136.17163781 -311.41688219 137.72643022 -308.66650391 140.80957031 C-305.43753426 143.11611236 -301.94547092 142.35380266 -298.1875 141.875 C-297.39923828 141.80023438 -296.61097656 141.72546875 -295.79882812 141.6484375 C-293.86291851 141.46071293 -291.93084197 141.23417047 -290 141 C-290.33 140.34 -290.66 139.68 -291 139 C-293.58605332 138.5316735 -293.58605332 138.5316735 -296.5625 138.375 C-297.57441406 138.30023438 -298.58632813 138.22546875 -299.62890625 138.1484375 C-300.80259766 138.07496094 -300.80259766 138.07496094 -302 138 C-299.03 137.01 -296.06 136.02 -293 135 C-296.02093215 131.97906785 -299.56372072 132.53323166 -303.625 132.375 C-304.42679688 132.33632812 -305.22859375 132.29765625 -306.0546875 132.2578125 C-308.03607556 132.16346069 -310.01800645 132.08063785 -312 132 Z M-350.75 142.25 C-351.86375 143.11625 -351.86375 143.11625 -353 144 C-353 144.99 -353 145.98 -353 147 C-350.03 146.34 -347.06 145.68 -344 145 C-344 144.01 -344 143.02 -344 142 C-346.91258137 140.81339277 -347.81399691 140.91545314 -350.75 142.25 Z M-361 148 C-360 150 -360 150 -360 150 Z M-362 150 C-361 152 -361 152 -361 152 Z " fill="#2E2E2E" transform="translate(427,123)"/>
<path d="M0 0 C0.495 0.99 0.495 0.99 1 2 C0.22265625 3.7265625 0.22265625 3.7265625 -0.9375 5.625 C-1.618125 6.73875 -2.29875 7.8525 -3 9 C-1.68 7.68 -0.36 6.36 1 5 C-0.40617467 9.47419214 -2.72845797 11.72845797 -6 15 C-6 15.99 -6 16.98 -6 18 C-6.66 18 -7.32 18 -8 18 C-8 17.01 -8 16.02 -8 15 C-8.66 15 -9.32 15 -10 15 C-9.505 16.98 -9.505 16.98 -9 19 C-5.37 19 -1.74 19 2 19 C2 25.93 2 32.86 2 40 C-6.0625 39.875 -6.0625 39.875 -8.55883789 39.81982422 C-14.96885365 39.77223459 -20.73076317 40.58712246 -25.9375 44.625 C-27.4534375 45.800625 -27.4534375 45.800625 -29 47 C-28.43023437 46.71382812 -27.86046875 46.42765625 -27.2734375 46.1328125 C-26.52320313 45.75898438 -25.77296875 45.38515625 -25 45 C-24.31164062 44.64679688 -23.62328125 44.29359375 -22.9140625 43.9296875 C-14.67647883 40.1342138 -6.39144025 39.5386523 2.38671875 41.91796875 C8.45361423 44.22383677 12.44221239 46.53625474 16 52 C14.125 56.75 14.125 56.75 13 59 C12.39671875 58.51789063 11.7934375 58.03578125 11.171875 57.5390625 C10.37265625 56.90742188 9.5734375 56.27578125 8.75 55.625 C7.96109375 54.99851562 7.1721875 54.37203125 6.359375 53.7265625 C-0.24451337 48.89391571 -7.09066251 49.07043247 -15 50 C-19.59677315 51.76314587 -23.75854352 53.83225555 -26.26171875 58.203125 C-26.50535156 58.79609375 -26.74898437 59.3890625 -27 60 C-26.59910156 59.60167969 -26.19820312 59.20335937 -25.78515625 58.79296875 C-20.08979246 53.48504467 -14.76296835 51.41810759 -7.0625 50.5625 C1.12743426 50.95405064 7.40579713 54.67087427 12.8203125 60.609375 C13.20960937 61.06828125 13.59890625 61.5271875 14 62 C14.66 61.67 15.32 61.34 16 61 C18.72961249 65.58574899 19.15799806 67.84164502 18 73 C18.061875 74.051875 18.12375 75.10375 18.1875 76.1875 C17.79277839 84.21350616 14.73774189 91.39887102 9 97 C3.04476865 101.76418508 -3.31799511 103.47843026 -10.921875 103.25390625 C-17.07294226 102.50236608 -22.57168212 100.42831788 -27 96 C-27 95.34 -27 94.68 -27 94 C-27.66 94 -28.32 94 -29 94 C-31.81532819 88.95859836 -33.5188509 84.77378925 -34 79 C-34.9178125 78.97421875 -35.835625 78.9484375 -36.78125 78.921875 C-50.98416094 78.26543794 -50.98416094 78.26543794 -56 74 C-60.20023099 67.96216795 -59.91194271 60.11672938 -59 53 C-58.51660156 52.525625 -58.03320312 52.05125 -57.53515625 51.5625 C-54.71216294 48.68922437 -55.18714005 44.03152184 -54.91601562 40.15625 C-54.41909808 34.81564123 -53.11525929 31.41193889 -50 27 C-40.74637733 19.57352576 -27.00212048 13.86581608 -15.375 11.5 C-9.52528098 10.23176823 -7.36930523 7.71925865 -4 3 C-1.625 1.0625 -1.625 1.0625 0 0 Z M-50 32 C-50.82721617 35.66570303 -50.98726676 39.25006186 -51 43 C-45.57945025 41.83086182 -42.47635141 40.60105334 -39 36 C-38.11472891 32.31558496 -38.11472891 32.31558496 -38 29 C-42.83807563 28.65442317 -46.16916256 28.8818765 -50 32 Z M-22 46 C-22.33 46.66 -22.66 47.32 -23 48 C-18.76508841 48.42116585 -18.76508841 48.42116585 -15.1875 46.5 C-11.73170417 44.13031143 -8.06909954 44.76524426 -4 45 C-4.33 44.34 -4.66 43.68 -5 43 C-13.93981103 42.48718781 -13.93981103 42.48718781 -22 46 Z M-20.75 58.25 C-21.86375 59.11625 -21.86375 59.11625 -23 60 C-23 60.99 -23 61.98 -23 63 C-20.03 62.34 -17.06 61.68 -14 61 C-14 60.01 -14 59.02 -14 58 C-16.91258137 56.81339277 -17.81399691 56.91545314 -20.75 58.25 Z M-31 64 C-30 66 -30 66 -30 66 Z M-32 66 C-31 68 -31 68 -31 68 Z " fill="#0D0D0D" transform="translate(97,207)"/>
<path d="M0 0 C1.65032227 -0.00580078 1.65032227 -0.00580078 3.33398438 -0.01171875 C4.89922852 -0.00978516 4.89922852 -0.00978516 6.49609375 -0.0078125 C7.44540771 -0.00668457 8.39472168 -0.00555664 9.37280273 -0.00439453 C11.5625 0.125 11.5625 0.125 12.5625 1.125 C12.65693335 3.42553835 12.67992128 5.72902173 12.67602539 8.03149414 C12.67617142 8.75340439 12.67631744 9.47531464 12.6764679 10.21910095 C12.67576869 12.61614947 12.66797595 15.01312123 12.66015625 17.41015625 C12.6582921 19.06782489 12.65686818 20.72549407 12.65586853 22.38316345 C12.65204312 26.75454214 12.64221265 31.12588781 12.63116455 35.49725342 C12.62095092 39.95454461 12.61637101 44.41184111 12.61132812 48.86914062 C12.6005904 57.62110893 12.58351371 66.37305036 12.5625 75.125 C5.29555527 75.14814782 -1.97138154 75.16592756 -9.23835564 75.17681217 C-12.61253026 75.18203565 -15.98667971 75.18912361 -19.36083984 75.20043945 C-23.23796259 75.21252436 -27.1150494 75.21823263 -30.9921875 75.22265625 C-32.20679657 75.22781754 -33.42140564 75.23297882 -34.67282104 75.23829651 C-36.35433762 75.23840981 -36.35433762 75.23840981 -38.06982422 75.23852539 C-39.06021698 75.240746 -40.05060974 75.24296661 -41.0710144 75.24525452 C-43.4375 75.125 -43.4375 75.125 -45.4375 74.125 C-45.4375 73.465 -45.4375 72.805 -45.4375 72.125 C-47.0875 71.795 -48.7375 71.465 -50.4375 71.125 C-50.4375 63.535 -50.4375 55.945 -50.4375 48.125 C-43.5372548 46.24311495 -37.58170674 44.71283423 -30.4375 45.125 C-30.1075 43.805 -29.7775 42.485 -29.4375 41.125 C-28.34050781 41.15722656 -27.24351563 41.18945312 -26.11328125 41.22265625 C-20.85389922 41.21454528 -15.79823503 40.45668408 -10.625 39.5625 C-9.68462891 39.43037109 -8.74425781 39.29824219 -7.77539062 39.16210938 C-5.14885361 38.70213685 -2.87732683 38.20205871 -0.4375 37.125 C2.69577512 32.38354769 3.20854767 27.17861194 3.75 21.625 C3.83185547 20.90441406 3.91371094 20.18382812 3.99804688 19.44140625 C4.47820059 14.97880115 4.63925335 10.61211906 4.5625 6.125 C-4.94654899 5.80082788 -14.05054896 6.79081407 -23.4375 8.125 C-24.4275 11.095 -25.4175 14.065 -26.4375 17.125 C-26.7675 17.125 -27.0975 17.125 -27.4375 17.125 C-27.7675 14.485 -28.0975 11.845 -28.4375 9.125 C-30.0875 9.455 -31.7375 9.785 -33.4375 10.125 C-33.7675 9.135 -34.0975 8.145 -34.4375 7.125 C-31.99928864 3.46768296 -30.97858023 3.45978051 -26.8125 2.5 C-25.80960938 2.26023438 -24.80671875 2.02046875 -23.7734375 1.7734375 C-15.78632266 0.22090698 -8.12031301 -0.02926239 0 0 Z M6.5625 2.125 C6.5625 5.28727399 6.73264788 8.24140488 7.0625 11.375 C7.1553125 12.26703125 7.248125 13.1590625 7.34375 14.078125 C7.4159375 14.75359375 7.488125 15.4290625 7.5625 16.125 C8.2225 16.125 8.8825 16.125 9.5625 16.125 C10.8896261 12.1436217 10.63165913 8.27454773 10.5625 4.125 C9.2425 3.465 7.9225 2.805 6.5625 2.125 Z M-0.4375 47.125 C-1.4275 47.785 -2.4175 48.445 -3.4375 49.125 C-1.1275 49.125 1.1825 49.125 3.5625 49.125 C2.2425 48.465 0.9225 47.805 -0.4375 47.125 Z M-3.4375 52.125 C-3.4375 52.455 -3.4375 52.785 -3.4375 53.125 C-1.1275 53.125 1.1825 53.125 3.5625 53.125 C3.5625 52.795 3.5625 52.465 3.5625 52.125 C1.2525 52.125 -1.0575 52.125 -3.4375 52.125 Z " fill="#0B0B0B" transform="translate(151.4375,176.875)"/>
<path d="M0 0 C5.3964316 0.33727697 9.12105491 3.50727022 13 7 C16 11.125 16 11.125 16 14 C25.24 14 34.48 14 44 14 C44 14.33 44 14.66 44 15 C33.605 15.495 33.605 15.495 23 16 C23.495 18.97 23.495 18.97 24 22 C24.13320045 23.89298339 24.21824438 25.79010177 24.25 27.6875 C24.27578125 28.61949219 24.3015625 29.55148437 24.328125 30.51171875 C24 33 24 33 22.796875 34.83203125 C21 36 21 36 18.5 35.921875 C17.2625 35.96054687 17.2625 35.96054687 16 36 C14.26789593 37.82053676 14.26789593 37.82053676 13 40.25 C10.05701656 45.03234809 7.43504515 47.89316129 2.25 50.25 C-5.40541428 52.01663406 -12.83782638 51.32324856 -20 48 C-22.9041941 45.88186816 -25.48487118 43.56430732 -28 41 C-27.67 40.34 -27.34 39.68 -27 39 C-26.01 39.66 -25.02 40.32 -24 41 C-24.28875 40.40832031 -24.5775 39.81664062 -24.875 39.20703125 C-28.56239016 31.35852373 -28.56239016 31.35852373 -28 27 C-27.34 27 -26.68 27 -26 27 C-25.34 29.31 -24.68 31.62 -24 34 C-23.91363281 32.90300781 -23.82726562 31.80601562 -23.73828125 30.67578125 C-23.59751928 29.22124094 -23.45552705 27.76681933 -23.3125 26.3125 C-23.25900391 25.59126953 -23.20550781 24.87003906 -23.15039062 24.12695312 C-22.59546036 18.84305187 -21.22467936 16.49988893 -17 13 C-16.4225 12.401875 -15.845 11.80375 -15.25 11.1875 C-11.62488565 9.2742452 -8.00731592 9.44246039 -4 10 C-1.99248185 10.98482022 0.00934459 11.98152514 2 13 C4.35460678 12.32575833 4.35460678 12.32575833 6 11 C5.88658466 8.59122743 5.88658466 8.59122743 5 6 C3.35857037 4.9590934 1.69287785 3.95495674 0 3 C0 2.01 0 1.02 0 0 Z " fill="#070707" transform="translate(339,258)"/>
<path d="M0 0 C1.24040039 -0.00193359 1.24040039 -0.00193359 2.50585938 -0.00390625 C3.37662109 -0.00003906 4.24738281 0.00382812 5.14453125 0.0078125 C6.42166992 0.00201172 6.42166992 0.00201172 7.72460938 -0.00390625 C12.27513502 0.00313246 16.46590149 0.36688339 20.95703125 1.1328125 C24.35024443 1.33136168 27.74718039 1.40763421 31.14453125 1.5078125 C41.03876698 1.86458345 50.78892592 2.79373969 60.61499023 3.98266602 C67.50859007 4.80119833 74.36517669 5.36994379 81.29614258 5.75146484 C94.17883127 6.48361393 105.92951234 8.64967097 118.28222656 12.33935547 C121.82540422 13.39040762 125.38818099 14.36359573 128.95288086 15.33862305 C132.292219 16.25384411 135.62465574 17.19259169 138.95703125 18.1328125 C138.62703125 19.7828125 138.29703125 21.4328125 137.95703125 23.1328125 C119.13789455 22.35786981 100.41508659 21.37061322 81.70703125 19.1328125 C41.15326789 13.77420899 41.15326789 13.77420899 1.03125 19.2421875 C-2.04296875 20.1328125 -2.04296875 20.1328125 -6.04296875 20.1328125 C-6.04296875 19.4728125 -6.04296875 18.8128125 -6.04296875 18.1328125 C-6.64625 17.93945312 -7.24953125 17.74609375 -7.87109375 17.546875 C-8.6703125 17.28648437 -9.46953125 17.02609375 -10.29296875 16.7578125 C-11.47632813 16.37496094 -11.47632813 16.37496094 -12.68359375 15.984375 C-14.90924833 15.18107583 -16.95228547 14.23569588 -19.04296875 13.1328125 C-16.04296875 12.1328125 -16.04296875 12.1328125 -13.23046875 13.5078125 C-12.17859375 14.0440625 -11.12671875 14.5803125 -10.04296875 15.1328125 C-6.80627245 15.84039576 -6.80627245 15.84039576 -4.04296875 16.1328125 C-4.04296875 16.7928125 -4.04296875 17.4528125 -4.04296875 18.1328125 C-2.70492188 17.71708984 -2.70492188 17.71708984 -1.33984375 17.29296875 C-0.169375 16.93074219 1.00109375 16.56851562 2.20703125 16.1953125 C3.3671875 15.83566406 4.52734375 15.47601563 5.72265625 15.10546875 C9.71524596 13.90479866 13.03006175 13.00069634 17.20703125 13.0703125 C19.06328125 13.10125 19.06328125 13.10125 20.95703125 13.1328125 C20.95703125 12.4728125 20.95703125 11.8128125 20.95703125 11.1328125 C19.96703125 11.17921875 18.97703125 11.225625 17.95703125 11.2734375 C10.26273872 11.52277154 4.67567528 11.26736267 -2.04296875 7.1328125 C-3.03296875 7.1328125 -4.02296875 7.1328125 -5.04296875 7.1328125 C-6.72533346 6.50681633 -8.39536495 5.84528982 -10.04296875 5.1328125 C-10.04296875 4.1428125 -10.04296875 3.1528125 -10.04296875 2.1328125 C-8.83640625 1.91625 -8.83640625 1.91625 -7.60546875 1.6953125 C-4.48701186 1.01077318 -3.35319427 0.00502566 0 0 Z " fill="#070707" transform="translate(422.04296875,272.8671875)"/>
<path d="M0 0 C0 11.88 0 23.76 0 36 C-7.858125 36.495 -7.858125 36.495 -15.875 37 C-18.32268799 37.15662109 -18.32268799 37.15662109 -20.81982422 37.31640625 C-28.22419802 37.77367918 -35.57818805 38.11804075 -43 38 C-42.05548009 30.1741112 -39.89497887 24.4815034 -34 19 C-33.14019531 18.67 -32.28039062 18.34 -31.39453125 18 C-28.41352543 16.7550775 -28.36830387 15.81953525 -27 13 C-20.31545266 7.58467051 -13.06951649 3.84522792 -5 1 C-3 0 -3 0 0 0 Z " fill="#040404" transform="translate(174,134)"/>
<path d="M0 0 C3.83084349 2.61193874 6.65161815 5.67823629 8.75 9.875 C9.63563587 15.97323559 8.63003967 20.0549405 5.234375 25.1484375 C2.61628311 28.19369175 0.79605163 29.69860698 -3.23828125 30.37890625 C-13.3195771 30.55660242 -13.3195771 30.55660242 -17.4375 27.125 C-20.84515404 23.70871898 -22.53664092 20.4153869 -22.5625 15.5625 C-22.41046651 10.4187004 -21.43064338 6.20929305 -17.80859375 2.33203125 C-12.2528163 -2.26985401 -6.63970759 -2.29836032 0 0 Z " fill="#1D1D1D" transform="translate(338.25,269.125)"/>
<path d="M0 0 C0 26.07 0 52.14 0 79 C-2.64 79 -5.28 79 -8 79 C-8 53.92 -8 28.84 -8 3 C-22.44149894 3 -35.82756664 3.14782668 -50 5 C-48 2 -48 2 -45.17578125 1.26953125 C-29.88061284 -0.53990728 -15.8003471 0 0 0 Z M-6 3 C-6.21081851 6.89459074 -6.21081851 6.89459074 -5 10 C-4.34 10 -3.68 10 -3 10 C-3 8.02 -3 6.04 -3 4 C-3.99 3.67 -4.98 3.34 -6 3 Z " fill="#060606" transform="translate(174,173)"/>
<path d="M0 0 C0.66 0.33 1.32 0.66 2 1 C2 1.33 2 1.66 2 2 C2.98355469 1.855625 3.96710938 1.71125 4.98046875 1.5625 C13.48514905 0.3964939 21.84902358 -0.19342973 30.4375 -0.1875 C31.35490967 -0.18814453 32.27231934 -0.18878906 33.2175293 -0.18945312 C39.72907759 -0.1354612 39.72907759 -0.1354612 42 1 C42 26.08 42 51.16 42 77 C41.34 77 40.68 77 40 77 C40.00785522 75.39620483 40.00785522 75.39620483 40.01586914 73.76000977 C40.12105165 50.15027609 39.91051855 26.59356965 39 3 C16.62931033 2.1461502 16.62931033 2.1461502 -5 7 C-5.96877057 9.03243548 -5.96877057 9.03243548 -6 11 C-4.02 10.67 -2.04 10.34 0 10 C4.94637021 18.20469345 2.15548971 32.15903419 0 41 C-0.99 42.32 -1.98 43.64 -3 45 C-3 35.1 -3 25.2 -3 15 C-7.30595993 17.15297996 -7.14702714 17.16119961 -9 21 C-10.50714909 22.45184087 -12.02960592 23.88786811 -13.5625 25.3125 C-18.89285515 31.01017129 -19.03122365 35.61509891 -19.09765625 43.0703125 C-19.06542969 44.03710938 -19.03320312 45.00390625 -19 46 C-20.485 45.505 -20.485 45.505 -22 45 C-22 42.36 -22 39.72 -22 37 C-26.31392226 37.4793247 -28.16569547 38.7457985 -31 42 C-30.690625 41.236875 -30.38125 40.47375 -30.0625 39.6875 C-29.32106407 37.81210323 -28.63771783 35.91315348 -28 34 C-28.7425 34.7425 -29.485 35.485 -30.25 36.25 C-31.1575 37.1575 -32.065 38.065 -33 39 C-33.928125 40.11375 -33.928125 40.11375 -34.875 41.25 C-37.77418306 43.63756252 -40.32289786 43.71714599 -44 44 C-41 42 -41 42 -38.60546875 40.73046875 C-35.46968766 38.64778356 -33.60439223 36.28923609 -31.3125 33.3125 C-29.91901602 31.5068258 -28.49133995 29.72573523 -27 28 C-26.34 28 -25.68 28 -25 28 C-24.773125 27.278125 -24.54625 26.55625 -24.3125 25.8125 C-22.72911418 22.4195304 -20.69229923 20.59587017 -18 18 C-11.0260322 11.17931441 -11.0260322 11.17931441 -4.5 3.9375 C-2 1 -2 1 0 0 Z " fill="#515151" transform="translate(124,175)"/>
<path d="M0 0 C-1.17108155 2.53734336 -2.37451083 4.47364605 -4.125 6.6875 C-6.55666082 10.98343411 -6.95455131 14.17013356 -6 19 C-3.89674082 23.78844778 -1.26734396 26.99705425 3 30 C3 30.99 3 31.98 3 33 C-0.0831351 31.80100302 -3.06279492 30.52299523 -6 29 C-6.33 29.99 -6.66 30.98 -7 32 C-7.99 31.67 -8.98 31.34 -10 31 C-8.71283353 32.00578589 -7.42011342 33.00446798 -6.125 34 C-5.40570313 34.556875 -4.68640625 35.11375 -3.9453125 35.6875 C-2.1147915 37.18643377 -2.1147915 37.18643377 0 37 C-1.65 36.01 -3.3 35.02 -5 34 C-1.28314325 32.76104775 -0.51832729 33.56468828 3 35 C9.41656163 35.71917794 14.37722238 35.37366657 20 32 C20.99 32 21.98 32 23 32 C23 31.34 23 30.68 23 30 C23.66 30 24.32 30 25 30 C25.309375 29.05125 25.61875 28.1025 25.9375 27.125 C27 24 27 24 28 22 C28.66 22 29.32 22 30 22 C30.33 18.37 30.66 14.74 31 11 C31.33 11 31.66 11 32 11 C32.92645125 25.65851752 32.92645125 25.65851752 28.61328125 31.3203125 C22.13700381 38.06316795 16.26124272 40.58244105 7.0625 41.3125 C0.26281498 41.1117219 -6.15076209 38.84923791 -11 34 C-11 33.34 -11 32.68 -11 32 C-11.66 32 -12.32 32 -13 32 C-15.82824349 26.93547096 -17.28680279 22.8244439 -18 17 C-18.66 16.67 -19.32 16.34 -20 16 C-19.01 15.67 -18.02 15.34 -17 15 C-16.67 15.66 -16.34 16.32 -16 17 C-15.90203125 16.09636719 -15.8040625 15.19273437 -15.703125 14.26171875 C-15.55359375 13.08222656 -15.4040625 11.90273438 -15.25 10.6875 C-15.11078125 9.51574219 -14.9715625 8.34398437 -14.828125 7.13671875 C-14 4 -14 4 -12.109375 2.125 C-8.1962642 0.03800758 -4.36855284 0 0 0 Z " fill="#090909" transform="translate(81,269)"/>
<path d="M0 0 C0.33 0 0.66 0 1 0 C2.1067073 6.22689445 2.13457811 12.31301605 2.11352539 18.62670898 C2.11367142 19.7786525 2.11381744 20.93059601 2.1139679 22.1174469 C2.11327338 25.91034859 2.10550256 29.70320067 2.09765625 33.49609375 C2.09579043 36.13167799 2.0943673 38.76726258 2.09336853 41.40284729 C2.09026747 47.62166652 2.08207067 53.84046805 2.07201904 60.0592795 C2.06081976 67.14273869 2.05533786 74.22619876 2.05032361 81.30966461 C2.03988698 95.87311884 2.02231137 110.43655917 2 125 C1.67 125 1.34 125 1 125 C0.02165057 120.91678506 -0.12097326 117.10794807 -0.11352539 112.91479492 C-0.11367142 112.22156128 -0.11381744 111.52832764 -0.1139679 110.81408691 C-0.11327451 108.53618171 -0.10550915 106.25835957 -0.09765625 103.98046875 C-0.09579003 102.39577784 -0.09436709 100.81108635 -0.09336853 99.22639465 C-0.08955943 95.0655049 -0.07974292 90.90465032 -0.06866455 86.74377441 C-0.05841582 82.49390132 -0.0538635 78.24402252 -0.04882812 73.99414062 C-0.03811916 65.66274431 -0.02106211 57.33137654 0 49 C-4.36507966 49.13054952 -8.73010594 49.26273778 -13.09509277 49.39634705 C-14.57538561 49.44143848 -16.05569139 49.48610705 -17.53601074 49.53031921 C-28.03676425 49.84432104 -38.5193752 50.25814855 -49 51 C-47.515 50.505 -47.515 50.505 -46 50 C-46.0928125 48.8553125 -46.0928125 48.8553125 -46.1875 47.6875 C-46 45 -46 45 -44.5 43.1875 C-43.7575 42.5996875 -43.7575 42.5996875 -43 42 C-43.33 43.98 -43.66 45.96 -44 48 C-42.792229 47.90912109 -42.792229 47.90912109 -41.56005859 47.81640625 C-38.49996066 47.58866174 -35.43956168 47.36562344 -32.37890625 47.14550781 C-30.43203508 47.00414144 -28.48554058 46.85761711 -26.5390625 46.7109375 C-25.27578125 46.62070313 -24.0125 46.53046875 -22.7109375 46.4375 C-21.56931152 46.35371094 -20.42768555 46.26992187 -19.25146484 46.18359375 C-13.17300044 45.9211035 -7.08412941 46 -1 46 C-1 34.12 -1 22.24 -1 10 C-6.445 12.475 -6.445 12.475 -12 15 C-12.66 14.67 -13.32 14.34 -14 14 C-9.39483731 10.54612799 -5.63992111 9.16688023 0 8 C0 5.36 0 2.72 0 0 Z M0 10 C1 12 1 12 1 12 Z " fill="#9C9C9C" transform="translate(175,124)"/>
<path d="M0 0 C0.33 0 0.66 0 1 0 C1 1.98 1 3.96 1 6 C4.96 6 8.92 6 13 6 C13 6.99 13 7.98 13 9 C9.7 9 6.4 9 3 9 C3 13.95 3 18.9 3 24 C6.96 24 10.92 24 15 24 C15.66 22.68 16.32 21.36 17 20 C18.98828125 19.13671875 18.98828125 19.13671875 21.3125 18.6875 C22.07175781 18.52636719 22.83101563 18.36523438 23.61328125 18.19921875 C26 18 26 18 28.22044373 18.48243713 C31.49074824 19.091379 34.53231558 19.10452583 37.85961914 19.08178711 C38.5304805 19.07872055 39.20134186 19.07565399 39.89253235 19.07249451 C41.34551764 19.06536166 42.79849329 19.05598337 44.25145149 19.04459953 C46.57189197 19.02706617 48.89226202 19.01686083 51.2127533 19.00868225 C57.80995357 18.98438593 64.40706112 18.94934692 71.00415039 18.90405273 C106.52221424 18.66844758 106.52221424 18.66844758 123 21 C123 21.33 123 21.66 123 22 C109.86366642 22.28871063 97.05617412 21.44210207 84 20 C84 20.66 84 21.32 84 22 C83.24911102 21.99555878 82.49822205 21.99111755 81.72457886 21.98654175 C74.63327861 21.94639612 67.54201801 21.91598063 60.45063591 21.89637566 C56.80525726 21.88595757 53.15997286 21.87183467 49.51464844 21.84912109 C45.99387821 21.82732196 42.4731984 21.81541653 38.95236588 21.81024551 C36.96161159 21.80477522 34.97089346 21.78917359 32.98019409 21.77340698 C31.14897507 21.77318039 31.14897507 21.77318039 29.28076172 21.77294922 C28.21042694 21.768508 27.14009216 21.76406677 26.037323 21.75949097 C21.74979928 22.09899657 18.15138285 23.53944686 14.1875 25.125 C10.18263037 26.22437598 6.12000209 26.76632039 2 26 C0 23 0 23 0 8 C-14.85 8.33 -29.7 8.66 -45 9 C-45 8.34 -45 7.68 -45 7 C-30.15 7 -15.3 7 0 7 C0 4.69 0 2.38 0 0 Z " fill="#171717" transform="translate(164,259)"/>
<path d="M0 0 C13.86 0 27.72 0 42 0 C42 3.3 42 6.6 42 10 C28.8 10 15.6 10 2 10 C2 9.67 2 9.34 2 9 C4.64 8.67 7.28 8.34 10 8 C7.69 7.34 5.38 6.68 3 6 C5.66666667 4.66666667 8.33333333 3.33333333 11 2 C7.37 1.67 3.74 1.34 0 1 C0 0.67 0 0.34 0 0 Z " fill="#030303" transform="translate(121,255)"/>
<path d="M0 0 C0.56847656 0.32355469 1.13695313 0.64710938 1.72265625 0.98046875 C1.72265625 1.97046875 1.72265625 2.96046875 1.72265625 3.98046875 C-4.02734375 5.10546875 -4.02734375 5.10546875 -6.27734375 3.98046875 C-6.27734375 4.64046875 -6.27734375 5.30046875 -6.27734375 5.98046875 C-5.28734375 6.31046875 -4.29734375 6.64046875 -3.27734375 6.98046875 C-4.92734375 6.98046875 -6.57734375 6.98046875 -8.27734375 6.98046875 C-8.27734375 5.99046875 -8.27734375 5.00046875 -8.27734375 3.98046875 C-9.26734375 4.31046875 -10.25734375 4.64046875 -11.27734375 4.98046875 C-10.94734375 5.97046875 -10.61734375 6.96046875 -10.27734375 7.98046875 C-10.98890625 8.47546875 -10.98890625 8.47546875 -11.71484375 8.98046875 C-13.48957101 11.25211964 -13.56786882 12.29506116 -13.83984375 15.10546875 C-13.98421875 16.38421875 -14.12859375 17.66296875 -14.27734375 18.98046875 C-14.93734375 19.31046875 -15.59734375 19.64046875 -16.27734375 19.98046875 C-15.61734375 20.64046875 -14.95734375 21.30046875 -14.27734375 21.98046875 C-13.28734375 21.65046875 -12.29734375 21.32046875 -11.27734375 20.98046875 C-10.61734375 21.31046875 -9.95734375 21.64046875 -9.27734375 21.98046875 C-11.15234375 25.85546875 -11.15234375 25.85546875 -12.27734375 26.98046875 C-3.36752473 27.44207513 -3.36752473 27.44207513 4.72265625 23.98046875 C3.78816828 26.31668866 3.15391555 27.70182404 1.01171875 29.0859375 C-3.57721758 30.8792249 -8.45208627 30.60704168 -13.27734375 29.98046875 C-16.98194138 28.30440808 -18.88303563 25.55878732 -21.15234375 22.23046875 C-22.6284752 17.966089 -23.21000147 14.4331572 -22.27734375 9.98046875 C-17.78966995 1.36413506 -9.70052057 -4.34277164 0 0 Z " fill="#181818" transform="translate(96.27734375,269.01953125)"/>
<path d="M0 0 C0 0.66 0 1.32 0 2 C-2.58252893 2.50449402 -5.16588703 3.00374301 -7.75 3.5 C-8.47960937 3.64308594 -9.20921875 3.78617188 -9.9609375 3.93359375 C-13.39343532 4.58888879 -16.49169491 5 -20 5 C-19.505 16.385 -19.505 16.385 -19 28 C-17.68 28.33 -16.36 28.66 -15 29 C-15 29.66 -15 30.32 -15 31 C4.14 31.33 23.28 31.66 43 32 C43 32.33 43 32.66 43 33 C32.85343757 34.04161231 22.79635038 34.28911554 12.60327148 34.35009766 C10.57776421 34.36668551 8.55231614 34.39401255 6.52709961 34.43212891 C-13.4605641 34.8045799 -13.4605641 34.8045799 -22.67504883 30.13964844 C-28.52292503 27.27312674 -35.81091247 28.12523032 -41.93359375 29.8046875 C-46.19896476 31.43985202 -50.19326644 33.46217763 -54 36 C-52.62021122 32.68143108 -51.25087603 31.16926903 -48.1875 29.3125 C-47.18783203 28.68794922 -47.18783203 28.68794922 -46.16796875 28.05078125 C-41.70917744 25.88967339 -37.32799117 25.8636663 -32.4375 25.875 C-31.32246094 25.87242187 -30.20742187 25.86984375 -29.05859375 25.8671875 C-26 26 -26 26 -22 27 C-22 20.07 -22 13.14 -22 6 C-23.32 6.33 -24.64 6.66 -26 7 C-28.33300933 7.03888349 -30.66709801 7.0448635 -33 7 C-33.33 5.35 -33.66 3.7 -34 2 C-33.34 2 -32.68 2 -32 2 C-32 2.99 -32 3.98 -32 5 C-31.14277344 4.7834375 -30.28554687 4.566875 -29.40234375 4.34375 C-23.43518455 2.89064246 -18.1606868 1.87920222 -12 2 C-10.5958421 1.70368531 -9.19950559 1.36834398 -7.8125 1 C-4 0 -4 0 0 0 Z M-22 27 C-21 29 -21 29 -21 29 Z " fill="#818181" transform="translate(121,220)"/>
<path d="M0 0 C1.32 0 2.64 0 4 0 C4 0.99 4 1.98 4 3 C5.11375 2.87625 5.11375 2.87625 6.25 2.75 C9.80770753 3.07342796 10.54495777 4.54495777 13 7 C15.21858253 6.86358623 15.21858253 6.86358623 17 6 C17 8.64 17 11.28 17 14 C16.01 14.33 15.02 14.66 14 15 C13.67 14.67 13.34 14.34 13 14 C12.67 14.99 12.34 15.98 12 17 C12.99 17.33 13.98 17.66 15 18 C13.35 19.32 11.7 20.64 10 22 C10 21.34 10 20.68 10 20 C9.34 19.67 8.68 19.34 8 19 C7.67 18.67 7.34 18.34 7 18 C7 19.65 7 21.3 7 23 C5.35 23 3.7 23 2 23 C2 20 2 20 3 18 C1.02 18.33 -0.96 18.66 -3 19 C-3.66 17.68 -4.32 16.36 -5 15 C-4.01 15 -3.02 15 -2 15 C-2 12.36 -2 9.72 -2 7 C-1.01 6.67 -0.02 6.34 1 6 C0.67 4.02 0.34 2.04 0 0 Z M6 0 C8.875 -0.1875 8.875 -0.1875 12 0 C12.66 0.99 13.32 1.98 14 3 C11.36 2.67 8.72 2.34 6 2 C6 1.34 6 0.68 6 0 Z " fill="#050505" transform="translate(84,273)"/>
<path d="M0 0 C5.3964316 0.33727697 9.12105491 3.50727022 13 7 C16 11.125 16 11.125 16 14 C25.24 14 34.48 14 44 14 C44 14.33 44 14.66 44 15 C33.605 15.495 33.605 15.495 23 16 C23.33 17.98 23.66 19.96 24 22 C24.13320045 23.89298339 24.21824438 25.79010177 24.25 27.6875 C24.27578125 28.61949219 24.3015625 29.55148437 24.328125 30.51171875 C24 33 24 33 22.6328125 34.8515625 C21 36 21 36 18.625 35.6875 C15.90044749 35.70252901 15.90044749 35.70252901 14.56640625 37.76953125 C13.3024676 39.81403258 12.11640315 41.87170804 11 44 C10.01 43.67 9.02 43.34 8 43 C8.8971875 41.9790625 8.8971875 41.9790625 9.8125 40.9375 C12.23587643 37.68325166 13.5252401 34.76063775 15 31 C14.34 31 13.68 31 13 31 C13.33 30.34 13.66 29.68 14 29 C14.66 29.33 15.32 29.66 16 30 C15.71512349 27.95737483 15.42177949 25.91592973 15.125 23.875 C14.88136719 22.16957031 14.88136719 22.16957031 14.6328125 20.4296875 C14.02568583 17.13921085 13.13654367 14.14220897 12 11 C11.34 11 10.68 11 10 11 C8.33333333 9.33333333 6.66666667 7.66666667 5 6 C4.071875 5.46375 3.14375 4.9275 2.1875 4.375 C1.465625 3.92125 0.74375 3.4675 0 3 C0 2.01 0 1.02 0 0 Z " fill="#151515" transform="translate(339,258)"/>
<path d="M0 0 C2 4 2 4 1 11 C-13.85 11 -28.7 11 -44 11 C-43.02535017 12.19484697 -43.02535017 12.19484697 -41.22279358 12.11352539 C-40.44939133 12.10828857 -39.67598907 12.10305176 -38.87915039 12.09765625 C-38.00476822 12.09435303 -37.13038605 12.0910498 -36.22950745 12.08764648 C-35.27849655 12.07934814 -34.32748566 12.0710498 -33.34765625 12.0625 C-32.37718857 12.05871338 -31.40672089 12.05492676 -30.40684509 12.05102539 C-26.23610411 12.03460045 -22.06545915 12.00649315 -17.89477539 11.97949219 C-14.85824023 11.96147543 -11.82172075 11.94933656 -8.78515625 11.9375 C-7.83616959 11.92920166 -6.88718292 11.92090332 -5.90943909 11.91235352 C-5.03190475 11.90905029 -4.15437042 11.90574707 -3.25024414 11.90234375 C-2.4760463 11.89710693 -1.70184845 11.89187012 -0.90419006 11.88647461 C1 12 1 12 3 13 C3 18.61 3 24.22 3 30 C-3.96003966 30.02464201 -10.92005416 30.04283222 -17.88012695 30.05493164 C-20.24992312 30.05997341 -22.61971615 30.06680665 -24.98950195 30.07543945 C-28.38754039 30.0875119 -31.78553785 30.09322971 -35.18359375 30.09765625 C-36.25024765 30.10281754 -37.31690155 30.10797882 -38.4158783 30.11329651 C-39.39681961 30.11337204 -40.37776093 30.11344757 -41.38842773 30.11352539 C-42.25668686 30.115746 -43.12494598 30.11796661 -44.01951599 30.12025452 C-46 30 -46 30 -47 29 C-47.04063832 27.33382885 -47.042721 25.66611905 -47 24 C-46.67 25.32 -46.34 26.64 -46 28 C-44.68 27.67 -43.36 27.34 -42 27 C-42 25.02 -42 23.04 -42 21 C-41.01 21 -40.02 21 -39 21 C-39 23.31 -39 25.62 -39 28 C-26.13 28 -13.26 28 0 28 C0 23.05 0 18.1 0 13 C-13.53 13.33 -27.06 13.66 -41 14 C-40.67 15.98 -40.34 17.96 -40 20 C-40.99 20 -41.98 20 -43 20 C-43.83739781 17.8765984 -44.66980283 15.7512272 -45.5 13.625 C-46.19609375 11.84996094 -46.19609375 11.84996094 -46.90625 10.0390625 C-48 7 -48 7 -48 5 C-45 6 -45 6 -43 9 C-41.07097172 9.47393562 -41.07097172 9.47393562 -38.82568359 9.43237305 C-37.53457169 9.46206429 -37.53457169 9.46206429 -36.21737671 9.49235535 C-35.28712677 9.49874527 -34.35687683 9.50513519 -33.3984375 9.51171875 C-31.97103745 9.53864555 -31.97103745 9.53864555 -30.51480103 9.56611633 C-27.4682461 9.62040249 -24.42184943 9.65417359 -21.375 9.6875 C-19.31247788 9.72065692 -17.24997671 9.75514504 -15.1875 9.79101562 C-10.1251139 9.87613944 -5.06277622 9.94286304 0 10 C0 6.7 0 3.4 0 0 Z " fill="#212121" transform="translate(163,255)"/>
<path d="M0 0 C8.32601845 -0.25750573 16.03783816 0.15402297 24.03125 2.62890625 C25.99221101 3.14455626 25.99221101 3.14455626 27.8600769 2.50932312 C30.15547542 1.96299529 31.86534461 2.00270298 34.20751953 2.22192383 C35.4412883 2.33247856 35.4412883 2.33247856 36.69998169 2.44526672 C37.58531586 2.53164902 38.47065002 2.61803131 39.3828125 2.70703125 C40.31108856 2.79248703 41.23936462 2.87794281 42.19577026 2.96598816 C45.17280818 3.24184396 48.14885093 3.52723146 51.125 3.8125 C53.07416467 3.99342213 55.02338307 4.1737664 56.97265625 4.35351562 C68.66346249 5.44116114 80.33578278 6.65762437 92 8 C92 8.33 92 8.66 92 9 C83.62350575 9.12552189 75.30475099 8.69202615 66.94717407 8.20126343 C64.52126287 8.06010042 62.0950647 7.92538325 59.66870117 7.79223633 C46.38863736 7.05785377 46.38863736 7.05785377 40.296875 6.5390625 C26.44543971 5.40951524 11.38918128 6.0799004 -1.984375 10.10546875 C-5 11 -5 11 -9 11 C-9 10.34 -9 9.68 -9 9 C-9.60328125 8.80664062 -10.2065625 8.61328125 -10.828125 8.4140625 C-11.62734375 8.15367187 -12.4265625 7.89328125 -13.25 7.625 C-14.03890625 7.36976563 -14.8278125 7.11453125 -15.640625 6.8515625 C-17.86627958 6.04826333 -19.90931672 5.10288338 -22 4 C-19 3 -19 3 -16.1875 4.375 C-15.135625 4.91125 -14.08375 5.4475 -13 6 C-9.7633037 6.70758326 -9.7633037 6.70758326 -7 7 C-7 7.66 -7 8.32 -7 9 C-6.10796875 8.72285156 -5.2159375 8.44570313 -4.296875 8.16015625 C-3.12640625 7.79792969 -1.9559375 7.43570312 -0.75 7.0625 C0.41015625 6.70285156 1.5703125 6.34320313 2.765625 5.97265625 C6.75821471 4.77198616 10.0730305 3.86788384 14.25 3.9375 C16.10625 3.9684375 16.10625 3.9684375 18 4 C18 3.34 18 2.68 18 2 C16.95199219 2.02320313 15.90398437 2.04640625 14.82421875 2.0703125 C13.44531963 2.08907303 12.0664128 2.10727293 10.6875 2.125 C9.65206055 2.15013672 9.65206055 2.15013672 8.59570312 2.17578125 C4.82864604 2.21217794 3.21568296 2.14378864 0 0 Z " fill="#131313" transform="translate(425,282)"/>
<path d="M0 0 C0.66 0.66 1.32 1.32 2 2 C2.99 1.67 3.98 1.34 5 1 C4.67 3.64 4.34 6.28 4 9 C4.66 9 5.32 9 6 9 C6 9.99 6 10.98 6 12 C5.443125 12.12375 4.88625 12.2475 4.3125 12.375 C1.77885636 13.05976855 -0.57921032 13.99133763 -3 15 C-2.67 16.32 -2.34 17.64 -2 19 C-4.31 19 -6.62 19 -9 19 C-9.33 18.01 -9.66 17.02 -10 16 C-12.00016466 14.79117904 -12.00016466 14.79117904 -14 14 C-14 13.34 -14 12.68 -14 12 C-13.01 12 -12.02 12 -11 12 C-11.33 8.37 -11.66 4.74 -12 1 C-7.73417857 0.14683571 -4.30701706 -0.24379342 0 0 Z " fill="#111111" transform="translate(335,276)"/>
<path d="M0 0 C7.33970124 1.95669381 12.81265774 4.56943867 17 11 C15.125 15.75 15.125 15.75 14 18 C13.39671875 17.51789063 12.7934375 17.03578125 12.171875 16.5390625 C11.37265625 15.90742188 10.5734375 15.27578125 9.75 14.625 C8.96109375 13.99851562 8.1721875 13.37203125 7.359375 12.7265625 C0.77350478 7.90710118 -6.10555001 8.13848605 -14 9 C-16.55591095 10.09804012 -18.43534161 11.25527827 -20.58203125 13.00390625 C-21.04996094 13.33261719 -21.51789063 13.66132813 -22 14 C-22.66 13.67 -23.32 13.34 -24 13 C-19.45945946 9.21621622 -19.45945946 9.21621622 -16.875 8 C-14.81701296 7.11190481 -14.81701296 7.11190481 -13.75 4.875 C-12 3 -12 3 -10.03515625 2.7421875 C-8.02161522 2.74926497 -6.00923832 2.86824667 -4 3 C-8.29 2.67 -12.58 2.34 -17 2 C-11.85569638 -1.42953575 -5.99369754 -0.59936975 0 0 Z " fill="#262626" transform="translate(96,248)"/>
<path d="M0 0 C0.6899707 -0.00475342 1.37994141 -0.00950684 2.09082031 -0.0144043 C5.79030503 -0.00229983 9.21584074 0.24504065 12.8125 1.125 C12.4825 1.62 12.1525 2.115 11.8125 2.625 C10.37613642 6.21590894 10.68398538 9.26956127 10.8125 13.125 C10.4825 13.125 10.1525 13.125 9.8125 13.125 C9.3175 9.66 9.3175 9.66 8.8125 6.125 C-0.69654899 5.80082788 -9.80054896 6.79081407 -19.1875 8.125 C-20.1775 11.095 -21.1675 14.065 -22.1875 17.125 C-22.5175 17.125 -22.8475 17.125 -23.1875 17.125 C-23.5175 14.485 -23.8475 11.845 -24.1875 9.125 C-25.8375 9.455 -27.4875 9.785 -29.1875 10.125 C-29.5175 9.135 -29.8475 8.145 -30.1875 7.125 C-26.94956826 2.2681024 -21.68758598 2.25160794 -16.1875 1.125 C-10.78100143 0.1338086 -5.48977433 0.03145826 0 0 Z " fill="#2D2D2D" transform="translate(147.1875,176.875)"/>
<path d="M0 0 C0.66 0.33 1.32 0.66 2 1 C2 1.33 2 1.66 2 2 C3.47533203 1.7834375 3.47533203 1.7834375 4.98046875 1.5625 C13.48514905 0.3964939 21.84902358 -0.19342973 30.4375 -0.1875 C31.35490967 -0.18814453 32.27231934 -0.18878906 33.2175293 -0.18945312 C39.72907759 -0.1354612 39.72907759 -0.1354612 42 1 C42 26.08 42 51.16 42 77 C41.34 77 40.68 77 40 77 C40.00523682 75.93080322 40.01047363 74.86160645 40.01586914 73.76000977 C40.12105165 50.15027609 39.91051855 26.59356965 39 3 C16.63417336 2.16598333 16.63417336 2.16598333 -5 7 C-5.33 7.66 -5.66 8.32 -6 9 C-6.66 8.67 -7.32 8.34 -8 8 C-7.04578192 6.85073734 -6.08647955 5.70569459 -5.125 4.5625 C-4.59132813 3.92441406 -4.05765625 3.28632813 -3.5078125 2.62890625 C-2 1 -2 1 0 0 Z " fill="#878787" transform="translate(124,175)"/>
<path d="M0 0 C2 2 2 2 2.23377991 4.79272461 C2.22632248 5.98389893 2.21886505 7.17507324 2.21118164 8.40234375 C2.2098674 9.05956924 2.20855316 9.71679474 2.2071991 10.39393616 C2.20068922 12.57526846 2.18023282 14.75625399 2.16015625 16.9375 C2.15388306 18.45767843 2.14864389 19.97786144 2.14439392 21.49804688 C2.13106473 25.51218077 2.1066426 29.52616374 2.07904053 33.54022217 C2.03603085 39.93628529 2.00600861 46.33238269 1.9829998 52.72854614 C1.97287564 54.95182281 1.95580354 57.17496672 1.93800354 59.39819336 C1.89942777 66.08351079 1.98471893 72.6419848 2.87986755 79.27734375 C2.93933311 80.13005859 2.93933311 80.13005859 3 81 C2 82 2 82 -0.28515625 82.09765625 C-2.85677083 82.06510417 -5.42838542 82.03255208 -8 82 C-8 85.3 -8 88.6 -8 92 C-8.33 92 -8.66 92 -9 92 C-9.33 88.7 -9.66 85.4 -10 82 C-26.17 82.33 -42.34 82.66 -59 83 C-58.67 84.32 -58.34 85.64 -58 87 C-61.40062014 85.59284684 -62.89229698 83.97131772 -65 81 C-63.72471436 80.97494385 -62.44942871 80.9498877 -61.13549805 80.92407227 C-56.35872055 80.82918711 -51.58206135 80.72917173 -46.80541992 80.62768555 C-44.746529 80.58464085 -42.68760933 80.5429475 -40.62866211 80.50268555 C-37.65209321 80.44423656 -34.67566504 80.38076614 -31.69921875 80.31640625 C-30.7935466 80.29969376 -29.88787445 80.28298126 -28.95475769 80.26576233 C-23.60208694 80.14445526 -18.32863877 79.79986254 -13.00666809 79.20762634 C-8.68086153 78.90890651 -4.33610839 79 0 79 C0 52.93 0 26.86 0 0 Z " fill="#464646" transform="translate(174,173)"/>
<path d="M0 0 C0.02467759 5.37515933 0.04284928 10.75028585 0.05493164 16.12548828 C0.05996737 17.95492121 0.06679627 19.78435009 0.07543945 21.61376953 C0.08753824 24.23991898 0.09323583 26.86601532 0.09765625 29.4921875 C0.10281754 30.31306854 0.10797882 31.13394958 0.11329651 31.97970581 C0.11387171 37.77225659 0.11387171 37.77225659 -1 40 C-1.85005615 40.02505615 -2.7001123 40.0501123 -3.57592773 40.07592773 C-26.30157401 40.73591711 -26.30157401 40.73591711 -49 42 C-47.515 41.505 -47.515 41.505 -46 41 C-46.0928125 39.8553125 -46.0928125 39.8553125 -46.1875 38.6875 C-46 36 -46 36 -44.5 34.1875 C-43.7575 33.5996875 -43.7575 33.5996875 -43 33 C-43.33 34.98 -43.66 36.96 -44 39 C-42.792229 38.90912109 -42.792229 38.90912109 -41.56005859 38.81640625 C-38.49996066 38.58866174 -35.43956168 38.36562344 -32.37890625 38.14550781 C-30.43203508 38.00414144 -28.48554058 37.85761711 -26.5390625 37.7109375 C-25.27578125 37.62070313 -24.0125 37.53046875 -22.7109375 37.4375 C-21.56931152 37.35371094 -20.42768555 37.26992187 -19.25146484 37.18359375 C-13.17300044 36.9211035 -7.08412941 37 -1 37 C-1 25.12 -1 13.24 -1 1 C-6.445 3.475 -6.445 3.475 -12 6 C-12.66 5.67 -13.32 5.34 -14 5 C-9.10663008 1.62901183 -5.97562839 -0.16150347 0 0 Z " fill="#646464" transform="translate(175,133)"/>
<path d="M0 0 C3.83084349 2.61193874 6.65161815 5.67823629 8.75 9.875 C9.63563587 15.97323559 8.63003967 20.0549405 5.234375 25.1484375 C2.61628311 28.19369175 0.79605163 29.69860698 -3.23828125 30.37890625 C-13.3195771 30.55660242 -13.3195771 30.55660242 -17.4375 27.125 C-20.84515404 23.70871898 -22.53664092 20.4153869 -22.5625 15.5625 C-22.41046651 10.4187004 -21.43064338 6.20929305 -17.80859375 2.33203125 C-12.2528163 -2.26985401 -6.63970759 -2.29836032 0 0 Z M-19.0625 6.625 C-21.63488157 11.49898614 -21.6605267 15.50657767 -20.125 20.625 C-18.01352465 24.28489061 -17.02740757 25.94775124 -13.25 27.875 C-8.28858078 28.68661196 -3.47548685 29.08031461 1.05078125 26.62890625 C4.5469537 23.72628689 6.44436205 21.50549057 6.98828125 16.82421875 C7.16915946 11.31219317 6.53759517 8.17443235 2.75 3.875 C-0.9399827 0.71215769 -4.32853854 0.35507373 -9.03515625 0.51953125 C-13.35032463 1.21208914 -16.01630195 3.68384326 -19.0625 6.625 Z " fill="#3A3A3A" transform="translate(338.25,269.125)"/>
<path d="M0 0 C0.5775 0.3196875 1.155 0.639375 1.75 0.96875 C1.42 1.62875 1.09 2.28875 0.75 2.96875 C-1.26408339 3.17577766 -3.28870585 3.28333823 -5.3125 3.34375 C-13.16610634 3.85930403 -18.22849293 5.46333246 -23.5625 11.34375 C-25.94119228 14.34466152 -27.70676782 17.45361004 -29.25 20.96875 C-31.23 20.96875 -33.21 20.96875 -35.25 20.96875 C-35.25 19.31875 -35.25 17.66875 -35.25 15.96875 C-34.46625 15.88625 -33.6825 15.80375 -32.875 15.71875 C-30.16761828 15.27037561 -30.16761828 15.27037561 -29.25 13.28125 C-28.92 12.518125 -28.59 11.755 -28.25 10.96875 C-22.60386836 2.31134816 -10.18774583 -4.66938351 0 0 Z " fill="#161616" transform="translate(337.25,257.03125)"/>
<path d="M0 0 C0.66 0.33 1.32 0.66 2 1 C1.67 1.66 1.34 2.32 1 3 C1.66 2.67 2.32 2.34 3 2 C4.54023996 1.93049459 6.08334988 1.91547643 7.625 1.9375 C8.85089844 1.95103516 8.85089844 1.95103516 10.1015625 1.96484375 C11.04128906 1.98224609 11.04128906 1.98224609 12 2 C13.48843239 6.99062625 13.48843239 6.99062625 13 10 C10.3678476 12.90154113 7.30200144 14.92220998 4 17 C3.01 17.66 2.02 18.32 1 19 C-2.1875 19.125 -2.1875 19.125 -5 19 C-4.938125 20.423125 -4.938125 20.423125 -4.875 21.875 C-5 25 -5 25 -7 27 C-7.36831081 28.93257855 -7.36831081 28.93257855 -7.4140625 31.1328125 C-7.45273437 31.93847656 -7.49140625 32.74414062 -7.53125 33.57421875 C-7.5621875 34.41597656 -7.593125 35.25773437 -7.625 36.125 C-7.66367187 36.97449219 -7.70234375 37.82398438 -7.7421875 38.69921875 C-7.83656494 40.79911684 -7.91937586 42.89952891 -8 45 C-10.29229946 41.35606579 -10.29910918 38.18238863 -10.3125 33.9375 C-10.32925781 32.70902344 -10.34601562 31.48054688 -10.36328125 30.21484375 C-10 27 -10 27 -8.5390625 25.55078125 C-5.70559081 22.6957349 -6.18666262 18.02469771 -5.91601562 14.15625 C-5.41264699 8.74630833 -3.98326536 3.98326536 0 0 Z M-1 6 C-1.82721617 9.66570303 -1.98726676 13.25006186 -2 17 C3.42054975 15.83086182 6.52364859 14.60105334 10 10 C10.88527109 6.31558496 10.88527109 6.31558496 11 3 C6.16192437 2.65442317 2.83083744 2.8818765 -1 6 Z " fill="#929292" transform="translate(48,233)"/>
<path d="M0 0 C0.33 0 0.66 0 1 0 C1 2.97 1 5.94 1 9 C0.34 9 -0.32 9 -1 9 C-1.309375 9.94875 -1.61875 10.8975 -1.9375 11.875 C-3 15 -3 15 -4 17 C-4.66 17 -5.32 17 -6 17 C-6 17.66 -6 18.32 -6 19 C-13.90666707 23.37307018 -21.40567689 24.44826584 -30.1875 22 C-31.115625 21.67 -32.04375 21.34 -33 21 C-27.053928 24.03910346 -21.63093294 24.65226572 -15 25 C-15 25.33 -15 25.66 -15 26 C-26.26308322 26.60973082 -31.37294723 25.31992357 -40 18 C-39.67 17.34 -39.34 16.68 -39 16 C-37.515 16.99 -37.515 16.99 -36 18 C-35.67 17.34 -35.34 16.68 -35 16 C-33.9790625 16.433125 -33.9790625 16.433125 -32.9375 16.875 C-26.01327395 19.52683125 -20.28288922 20.95727648 -13 19 C-8.15565678 16.41416814 -4.19319584 13.11745696 -2 8 C-1.22051817 5.34380396 -0.59653439 2.7073484 0 0 Z " fill="#1E1E1E" transform="translate(110,282)"/>
<path d="M0 0 C1.32 0 2.64 0 4 0 C4 0.99 4 1.98 4 3 C5.65 3 7.3 3 9 3 C10.58614781 6.46969834 11.50345255 9.1737606 11 13 C9.8125 14.8125 9.8125 14.8125 8 16 C5.17096202 16.4243557 3.69026412 16.48318489 1.3203125 14.82421875 C-0.56728941 12.21620072 -0.06747291 10.57237882 0.375 7.4375 C1.06930757 3.58187683 1.06930757 3.58187683 0 0 Z M6 0 C8.875 -0.1875 8.875 -0.1875 12 0 C12.66 0.99 13.32 1.98 14 3 C11.36 2.67 8.72 2.34 6 2 C6 1.34 6 0.68 6 0 Z " fill="#0D0D0D" transform="translate(84,273)"/>
<path d="M0 0 C19.25473111 -0.59550715 19.25473111 -0.59550715 26 5 C23.69 5 21.38 5 19 5 C19 5.66 19 6.32 19 7 C17.85402344 7.12117188 16.70804687 7.24234375 15.52734375 7.3671875 C13.99736094 7.53614266 12.46741493 7.70543127 10.9375 7.875 C10.18533203 7.95363281 9.43316406 8.03226562 8.65820312 8.11328125 C3.91665343 8.64696217 -0.40674486 9.66194036 -5 11 C-6.32 11 -7.64 11 -9 11 C-9 10.34 -9 9.68 -9 9 C-9.60328125 8.80664062 -10.2065625 8.61328125 -10.828125 8.4140625 C-11.62734375 8.15367187 -12.4265625 7.89328125 -13.25 7.625 C-14.03890625 7.36976563 -14.8278125 7.11453125 -15.640625 6.8515625 C-17.86627958 6.04826333 -19.90931672 5.10288338 -22 4 C-19 3 -19 3 -16.1875 4.375 C-15.135625 4.91125 -14.08375 5.4475 -13 6 C-9.7633037 6.70758326 -9.7633037 6.70758326 -7 7 C-7 7.66 -7 8.32 -7 9 C-6.10796875 8.72285156 -5.2159375 8.44570313 -4.296875 8.16015625 C-3.12640625 7.79792969 -1.9559375 7.43570312 -0.75 7.0625 C0.41015625 6.70285156 1.5703125 6.34320313 2.765625 5.97265625 C6.75821471 4.77198616 10.0730305 3.86788384 14.25 3.9375 C16.10625 3.9684375 16.10625 3.9684375 18 4 C18 3.34 18 2.68 18 2 C16.95199219 2.02320313 15.90398437 2.04640625 14.82421875 2.0703125 C13.44531963 2.08907303 12.0664128 2.10727293 10.6875 2.125 C9.65206055 2.15013672 9.65206055 2.15013672 8.59570312 2.17578125 C4.82864604 2.21217794 3.21568296 2.14378864 0 0 Z " fill="#242424" transform="translate(425,282)"/>
<path d="M0 0 C0.66 0 1.32 0 2 0 C2.66 2.31 3.32 4.62 4 7 C4.66 6.01 5.32 5.02 6 4 C6.5775 4.928125 7.155 5.85625 7.75 6.8125 C10.3280752 10.4647732 12.11432987 12.62572305 16.578125 13.51171875 C17.90070313 13.59873047 17.90070313 13.59873047 19.25 13.6875 C20.58804687 13.78611328 20.58804687 13.78611328 21.953125 13.88671875 C22.62859375 13.92410156 23.3040625 13.96148437 24 14 C24 14.33 24 14.66 24 15 C23.39671875 15.02578125 22.7934375 15.0515625 22.171875 15.078125 C16.89464661 15.40331983 16.89464661 15.40331983 12.4375 18.0625 C11.963125 18.701875 11.48875 19.34125 11 20 C11.66 20.66 12.32 21.32 13 22 C8.8275894 21.48118887 6.74583179 20.28848726 3.6875 17.4375 C2.64142578 16.47650391 2.64142578 16.47650391 1.57421875 15.49609375 C1.05472656 15.00238281 0.53523438 14.50867188 0 14 C0.33 13.34 0.66 12.68 1 12 C2.485 12.99 2.485 12.99 4 14 C3.71125 13.40832031 3.4225 12.81664062 3.125 12.20703125 C-0.56239016 4.35852373 -0.56239016 4.35852373 0 0 Z " fill="#121212" transform="translate(311,285)"/>
<path d="M0 0 C2 4 2 4 1 11 C-13.85 11 -28.7 11 -44 11 C-43.02366535 12.19571386 -43.02366535 12.19571386 -41.20933533 12.12025452 C-40.42990067 12.11803391 -39.650466 12.11581329 -38.84741211 12.11352539 C-37.96657455 12.11344986 -37.085737 12.11337433 -36.1782074 12.11329651 C-34.74227989 12.10555458 -34.74227989 12.10555458 -33.27734375 12.09765625 C-32.30213272 12.0962413 -31.32692169 12.09482635 -30.32215881 12.09336853 C-27.19390857 12.08775133 -24.06572877 12.07519593 -20.9375 12.0625 C-18.82226666 12.05748722 -16.70703219 12.05292393 -14.59179688 12.04882812 C-9.39450704 12.03777631 -4.19725855 12.02102146 1 12 C1 12.33 1 12.66 1 13 C-19.79 13.495 -19.79 13.495 -41 14 C-40.67 15.98 -40.34 17.96 -40 20 C-40.99 20 -41.98 20 -43 20 C-43.83739781 17.8765984 -44.66980283 15.7512272 -45.5 13.625 C-46.19609375 11.84996094 -46.19609375 11.84996094 -46.90625 10.0390625 C-48 7 -48 7 -48 5 C-45 6 -45 6 -43 9 C-41.07097172 9.47393562 -41.07097172 9.47393562 -38.82568359 9.43237305 C-37.53457169 9.46206429 -37.53457169 9.46206429 -36.21737671 9.49235535 C-35.28712677 9.49874527 -34.35687683 9.50513519 -33.3984375 9.51171875 C-31.97103745 9.53864555 -31.97103745 9.53864555 -30.51480103 9.56611633 C-27.4682461 9.62040249 -24.42184943 9.65417359 -21.375 9.6875 C-19.31247788 9.72065692 -17.24997671 9.75514504 -15.1875 9.79101562 C-10.1251139 9.87613944 -5.06277622 9.94286304 0 10 C0 6.7 0 3.4 0 0 Z " fill="#303030" transform="translate(163,255)"/>
<path d="M0 0 C0.56847656 0.32355469 1.13695313 0.64710938 1.72265625 0.98046875 C-1.30465875 1.98957375 -2.96239749 1.97071915 -6.08984375 1.79296875 C-10.94852902 1.74331795 -13.57635736 2.64958099 -17.27734375 5.98046875 C-19.83207506 10.1913707 -19.96857551 14.1751588 -19.27734375 18.98046875 C-17.27233495 22.78307165 -15.85048113 24.59837716 -12.27734375 26.98046875 C-6.01557572 27.73738576 -0.68341492 27.48710951 4.72265625 23.98046875 C3.78816828 26.31668866 3.15391555 27.70182404 1.01171875 29.0859375 C-3.57721758 30.8792249 -8.45208627 30.60704168 -13.27734375 29.98046875 C-16.98194138 28.30440808 -18.88303563 25.55878732 -21.15234375 22.23046875 C-22.6284752 17.966089 -23.21000147 14.4331572 -22.27734375 9.98046875 C-17.78966995 1.36413506 -9.70052057 -4.34277164 0 0 Z " fill="#343434" transform="translate(96.27734375,269.01953125)"/>
<path d="M0 0 C3.8456351 4.24136008 3.36311351 7.83895645 3.2265625 13.33203125 C2.23713733 29.35048356 2.23713733 29.35048356 -2 35 C-2 25.1 -2 15.2 -2 5 C-3.98 5.99 -3.98 5.99 -6 7 C-4.02 4.69 -2.04 2.38 0 0 Z " fill="#878787" transform="translate(123,185)"/>
<path d="M0 0 C5.41320318 0.3383252 9.09619913 3.51960487 13 7 C18.19980445 13.54168948 17.59086688 23.01811412 17 31 C15.94746416 35.89247693 14.42482423 40.24900204 11 44 C10.01 43.67 9.02 43.34 8 43 C8.8971875 41.9790625 8.8971875 41.9790625 9.8125 40.9375 C12.23587643 37.68325166 13.5252401 34.76063775 15 31 C14.34 31 13.68 31 13 31 C13.33 30.34 13.66 29.68 14 29 C14.66 29.33 15.32 29.66 16 30 C15.71512349 27.95737483 15.42177949 25.91592973 15.125 23.875 C14.88136719 22.16957031 14.88136719 22.16957031 14.6328125 20.4296875 C14.02568583 17.13921085 13.13654367 14.14220897 12 11 C11.34 11 10.68 11 10 11 C8.33333333 9.33333333 6.66666667 7.66666667 5 6 C4.071875 5.46375 3.14375 4.9275 2.1875 4.375 C1.465625 3.92125 0.74375 3.4675 0 3 C0 2.01 0 1.02 0 0 Z " fill="#1C1C1C" transform="translate(339,258)"/>
<path d="M0 0 C1.98 0.33 3.96 0.66 6 1 C5.67 2.65 5.34 4.3 5 6 C1.35383329 5.86183041 -2.29183074 5.71318466 -5.9375 5.5625 C-6.97841797 5.52318359 -8.01933594 5.48386719 -9.09179688 5.44335938 C-10.08115234 5.40146484 -11.07050781 5.35957031 -12.08984375 5.31640625 C-13.00628662 5.27974854 -13.92272949 5.24309082 -14.86694336 5.20532227 C-17 5 -17 5 -18 4 C-19.33802186 3.77486899 -20.68573023 3.60639193 -22.03515625 3.46484375 C-22.84404297 3.37783203 -23.65292969 3.29082031 -24.48632812 3.20117188 C-25.33646484 3.11416016 -26.18660156 3.02714844 -27.0625 2.9375 C-27.91650391 2.84662109 -28.77050781 2.75574219 -29.65039062 2.66210938 C-31.76651535 2.43749278 -33.88320894 2.21824773 -36 2 C-36 1.67 -36 1.34 -36 1 C-26.96883712 0.89444095 -18.08949196 1.01276859 -9.0859375 1.87890625 C-5.90283388 2.00381285 -3.11473765 1.63136574 0 1 C0 0.67 0 0.34 0 0 Z " fill="#141414" transform="translate(555,290)"/>
<path d="M0 0 C3.43742918 -0.05802698 6.87473253 -0.09360486 10.3125 -0.125 C11.28896484 -0.14175781 12.26542969 -0.15851563 13.27148438 -0.17578125 C14.20927734 -0.18222656 15.14707031 -0.18867188 16.11328125 -0.1953125 C16.97735596 -0.20578613 17.84143066 -0.21625977 18.73168945 -0.22705078 C21 0 21 0 24 2 C26.45029068 2.27319333 28.91215009 2.44879278 31.375 2.5625 C35.68868818 2.77095239 39.78903256 3.01635703 44 4 C44.33 3.01 44.66 2.02 45 1 C45 2.32 45 3.64 45 5 C34.44612524 5.24261781 24.0259616 4.90384927 13.5 4.0625 C11.8439978 3.93222412 11.8439978 3.93222412 10.15454102 3.79931641 C2.26388962 3.13194481 2.26388962 3.13194481 0 2 C0 1.34 0 0.68 0 0 Z " fill="#242424" transform="translate(256,272)"/>
<path d="M0 0 C0 0.33 0 0.66 0 1 C-2.97 1 -5.94 1 -9 1 C-9.33 1.66 -9.66 2.32 -10 3 C-11.29550781 2.97679687 -12.59101563 2.95359375 -13.92578125 2.9296875 C-26.10209894 2.78216562 -37.9238068 3.45424727 -50 5 C-48 2 -48 2 -45.17578125 1.26953125 C-30.15720775 -0.50718574 -15.09845499 -0.18602968 0 0 Z " fill="#1C1C1C" transform="translate(174,173)"/>
<path d="M0 0 C0.33 0 0.66 0 1 0 C1.33 1.65 1.66 3.3 2 5 C2.66 5 3.32 5 4 5 C3.8125 7.375 3.8125 7.375 3 10 C0.4375 11.3125 0.4375 11.3125 -2 12 C-1.979375 12.804375 -1.95875 13.60875 -1.9375 14.4375 C-2 17 -2 17 -3 18 C-5.01964199 18.07244053 -7.04167124 18.08377188 -9.0625 18.0625 C-10.71958984 18.04896484 -10.71958984 18.04896484 -12.41015625 18.03515625 C-13.26480469 18.02355469 -14.11945313 18.01195312 -15 18 C-15.66 16.68 -16.32 15.36 -17 14 C-16.34 13.34 -15.68 12.68 -15 12 C-14.01 13.485 -14.01 13.485 -13 15 C-10.41619823 15.25030977 -10.41619823 15.25030977 -8 15 C-8 14.01 -8 13.02 -8 12 C-2.7265625 8.77734375 -2.7265625 8.77734375 -1 8 C-0.34 8.33 0.32 8.66 1 9 C1 8.01 1 7.02 1 6 C0.34 6 -0.32 6 -1 6 C-1.042721 4.33388095 -1.04063832 2.66617115 -1 1 C-0.67 0.67 -0.34 0.34 0 0 Z " fill="#232323" transform="translate(340,279)"/>
<path d="M0 0 C0.33 0.66 0.66 1.32 1 2 C0.22265625 3.7265625 0.22265625 3.7265625 -0.9375 5.625 C-1.618125 6.73875 -2.29875 7.8525 -3 9 C-1.68 7.68 -0.36 6.36 1 5 C-0.40617467 9.47419214 -2.72845797 11.72845797 -6 15 C-6 15.99 -6 16.98 -6 18 C-6.66 18 -7.32 18 -8 18 C-8 17.01 -8 16.02 -8 15 C-8.66 15 -9.32 15 -10 15 C-10.33 16.32 -10.66 17.64 -11 19 C-11.66 16.36 -12.32 13.72 -13 11 C-12.2575 10.608125 -11.515 10.21625 -10.75 9.8125 C-7.77930053 7.85453898 -6.16601185 5.79485399 -4 3 C-1.75 1.1875 -1.75 1.1875 0 0 Z " fill="#171717" transform="translate(97,207)"/>
<path d="M0 0 C2.375 -0.125 2.375 -0.125 5 0 C5.66 0.66 6.32 1.32 7 2 C7.99 1.67 8.98 1.34 10 1 C9.67 3.64 9.34 6.28 9 9 C9.66 9 10.32 9 11 9 C11 9.99 11 10.98 11 12 C10.443125 12.12375 9.88625 12.2475 9.3125 12.375 C6.77885636 13.05976855 4.42078968 13.99133763 2 15 C2.33 16.32 2.66 17.64 3 19 C1.35 19 -0.3 19 -2 19 C-2.12375 18.195625 -2.2475 17.39125 -2.375 16.5625 C-2.684375 15.2940625 -2.684375 15.2940625 -3 14 C-3.66 13.67 -4.32 13.34 -5 13 C-5 12.34 -5 11.68 -5 11 C-4.01 11.33 -3.02 11.66 -2 12 C0.33299825 12.03954234 2.66708189 12.04401732 5 12 C5.72256829 7.51866426 5.72256829 7.51866426 6 3 C3.69 2.67 1.38 2.34 -1 2 C-0.67 1.34 -0.34 0.68 0 0 Z " fill="#0A0A0A" transform="translate(330,276)"/>
<path d="M0 0 C2.19186097 2.19186097 2.53181928 3.33358668 3.375 6.25 C5.74610735 13.57460883 9.38285732 18.14639719 16 22 C19.46712111 23.15570704 22.5414956 23.32835293 26.1875 23.5625 C28.09595703 23.68818359 28.09595703 23.68818359 30.04296875 23.81640625 C31.01878906 23.87699219 31.99460938 23.93757813 33 24 C28.24829736 26.63284186 23.86285861 26.65368605 18.65625 25.46484375 C14.06892034 24.0657082 10.45491538 22.45491538 7 19 C7 18.34 7 17.68 7 17 C6.34 17 5.68 17 5 17 C2.17175651 11.93547096 0.71319721 7.8244439 0 2 C-0.66 1.67 -1.32 1.34 -2 1 C-1.34 0.67 -0.68 0.34 0 0 Z " fill="#010101" transform="translate(63,284)"/>
<path d="M0 0 C0 3 0 3 -0.9609375 5.6328125 C-2.23396044 9.75817256 -2.45045651 13.58413915 -2.625 17.875 C-2.66367188 18.65875 -2.70234375 19.4425 -2.7421875 20.25 C-2.83566622 22.16631367 -2.91888495 24.08312319 -3 26 C-3.309375 25.360625 -3.61875 24.72125 -3.9375 24.0625 C-4.8345163 22.06389179 -4.8345163 22.06389179 -6 21 C-9.49857882 20.96794496 -12.98698987 21.06869743 -16.484375 21.16015625 C-19.84805548 21.00692192 -22.00098999 20.45944189 -25 19 C-21.98968256 18.06576355 -21.13349732 17.95550089 -18 19 C-15.93854893 19.068991 -13.87498599 19.08467727 -11.8125 19.0625 C-10.72582031 19.05347656 -9.63914062 19.04445313 -8.51953125 19.03515625 C-7.68808594 19.02355469 -6.85664062 19.01195312 -6 19 C-5.98582031 18.29875 -5.97164062 17.5975 -5.95703125 16.875 C-5.6088896 9.949804 -4.26051492 5.48678858 0 0 Z M-4 9 C-3 11 -3 11 -3 11 Z " fill="#757575" transform="translate(69,264)"/>
<path d="M0 0 C0.66 0.33 1.32 0.66 2 1 C-3.75 6 -3.75 6 -6 6 C-6.22816406 6.55300781 -6.45632812 7.10601562 -6.69140625 7.67578125 C-8.37542889 10.66680654 -10.50543242 12.76971769 -12.9375 15.1875 C-13.81277344 16.06792969 -14.68804687 16.94835937 -15.58984375 17.85546875 C-18 20 -18 20 -21 21 C-22.21869929 23.50447516 -22.21869929 23.50447516 -23 26 C-23.66 26 -24.32 26 -25 26 C-23.66338984 20.51989834 -21.09989344 16.77754309 -17 13 C-15.35202764 12.28837557 -13.68834592 11.60968047 -12 11 C-11.72929687 10.40058594 -11.45859375 9.80117187 -11.1796875 9.18359375 C-9.60515604 6.26914644 -7.61519391 5.07679594 -4.875 3.25 C-3.96492188 2.63640625 -3.05484375 2.0228125 -2.1171875 1.390625 C-1.41851562 0.93171875 -0.71984375 0.4728125 0 0 Z " fill="#797979" transform="translate(157,140)"/>
<path d="M0 0 C0.33 0.66 0.66 1.32 1 2 C1.99 2.33 2.98 2.66 4 3 C2.71073008 3.36279456 1.41846728 3.71496698 0.125 4.0625 C-0.59429687 4.25972656 -1.31359375 4.45695312 -2.0546875 4.66015625 C-4 5 -4 5 -6 4 C-5.67 4.99 -5.34 5.98 -5 7 C-4.87218214 9.67394964 -4.95608129 12.32095857 -5 15 C-5.99 15 -6.98 15 -8 15 C-8.33 15.66 -8.66 16.32 -9 17 C-10.74034499 13.51931002 -10.58371457 9.79742402 -10 6 C-7.60355847 2.71345162 -6.09463435 1.3162277 -2.1875 0.1875 C-1.465625 0.125625 -0.74375 0.06375 0 0 Z " fill="#2B2B2B" transform="translate(329,273)"/>
<path d="M0 0 C2.475 0.495 2.475 0.495 5 1 C5.04898437 2.27617187 5.09796875 3.55234375 5.1484375 4.8671875 C5.22346191 6.53648072 5.29900988 8.20575046 5.375 9.875 C5.4059375 10.71675781 5.436875 11.55851562 5.46875 12.42578125 C5.50742187 13.23144531 5.54609375 14.03710938 5.5859375 14.8671875 C5.6173584 15.61081543 5.6487793 16.35444336 5.68115234 17.12060547 C5.85419551 19.24010974 5.85419551 19.24010974 8 21 C4.86650268 22.04449911 4.01031744 21.93423645 1 21 C1.01160156 19.90300781 1.02320313 18.80601562 1.03515625 17.67578125 C1.04453964 16.22135588 1.05363925 14.76692865 1.0625 13.3125 C1.07087891 12.59126953 1.07925781 11.87003906 1.08789062 11.12695312 C1.10543632 7.28444618 0.93524221 3.73360474 0 0 Z " fill="#010101" transform="translate(354,272)"/>
<path d="M0 0 C5.69101796 3.6754491 5.69101796 3.6754491 6.50390625 7.16015625 C6.62086571 11.83073754 6.11175836 15.33257051 3 19 C0.8125 20.3125 0.8125 20.3125 -1 21 C-1.625 19.125 -1.625 19.125 -2 17 C-1.34 16.34 -0.68 15.68 0 15 C1.32 15 2.64 15 4 15 C3.43697449 12.56022281 2.74517329 10.25050967 1.9375 7.875 C1 5 1 5 1 3 C0.34 3 -0.32 3 -1 3 C-1.33 3.66 -1.66 4.32 -2 5 C-2.33 4.01 -2.66 3.02 -3 2 C-2.01 1.34 -1.02 0.68 0 0 Z " fill="#222222" transform="translate(339,274)"/>
<path d="M0 0 C4.875 0.875 4.875 0.875 6 2 C6.1875 4.4375 6.1875 4.4375 6 7 C5.34 7.66 4.68 8.32 4 9 C1.375 8.625 1.375 8.625 -1 8 C-1.625 5.6875 -1.625 5.6875 -2 3 C-1.34 2.01 -0.68 1.02 0 0 Z " fill="#060606" transform="translate(329,279)"/>
<path d="M0 0 C4.60353655 0.09637033 7.20178509 1.34603606 10.75 4.375 C11.74 5.86 11.74 5.86 12.75 7.375 C12.42 8.365 12.09 9.355 11.75 10.375 C10.76 8.725 9.77 7.075 8.75 5.375 C7.6671875 5.931875 7.6671875 5.931875 6.5625 6.5 C3.14011689 7.56474141 1.86771927 6.97839848 -1.25 5.375 C-1.25 4.715 -1.25 4.055 -1.25 3.375 C-0.26 3.045 0.73 2.715 1.75 2.375 C-0.89 2.375 -3.53 2.375 -6.25 2.375 C-3.87839852 0.00339852 -3.24378878 0.05516648 0 0 Z " fill="#141414" transform="translate(331.25,269.625)"/>
<path d="M0 0 C0.66 0.33 1.32 0.66 2 1 C1.67 1.66 1.34 2.32 1 3 C1.66 2.67 2.32 2.34 3 2 C4.54023996 1.93049459 6.08334988 1.91547643 7.625 1.9375 C8.85089844 1.95103516 8.85089844 1.95103516 10.1015625 1.96484375 C11.04128906 1.98224609 11.04128906 1.98224609 12 2 C13.32124352 7.10880829 13.32124352 7.10880829 13 10 C11.00096668 12.50140818 8.66398829 14.24615235 6 16 C5.34 15.67 4.68 15.34 4 15 C4.78375 14.319375 5.5675 13.63875 6.375 12.9375 C9.45850521 9.48691084 10.04357515 7.43433338 11 3 C5.31953056 3.94055703 1.27575688 4.86217076 -3 9 C-2.25 2.25 -2.25 2.25 0 0 Z " fill="#A0A0A0" transform="translate(48,233)"/>
<path d="M0 0 C2.97922593 -0.02683987 5.95821295 -0.04676037 8.9375 -0.0625 C9.78763672 -0.07087891 10.63777344 -0.07925781 11.51367188 -0.08789062 C12.32255859 -0.09111328 13.13144531 -0.09433594 13.96484375 -0.09765625 C14.7137085 -0.10289307 15.46257324 -0.10812988 16.23413086 -0.11352539 C18 0 18 0 19 1 C19.37297911 2.76290907 19.69880466 4.53591812 20 6.3125 C20.55850516 9.58062786 21.14737523 12.7950444 22 16 C18.88979866 13.45528982 17.99866974 10.84103748 17 7 C16.96860461 5.33362906 16.96328575 3.66626224 17 2 C16.35933594 2.01160156 15.71867187 2.02320313 15.05859375 2.03515625 C9.91346778 2.08883119 5.06975076 1.88169578 0 1 C0 0.67 0 0.34 0 0 Z " fill="#1C1C1C" transform="translate(289,281)"/>
<path d="M0 0 C5.75 -0.125 5.75 -0.125 8 1 C8.04254356 2.99954746 8.04080783 5.00041636 8 7 C6.11940967 8.88059033 3.50109962 8.12361218 1.0078125 8.1328125 C-1 8 -1 8 -4 7 C-3.6875 5.0625 -3.6875 5.0625 -3 3 C-2.01 2.67 -1.02 2.34 0 2 C0 1.34 0 0.68 0 0 Z M3 1 C2.01 1.66 1.02 2.32 0 3 C2.31 3 4.62 3 7 3 C5.68 2.34 4.36 1.68 3 1 Z M0 6 C0 6.33 0 6.66 0 7 C2.31 7 4.62 7 7 7 C7 6.67 7 6.34 7 6 C4.69 6 2.38 6 0 6 Z " fill="#777777" transform="translate(148,223)"/>
<path d="M0 0 C1.125 3.75 1.125 3.75 0 6 C6.93 6 13.86 6 21 6 C21 6.33 21 6.66 21 7 C8.13 7.99 8.13 7.99 -5 9 C-4.01 8.67 -3.02 8.34 -2 8 C-2.04125 7.236875 -2.0825 6.47375 -2.125 5.6875 C-2 3 -2 3 0 0 Z " fill="#878787" transform="translate(131,166)"/>
<path d="M0 0 C0.99 0 1.98 0 3 0 C3 2.31 3 4.62 3 7 C7.62 7 12.24 7 17 7 C17 7.33 17 7.66 17 8 C3.00443459 9.49002217 3.00443459 9.49002217 -4 9 C-5 8 -5 8 -5.0625 5.4375 C-5.041875 4.633125 -5.02125 3.82875 -5 3 C-4.67 4.32 -4.34 5.64 -4 7 C-2.68 6.67 -1.36 6.34 0 6 C0 4.02 0 2.04 0 0 Z " fill="#1E1E1E" transform="translate(121,276)"/>
<path d="M0 0 C0.33 0 0.66 0 1 0 C1.43489791 5.30575444 1.43489791 5.30575444 1 8 C-1.3125 10.0625 -1.3125 10.0625 -4 11 C-4.99 10.67 -5.98 10.34 -7 10 C-7.33 8.35 -7.66 6.7 -8 5 C-5.36 4.34 -2.72 3.68 0 3 C0 2.01 0 1.02 0 0 Z " fill="#131313" transform="translate(419,262)"/>
<path d="M0 0 C0.66 0.33 1.32 0.66 2 1 C2 1.33 2 1.66 2 2 C2.77085938 1.90460938 3.54171875 1.80921875 4.3359375 1.7109375 C5.33882812 1.60007813 6.34171875 1.48921875 7.375 1.375 C8.37273437 1.25898438 9.37046875 1.14296875 10.3984375 1.0234375 C11.25695312 1.01570312 12.11546875 1.00796875 13 1 C13.66 1.66 14.32 2.32 15 3 C14.05898437 3.12117187 13.11796875 3.24234375 12.1484375 3.3671875 C10.28058594 3.61855469 10.28058594 3.61855469 8.375 3.875 C6.53035156 4.11863281 6.53035156 4.11863281 4.6484375 4.3671875 C1.23887239 4.95856817 -1.79494002 5.70065136 -5 7 C-5.33 7.66 -5.66 8.32 -6 9 C-6.66 8.67 -7.32 8.34 -8 8 C-7.04578192 6.85073734 -6.08647955 5.70569459 -5.125 4.5625 C-4.59132813 3.92441406 -4.05765625 3.28632813 -3.5078125 2.62890625 C-2 1 -2 1 0 0 Z " fill="#848484" transform="translate(124,175)"/>
<path d="M0 0 C1.25 6.625 1.25 6.625 -1 10 C-4.5 10.3125 -4.5 10.3125 -8 10 C-10 8 -10 8 -10.3125 4.5 C-10.209375 3.345 -10.10625 2.19 -10 1 C-6.1496895 -1.56687367 -4.41430237 -0.83288724 0 0 Z M-7 0 C-9.33391203 2.78114056 -9.33391203 2.78114056 -8.625 5.6875 C-8.41875 6.450625 -8.2125 7.21375 -8 8 C-5.60280568 8.67958603 -5.60280568 8.67958603 -3 9 C-0.7508092 7.17296773 -0.7508092 7.17296773 -0.75 4.5 C-0.7508092 1.82703227 -0.7508092 1.82703227 -3 0 C-4.32 0 -5.64 0 -7 0 Z " fill="#1E1E1E" transform="translate(336,279)"/>
<path d="M0 0 C0.97582031 0.10183594 1.95164062 0.20367187 2.95703125 0.30859375 C3.69308594 0.39238281 4.42914063 0.47617188 5.1875 0.5625 C5.1875 0.8925 5.1875 1.2225 5.1875 1.5625 C4.50945312 1.58828125 3.83140625 1.6140625 3.1328125 1.640625 C-5.80949848 2.18558578 -13.31976273 4.56734182 -20.8125 9.5625 C-19.43271122 6.24393108 -18.06337603 4.73176903 -15 2.875 C-14.00033203 2.25044922 -14.00033203 2.25044922 -12.98046875 1.61328125 C-8.58713073 -0.5161024 -4.79018385 -0.51941753 0 0 Z " fill="#757575" transform="translate(87.8125,246.4375)"/>
<path d="M0 0 C0.99 0 1.98 0 3 0 C3.85298376 3.67387495 4.10789471 7.0447393 4.0625 10.8125 C4.05347656 11.78832031 4.04445313 12.76414062 4.03515625 13.76953125 C4.02355469 14.50558594 4.01195312 15.24164063 4 16 C2.68 16 1.36 16 0 16 C0 10.72 0 5.44 0 0 Z " fill="#1C1C1C" transform="translate(359,275)"/>
<path d="M0 0 C2.05078125 0.03255208 4.1015625 0.06510417 6.15234375 0.09765625 C6.48234375 1.41765625 6.81234375 2.73765625 7.15234375 4.09765625 C4.95426905 5.43220161 3.62620772 6.1255306 1.02734375 5.97265625 C-1.42279325 4.82925898 -1.89198242 3.56648031 -2.84765625 1.09765625 C-1.84765625 0.09765625 -1.84765625 0.09765625 0 0 Z " fill="#151515" transform="translate(399.84765625,271.90234375)"/>
<path d="M0 0 C0.66 0.33 1.32 0.66 2 1 C1.50628906 1.39832031 1.01257813 1.79664063 0.50390625 2.20703125 C-0.13675781 2.73683594 -0.77742188 3.26664062 -1.4375 3.8125 C-2.07558594 4.33457031 -2.71367188 4.85664063 -3.37109375 5.39453125 C-5.2548275 7.00834411 -5.2548275 7.00834411 -6 10 C-9.5625 11.6875 -9.5625 11.6875 -13 13 C-11.65157445 7.43774461 -7.43310121 4.26557159 -3 1 C-2.01 0.67 -1.02 0.34 0 0 Z " fill="#5C5C5C" transform="translate(80,260)"/>
<path d="M0 0 C0.33 0 0.66 0 1 0 C1.33 1.65 1.66 3.3 2 5 C2.66 5 3.32 5 4 5 C3.8125 7.375 3.8125 7.375 3 10 C0.4375 11.3125 0.4375 11.3125 -2 12 C-2 13.32 -2 14.64 -2 16 C-3.32 16.33 -4.64 16.66 -6 17 C-4.375 10.25 -4.375 10.25 -1 8 C-0.34 8.33 0.32 8.66 1 9 C1 8.01 1 7.02 1 6 C0.34 6 -0.32 6 -1 6 C-1.042721 4.33388095 -1.04063832 2.66617115 -1 1 C-0.67 0.67 -0.34 0.34 0 0 Z " fill="#343434" transform="translate(340,279)"/>
<path d="M0 0 C1.32 0.66 2.64 1.32 4 2 C3.8125 3.8125 3.8125 3.8125 3 6 C0.4375 7.75 0.4375 7.75 -2 9 C-2.33 8.67 -2.66 8.34 -3 8 C-3.66 8.99 -4.32 9.98 -5 11 C-4.54663921 6.12637153 -3.2910841 3.60957611 0 0 Z " fill="#333333" transform="translate(82,273)"/>
<path d="M0 0 C0.66 0 1.32 0 2 0 C2.21914063 0.73605469 2.43828125 1.47210938 2.6640625 2.23046875 C4.73387928 8.59978297 6.36279233 12.28456767 12 16 C10.68 16.33 9.36 16.66 8 17 C7.03760548 15.75312408 6.08025991 14.50235031 5.125 13.25 C4.59132813 12.55390625 4.05765625 11.8578125 3.5078125 11.140625 C0.79017004 7.28241758 -0.26442006 4.75956102 0 0 Z " fill="#1C1C1C" transform="translate(311,285)"/>
<path d="M0 0 C2.66666667 1.33333333 5.33333333 2.66666667 8 4 C7.67 4.33 7.34 4.66 7 5 C12.946072 8.03910346 18.36906706 8.65226572 25 9 C25 9.33 25 9.66 25 10 C11.32071061 10.74053296 11.32071061 10.74053296 5 6 C4.030625 5.29875 3.06125 4.5975 2.0625 3.875 C1.381875 3.25625 0.70125 2.6375 0 2 C0 1.34 0 0.68 0 0 Z " fill="#1A1A1A" transform="translate(70,298)"/>
<path d="M0 0 C0.66 0 1.32 0 2 0 C2 4.95 2 9.9 2 15 C1.34 14.67 0.68 14.34 0 14 C0 11.36 0 8.72 0 6 C-1.32 5.67 -2.64 5.34 -4 5 C-2.71937515 3.2925002 -1.38232443 1.62626404 0 0 Z " fill="#0B0B0B" transform="translate(102,206)"/>
<path d="M0 0 C2.875 -0.1875 2.875 -0.1875 6 0 C6.66 0.99 7.32 1.98 8 3 C5.36 2.67 2.72 2.34 0 2 C0 1.34 0 0.68 0 0 Z M0 3 C2.1875 3.3125 2.1875 3.3125 4 4 C4.33 6.64 4.66 9.28 5 12 C3 9 3 9 2 7 C-0.52733235 6.34444881 -0.52733235 6.34444881 -3 6 C-1.75 4.4375 -1.75 4.4375 0 3 Z " fill="#131313" transform="translate(90,273)"/>
<path d="M0 0 C0 3 0 3 -0.9375 5.75 C-2.12517257 9.02234641 -2.12517257 9.02234641 -2.4375 12.6875 C-3.03289355 16.19370648 -3.47396473 16.77035287 -6 19 C-5.8448889 11.32905095 -4.74699201 6.11328491 0 0 Z M-4 9 C-3 11 -3 11 -3 11 Z " fill="#9F9F9F" transform="translate(69,264)"/>
<path d="M0 0 C1.11375 0.9590625 1.11375 0.9590625 2.25 1.9375 C6.91780563 5.12829467 12.52688507 4.82287654 18 5 C17.67 5.66 17.34 6.32 17 7 C6.25041426 7.86073195 6.25041426 7.86073195 2.3125 4.625 C0 2 0 2 0 0 Z " fill="#414040" transform="translate(319,292)"/>
<path d="M0 0 C0.66 0 1.32 0 2 0 C2 0.99 2 1.98 2 3 C9.425 1.515 9.425 1.515 17 0 C16.67 0.66 16.34 1.32 16 2 C14.68 2 13.36 2 12 2 C12 2.66 12 3.32 12 4 C8.32589215 5.17571451 4.83070817 5.07366746 1 5 C0.67 3.35 0.34 1.7 0 0 Z " fill="#777777" transform="translate(87,222)"/>
<path d="M0 0 C0 0.66 0 1.32 0 2 C-2.58252893 2.50449402 -5.16588703 3.00374301 -7.75 3.5 C-8.84441406 3.71462891 -8.84441406 3.71462891 -9.9609375 3.93359375 C-13.39343532 4.58888879 -16.49169491 5 -20 5 C-20.33 5.99 -20.66 6.98 -21 8 C-21.33 6.68 -21.66 5.36 -22 4 C-17.66307863 2.41332145 -13.57486732 1.58225584 -9 1 C-8.113125 0.814375 -7.22625 0.62875 -6.3125 0.4375 C-4 0 -4 0 0 0 Z " fill="#9F9F9F" transform="translate(121,220)"/>
<path d="M0 0 C0 0.99 0 1.98 0 3 C-4.41100077 6.96990069 -9.43296933 6.29186374 -15 6 C-15.33 5.34 -15.66 4.68 -16 4 C-14.89591797 3.94392578 -14.89591797 3.94392578 -13.76953125 3.88671875 C-6.39587342 3.47015527 -6.39587342 3.47015527 0 0 Z " fill="#393939" transform="translate(100,293)"/>
<path d="M0 0 C4.95 0.99 4.95 0.99 10 2 C9.67 2.66 9.34 3.32 9 4 C8.34 4 7.68 4 7 4 C7.33 5.32 7.66 6.64 8 8 C6.35 8 4.7 8 3 8 C2.87625 7.195625 2.7525 6.39125 2.625 5.5625 C2.315625 4.2940625 2.315625 4.2940625 2 3 C1.34 2.67 0.68 2.34 0 2 C0 1.34 0 0.68 0 0 Z " fill="#060606" transform="translate(325,287)"/>
<path d="M0 0 C6.6 0 13.2 0 20 0 C20 0.33 20 0.66 20 1 C15.38 1.33 10.76 1.66 6 2 C6.33 3.32 6.66 4.64 7 6 C3.28139821 4.46126823 2.64366459 3.52488612 0 0 Z " fill="#5C5C5C" transform="translate(109,254)"/>
<path d="M0 0 C0 0.33 0 0.66 0 1 C-9.405 1.99 -9.405 1.99 -19 3 C-17 0 -17 0 -14.8125 -0.6875 C-9.72075597 -1.25324934 -4.98961701 -1.20960412 0 0 Z " fill="#2C2C2C" transform="translate(143,175)"/>
<path d="M0 0 C1.4540625 0.0309375 1.4540625 0.0309375 2.9375 0.0625 C2.9375 0.3925 2.9375 0.7225 2.9375 1.0625 C1.2875 1.0625 -0.3625 1.0625 -2.0625 1.0625 C-1.7325 3.3725 -1.4025 5.6825 -1.0625 8.0625 C0.2575 8.3925 1.5775 8.7225 2.9375 9.0625 C0.29011084 10.5231285 -0.95698334 11.0625 -4.0625 11.0625 C-4.08938151 9.41675434 -4.10884123 7.77088587 -4.125 6.125 C-4.13660156 5.20847656 -4.14820313 4.29195313 -4.16015625 3.34765625 C-4.00919455 -0.18484756 -3.60673121 0.07360676 0 0 Z " fill="#282828" transform="translate(416.0625,252.9375)"/>
<path d="M0 0 C3.3 0.33 6.6 0.66 10 1 C9.67 1.99 9.34 2.98 9 4 C1.08 4.495 1.08 4.495 -7 5 C-4.23776722 2.23776722 -1.79293383 2.42143709 2 2 C1.34 1.34 0.68 0.68 0 0 Z " fill="#202020" transform="translate(329,256)"/>
<path d="M0 0 C0.33 0.66 0.66 1.32 1 2 C0.21366078 3.14949588 -0.57926258 4.29448989 -1.375 5.4375 C-1.81585938 6.07558594 -2.25671875 6.71367187 -2.7109375 7.37109375 C-4 9 -4 9 -6 10 C-6 10.99 -6 11.98 -6 13 C-6.66 13 -7.32 13 -8 13 C-8.33 11.35 -8.66 9.7 -9 8 C-7.88625 7.13375 -7.88625 7.13375 -6.75 6.25 C-4.33912357 4.27746474 -2.15957299 2.23955718 0 0 Z " fill="#474747" transform="translate(97,212)"/>
<path d="M0 0 C0.66 0.33 1.32 0.66 2 1 C2.59355614 3.64860427 2.74209269 6.29197322 3 9 C-0.63 8.67 -4.26 8.34 -8 8 C-8 7.67 -8 7.34 -8 7 C-5.36 7 -2.72 7 0 7 C0 4.69 0 2.38 0 0 Z " fill="#434343" transform="translate(174,245)"/>
<path d="M0 0 C1.051875 -0.02126953 1.051875 -0.02126953 2.125 -0.04296875 C4 0.1875 4 0.1875 6 2.1875 C2.25 3.3125 2.25 3.3125 0 2.1875 C0 2.8475 0 3.5075 0 4.1875 C0.99 4.5175 1.98 4.8475 3 5.1875 C1.35 5.1875 -0.3 5.1875 -2 5.1875 C-2 4.1975 -2 3.2075 -2 2.1875 C-3.32 1.8575 -4.64 1.5275 -6 1.1875 C-3.77109005 0.07304502 -2.46944894 0.02269714 0 0 Z " fill="#3D3D3D" transform="translate(90,270.8125)"/>
<path d="M0 0 C0 0.99 0 1.98 0 3 C-0.48082031 3.39832031 -0.96164063 3.79664063 -1.45703125 4.20703125 C-3.85515984 6.99371739 -3.57248392 10.16800791 -3.6875 13.6875 C-3.72166016 14.38939453 -3.75582031 15.09128906 -3.79101562 15.81445312 C-3.87329947 17.54241387 -3.9383324 19.27118072 -4 21 C-4.33 21 -4.66 21 -5 21 C-5.22119939 18.37549914 -5.42746669 15.75129514 -5.625 13.125 C-5.68945312 12.37863281 -5.75390625 11.63226563 -5.8203125 10.86328125 C-5.96087365 8.9129953 -5.98759849 6.95530533 -6 5 C-4.10646634 3.10646634 -2.15473199 1.5801368 0 0 Z " fill="#696969" transform="translate(109,200)"/>
<path d="M0 0 C0 0.66 0 1.32 0 2 C-0.66 2 -1.32 2 -2 2 C-2 2.66 -2 3.32 -2 4 C-4.8125 5.5625 -4.8125 5.5625 -8 7 C-8.99 6.67 -9.98 6.34 -11 6 C-9.73608512 4.99126984 -8.46359117 3.99328178 -7.1875 3 C-6.47980469 2.443125 -5.77210937 1.88625 -5.04296875 1.3125 C-3 0 -3 0 0 0 Z " fill="#292929" transform="translate(106,297)"/>
<path d="M0 0 C1.485 0.99 1.485 0.99 3 2 C2.67 5.3 2.34 8.6 2 12 C2.66 12.33 3.32 12.66 4 13 C3.01 13 2.02 13 1 13 C0.63631108 11.39796533 0.28438048 9.79325797 -0.0625 8.1875 C-0.25972656 7.29417969 -0.45695312 6.40085938 -0.66015625 5.48046875 C-1 3 -1 3 0 0 Z " fill="#A6A6A6" transform="translate(44,238)"/>
<path d="M0 0 C1.65 0.33 3.3 0.66 5 1 C5 1.99 5 2.98 5 4 C3.35 4.33 1.7 4.66 0 5 C0 4.34 0 3.68 0 3 C-3.3 3 -6.6 3 -10 3 C-10 2.67 -10 2.34 -10 2 C-6.7 2 -3.4 2 0 2 C0 1.34 0 0.68 0 0 Z " fill="#373737" transform="translate(156,225)"/>
<path d="M0 0 C0.99 0.33 1.98 0.66 3 1 C3 1.99 3 2.98 3 4 C0 6.1875 0 6.1875 -3 8 C-3.66 7.34 -4.32 6.68 -5 6 C-3.35 4.02 -1.7 2.04 0 0 Z " fill="#1C1C1C" transform="translate(102,199)"/>
<path d="M0 0 C0.99 0.66 1.98 1.32 3 2 C3.1875 5.125 3.1875 5.125 3 8 C1.35 8 -0.3 8 -2 8 C-1.125 2.25 -1.125 2.25 0 0 Z " fill="#1E1E1E" transform="translate(79,279)"/>
<path d="M0 0 C0.65234375 1.734375 0.65234375 1.734375 1 4 C0.00390625 6.140625 0.00390625 6.140625 -1.4375 8.25 C-1.91058594 8.95640625 -2.38367188 9.6628125 -2.87109375 10.390625 C-3.24363281 10.92171875 -3.61617188 11.4528125 -4 12 C-4.99 11.67 -5.98 11.34 -7 11 C-6.401875 10.29875 -5.80375 9.5975 -5.1875 8.875 C-3.02259039 6.02969023 -1.50403364 3.23367233 0 0 Z " fill="#151515" transform="translate(112,290)"/>
<path d="M0 0 C0.33 0 0.66 0 1 0 C1.22245975 2.24864725 1.42746557 4.49902623 1.625 6.75 C1.74101562 8.00296875 1.85703125 9.2559375 1.9765625 10.546875 C1.99888599 13.83586903 1.77961002 15.31020776 0 18 C0.06510417 15.98177083 0.13020833 13.96354167 0.1953125 11.9453125 C0.18331689 9.76136355 0.18331689 9.76136355 -2 8 C-1.34 8 -0.68 8 0 8 C0 5.36 0 2.72 0 0 Z " fill="#CDCDCD" transform="translate(175,124)"/>
<path d="M0 0 C2.97 0.495 2.97 0.495 6 1 C6 2.32 6 3.64 6 5 C3.69 4.67 1.38 4.34 -1 4 C-0.01 3.67 0.98 3.34 2 3 C2 2.34 2 1.68 2 1 C1.34 0.67 0.68 0.34 0 0 Z " fill="#474747" transform="translate(555,290)"/>
<path d="M0 0 C2.0625 0.4375 2.0625 0.4375 4 1 C3.34 2.32 2.68 3.64 2 5 C0.68 5 -0.64 5 -2 5 C-1.125 1.125 -1.125 1.125 0 0 Z " fill="#191919" transform="translate(339,289)"/>
<path d="M0 0 C4.95 0.33 9.9 0.66 15 1 C15 1.33 15 1.66 15 2 C6.585 2.495 6.585 2.495 -2 3 C-1.34 2.01 -0.68 1.02 0 0 Z " fill="#181818" transform="translate(123,282)"/>
<path d="M0 0 C2.0625 0.4375 2.0625 0.4375 4 1 C3.34 2.32 2.68 3.64 2 5 C0.68 5 -0.64 5 -2 5 C-1.125 1.125 -1.125 1.125 0 0 Z " fill="#111111" transform="translate(83,290)"/>
<path d="M0 0 C0.66 0.33 1.32 0.66 2 1 C2 1.99 2 2.98 2 4 C-0.63904371 5.41377341 -3.07120629 6.37240135 -6 7 C-4.19587357 3.73539027 -3.16605307 2.11070205 0 0 Z " fill="#353535" transform="translate(53,230)"/>
<path d="M0 0 C0.66 0.33 1.32 0.66 2 1 C1.01 1.33 0.02 1.66 -1 2 C-0.67 2.99 -0.34 3.98 0 5 C-0.804375 5.28875 -1.60875 5.5775 -2.4375 5.875 C-5.1326468 6.73262568 -5.1326468 6.73262568 -6 9 C-6.66 8.67 -7.32 8.34 -8 8 C-7.04578192 6.85073734 -6.08647955 5.70569459 -5.125 4.5625 C-4.59132813 3.92441406 -4.05765625 3.28632813 -3.5078125 2.62890625 C-2 1 -2 1 0 0 Z " fill="#A8A8A8" transform="translate(124,175)"/>
<path d="M0 0 C0.33 0.99 0.66 1.98 1 3 C-1.97 5.475 -1.97 5.475 -5 8 C-5.66 7.67 -6.32 7.34 -7 7 C-4.66666667 4.66666667 -2.33333333 2.33333333 0 0 Z " fill="#343434" transform="translate(343,291)"/>
<path d="M0 0 C4.75 0.75 4.75 0.75 7 3 C5.02 3.99 5.02 3.99 3 5 C2.01 4.34 1.02 3.68 0 3 C0 2.01 0 1.02 0 0 Z " fill="#1A1A1A" transform="translate(412,275)"/>
<path d="M0 0 C0.66 0 1.32 0 2 0 C2.33 0.99 2.66 1.98 3 3 C0.69 4.98 -1.62 6.96 -4 9 C-4.66 8.67 -5.32 8.34 -6 8 C-5.195625 7.236875 -4.39125 6.47375 -3.5625 5.6875 C-0.83200976 3.20569102 -0.83200976 3.20569102 0 0 Z " fill="#6A6A6A" transform="translate(58,240)"/>
<path d="M0 0 C0.66 0 1.32 0 2 0 C1.67 2.64 1.34 5.28 1 8 C1.66 8 2.32 8 3 8 C3 8.99 3 9.98 3 11 C2.01 10.67 1.02 10.34 0 10 C0 6.7 0 3.4 0 0 Z " fill="#161616" transform="translate(338,277)"/>
<path d="M0 0 C1.32 0 2.64 0 4 0 C4 0.99 4 1.98 4 3 C4.66 3.33 5.32 3.66 6 4 C4.35 4.66 2.7 5.32 1 6 C0.67 4.02 0.34 2.04 0 0 Z " fill="#020202" transform="translate(84,273)"/>
<path d="M0 0 C2.64 1.98 5.28 3.96 8 6 C6.68 6.33 5.36 6.66 4 7 C0 2.25 0 2.25 0 0 Z " fill="#262626" transform="translate(315,295)"/>
<path d="M0 0 C4.8 3.44615385 4.8 3.44615385 5.8125 6.25 C5.874375 6.8275 5.93625 7.405 6 8 C5.34 8 4.68 8 4 8 C3.731875 7.195625 3.46375 6.39125 3.1875 5.5625 C2.795625 4.716875 2.40375 3.87125 2 3 C1.01 2.67 0.02 2.34 -1 2 C-0.67 1.34 -0.34 0.68 0 0 Z " fill="#2B2B2B" transform="translate(98,270)"/>
<path d="M0 0 C2.50357861 0.8345262 4.66785852 1.79371992 7 3 C5.1875 4.0625 5.1875 4.0625 3 5 C2.01 4.67 1.02 4.34 0 4 C0 2.68 0 1.36 0 0 Z " fill="#222222" transform="translate(412,268)"/>
<path d="M0 0 C3.37462715 0.54723683 5.08235 1.0549 8 3 C7.67 3.99 7.34 4.98 7 6 C4.5 4.625 4.5 4.625 2 3 C2 2.34 2 1.68 2 1 C1.34 0.67 0.68 0.34 0 0 Z " fill="#161616" transform="translate(339,258)"/>
<path d="M0 0 C0.66 0.33 1.32 0.66 2 1 C1.75 2.875 1.75 2.875 1 5 C-1.0625 6.25 -1.0625 6.25 -3 7 C-2.25 2.25 -2.25 2.25 0 0 Z " fill="#666666" transform="translate(97,203)"/>
<path d="M0 0 C0.66 0.33 1.32 0.66 2 1 C1.01 2.485 1.01 2.485 0 4 C-0.69313908 5.65583225 -1.36474424 7.32110979 -2 9 C-2.33 9 -2.66 9 -3 9 C-2.25 2.25 -2.25 2.25 0 0 Z " fill="#777777" transform="translate(48,233)"/>
</svg>
