<?xml version="1.0" encoding="UTF-8"?>
<svg version="1.1" xmlns="http://www.w3.org/2000/svg" width="400" height="174">
<path d="M0 0 C0.495 0.495 0.495 0.495 1 1 C0.71269945 3.33944736 0.38063221 5.6739143 0 8 C-1.98 8.33 -3.96 8.66 -6 9 C-6.33 13.62 -6.66 18.24 -7 23 C-5.515 23.495 -5.515 23.495 -4 24 C-4 41.49 -4 58.98 -4 77 C-1.03 77 1.94 77 5 77 C4.04407983 71.76277781 3.00343852 66.941815 1 62 C0.11646763 56.94399096 -0.15994991 51.99179153 -0.16796875 46.87109375 C-0.17296135 45.7420034 -0.17296135 45.7420034 -0.17805481 44.59010315 C-0.18308627 43.00937506 -0.18546431 41.42863648 -0.18530273 39.84790039 C-0.18749705 37.4407401 -0.20571396 35.03403306 -0.22460938 32.62695312 C-0.22754262 31.08333488 -0.22952788 29.53971449 -0.23046875 27.99609375 C-0.23765427 27.28343857 -0.24483978 26.57078339 -0.25224304 25.83653259 C-0.23263238 21.51695622 0.33127697 17.9903593 2 14 C2.52207031 13.50886719 3.04414062 13.01773438 3.58203125 12.51171875 C5.76593778 10.18342171 5.51985176 7.93075735 5.6875 4.8125 C5.75324219 3.72582031 5.81898437 2.63914062 5.88671875 1.51953125 C5.92410156 0.68808594 5.96148437 -0.14335937 6 -1 C7.65 -0.67 9.3 -0.34 11 0 C10.855625 0.70125 10.71125 1.4025 10.5625 2.125 C9.98520948 5.07559597 9.48891532 8.03363983 9 11 C10.77332404 10.99446924 10.77332404 10.99446924 12.5824728 10.98882675 C40.66312121 10.90214424 68.74376295 10.83621238 96.82451647 10.79573868 C100.28283218 10.79073602 103.7411476 10.78555871 107.19946289 10.78027344 C108.23216972 10.77869957 108.23216972 10.77869957 109.28573931 10.77709392 C120.42476153 10.75970165 131.56370094 10.7281705 142.70267408 10.69138882 C154.13731438 10.6539465 165.57188755 10.63205651 177.0065909 10.62364602 C183.4272003 10.6184325 189.84762206 10.6061836 196.26817131 10.57707977 C202.31328315 10.54990016 208.35813029 10.54156031 214.40329742 10.54756927 C216.62002311 10.54647019 218.83675778 10.53853173 221.05343056 10.5231781 C224.08529538 10.5032108 227.11616715 10.50808584 230.14805603 10.51898193 C231.02064951 10.50733057 231.893243 10.4956792 232.79227871 10.48367476 C242.35322371 10.57624311 249.30661234 14.71922854 256.5625 20.625 C257.50319336 21.35976563 257.50319336 21.35976563 258.46289062 22.109375 C260.01991793 23.35228011 261.51632592 24.67039165 263 26 C263 26.66 263 27.32 263 28 C264.65 28.33 266.3 28.66 268 29 C267.835 29.598125 267.67 30.19625 267.5 30.8125 C266.7628888 34.03736149 266.87083786 35.71584329 268.25 38.75 C269 42 269 42 267.1875 45.1875 C266.795625 45.77015625 266.40375 46.3528125 266 46.953125 C264.7374348 49.53743815 264.75080652 51.57287993 264.6875 54.4375 C264.40364468 60.04556054 262.48423319 62.28605549 258.58984375 66.140625 C256.13678445 69.00955922 256.07705002 71.30159899 256 75 C257.32 75.33 258.64 75.66 260 76 C261.00494402 81.82229471 261.15062028 87.47379638 261.125 93.375 C261.12886719 94.28894531 261.13273437 95.20289062 261.13671875 96.14453125 C261.13478516 97.44583984 261.13478516 97.44583984 261.1328125 98.7734375 C261.13168457 99.56153809 261.13055664 100.34963867 261.12939453 101.16162109 C261 103 261 103 260 104 C258.33382885 104.04063832 256.66611905 104.042721 255 104 C254.34 101.69 253.68 99.38 253 97 C252.67 97.66 252.34 98.32 252 99 C250.68 99 249.36 99 248 99 C248 95.04 248 91.08 248 87 C246.35 87 244.7 87 243 87 C243.01160156 87.69867188 243.02320313 88.39734375 243.03515625 89.1171875 C243.04869141 90.48230469 243.04869141 90.48230469 243.0625 91.875 C243.07410156 92.77992187 243.08570313 93.68484375 243.09765625 94.6171875 C243 97 243 97 242 99 C240.68 98.67 239.36 98.34 238 98 C238 94.7 238 91.4 238 88 C236.02 88.99 236.02 88.99 234 90 C234 93.3 234 96.6 234 100 C232.515 100.495 232.515 100.495 231 101 C231.061875 102.3921875 231.061875 102.3921875 231.125 103.8125 C231 107 231 107 229 110 C227.68 109.67 226.36 109.34 225 109 C225 106.36 225 103.72 225 101 C223.68 101 222.36 101 221 101 C220.9175 101.86625 220.835 102.7325 220.75 103.625 C219.39987362 109.7005687 216.04431593 113.50778128 211 117 C205.8707896 118.7097368 200.93852784 118.64617595 195.8125 116.9375 C191.60191829 114.03687705 187.76680545 110.8667498 186.40234375 105.765625 C186.125 103.5625 186.125 103.5625 186 100 C184.02 100 182.04 100 180 100 C179.979375 101.155 179.95875 102.31 179.9375 103.5 C179.25568153 109.05336202 176.05611167 112.36947606 172 116 C167.97101417 118.4793759 163.62963813 118.5566168 159 118 C153.15099083 116.18479026 150.02488959 113.41756175 146 109 C145.67 109.33 145.34 109.66 145 110 C143.33382885 110.04063832 141.66611905 110.042721 140 110 C139.019497 105.09748502 139 101.19057759 139 96 C132.73 95.67 126.46 95.34 120 95 C120 96.98 120 98.96 120 101 C118.33283316 102.66716684 116.3269386 102.12744882 114.03710938 102.12939453 C112.97931274 102.13254669 111.92151611 102.13569885 110.83166504 102.13894653 C109.68065308 102.1369223 108.52964111 102.13489807 107.34375 102.1328125 C105.58484436 102.13424759 105.58484436 102.13424759 103.79040527 102.13571167 C101.30541938 102.1363937 98.82043171 102.13453784 96.33544922 102.13037109 C92.51656113 102.12502319 88.69779065 102.13031536 84.87890625 102.13671875 C82.47135391 102.13605797 80.06380163 102.13477682 77.65625 102.1328125 C75.92973206 102.13584885 75.92973206 102.13584885 74.16833496 102.13894653 C73.11053833 102.13579437 72.0527417 102.13264221 70.96289062 102.12939453 C69.55843689 102.12820114 69.55843689 102.12820114 68.12561035 102.12698364 C66 102 66 102 65 101 C63.66956375 100.9016279 62.33406656 100.86921408 61 100.8671875 C60.195625 100.86589844 59.39125 100.86460938 58.5625 100.86328125 C57.716875 100.86714844 56.87125 100.87101562 56 100.875 C54.7315625 100.86919922 54.7315625 100.86919922 53.4375 100.86328125 C52.633125 100.86457031 51.82875 100.86585937 51 100.8671875 C49.88625 100.86887939 49.88625 100.86887939 48.75 100.87060547 C46.97174189 100.81057784 46.97174189 100.81057784 46 102 C42.93256323 102.10121663 39.88811585 102.13968095 36.8203125 102.1328125 C35.89660858 102.13376923 34.97290466 102.13472595 34.02120972 102.13571167 C32.06247896 102.13639369 30.10374597 102.13453791 28.14501953 102.13037109 C25.144805 102.12503522 22.14474101 102.1303091 19.14453125 102.13671875 C17.24479134 102.13605773 15.34505151 102.13477609 13.4453125 102.1328125 C12.54523468 102.13483673 11.64515686 102.13686096 10.71780396 102.13894653 C9.88038666 102.13579437 9.04296936 102.13264221 8.18017578 102.12939453 C7.07550461 102.12820114 7.07550461 102.12820114 5.94851685 102.12698364 C4 102 4 102 1 101 C0.67 104.3 0.34 107.6 0 111 C-0.70125 110.71125 -1.4025 110.4225 -2.125 110.125 C-4.94389761 109.68154533 -4.94389761 109.68154533 -6.45703125 111.19921875 C-7.46342685 112.29589786 -8.46724373 113.39494782 -9.46875 114.49609375 C-12.60228888 117.57367657 -16.16656243 117.90739583 -20.375 118.375 C-26.04211271 117.78874696 -30.18835298 115.53989997 -34.5 111.875 C-36 110 -36 110 -36 108 C-38.64 108.33 -41.28 108.66 -44 109 C-44.66 108.01 -45.32 107.02 -46 106 C-46.53625 107.0725 -47.0725 108.145 -47.625 109.25 C-49.81978776 113.04099705 -52.01974006 115.00987003 -56 117 C-62.25759162 118.53875204 -67.268786 118.08766511 -73 115 C-76.74062249 111.96367881 -79.15081942 108.88710847 -79.875 104.0625 C-79.936875 102.5465625 -79.936875 102.5465625 -80 101 C-80.66 101 -81.32 101 -82 101 C-82.66 102.32 -83.32 103.64 -84 105 C-86.97 104.67 -89.94 104.34 -93 104 C-95.06462436 99.76030021 -95.20355422 96.37187204 -95.08203125 91.6875 C-95.06412033 90.99615967 -95.04620941 90.30481934 -95.02775574 89.5925293 C-94.98672428 88.13671893 -94.94017845 86.68105468 -94.88842773 85.22558594 C-94.8127477 83.00726044 -94.763745 80.78941004 -94.71679688 78.5703125 C-94.67348948 77.15099149 -94.62861973 75.7317171 -94.58203125 74.3125 C-94.54311768 73.02988281 -94.5042041 71.74726562 -94.46411133 70.42578125 C-93.89363204 66.21485785 -92.78774854 63.39658536 -89.38989258 60.7421875 C-85.35470281 58.80660424 -81.43436614 57.52998878 -77.07421875 56.5 C-76.03072266 56.25121094 -74.98722656 56.00242188 -73.91210938 55.74609375 C-71.75042742 55.24593475 -69.58054521 54.78005776 -67.40429688 54.34765625 C-64.18615087 53.54361977 -61.7635404 52.84577837 -59 51 C-57.13017296 47.08114599 -56.42490516 43.30232327 -56 39 C-57.98 39 -59.96 39 -62 39 C-61.72524783 35.70297393 -61.27233527 34.28058785 -58.9375 31.875 C-55.96510187 29.9777246 -53.21577582 28.85407868 -49.90234375 27.71875 C-47.83393376 27.01235851 -47.83393376 27.01235851 -45.5625 25.4375 C-38.5694005 21.51454175 -31.02003322 21.87839734 -23.25 22.5 C-21.49429688 22.63921875 -21.49429688 22.63921875 -19.703125 22.78125 C-18.81109375 22.8534375 -17.9190625 22.925625 -17 23 C-17.02320312 22.04738281 -17.04640625 21.09476563 -17.0703125 20.11328125 C-17.08835937 18.85902344 -17.10640625 17.60476562 -17.125 16.3125 C-17.14820312 15.07113281 -17.17140625 13.82976563 -17.1953125 12.55078125 C-16.93027006 7.73230963 -16.13648973 5.07667448 -12.625 1.75 C-8.07235661 -1.28509559 -5.33530633 -1.18562363 0 0 Z M264 40 C265 42 265 42 265 42 Z M-44 42 C-44 45.63 -44 49.26 -44 53 C-39.38 53 -34.76 53 -30 53 C-30 49.37 -30 45.74 -30 42 C-34.62 42 -39.24 42 -44 42 Z M46 78 C46.33 79.65 46.66 81.3 47 83 C49.31 83 51.62 83 54 83 C52.68 82.67 51.36 82.34 50 82 C50 80.68 50 79.36 50 78 C48.68 78 47.36 78 46 78 Z M59 78 C59 79.32 59 80.64 59 82 C65.48349807 83.18135474 71.86214507 83.11322974 78.4375 83.0625 C79.55060547 83.05798828 80.66371094 83.05347656 81.81054688 83.04882812 C84.54042101 83.03711193 87.27018174 83.02070699 90 83 C89.34 81.35 88.68 79.7 88 78 C87.67 79.32 87.34 80.64 87 82 C84.69 82 82.38 82 80 82 C80 80.68 80 79.36 80 78 C73.07 78 66.14 78 59 78 Z M91 78 C91.66 79.32 92.32 80.64 93 82 C93.99 82 94.98 82 96 82 C96.66 80.68 97.32 79.36 98 78 C95.69 78 93.38 78 91 78 Z M101 78 C100.34 79.65 99.68 81.3 99 83 C105.93 83 112.86 83 120 83 C120 84.98 120 86.96 120 89 C127.26 89 134.52 89 142 89 C143.98 85.37 145.96 81.74 148 78 C146.02 78 144.04 78 142 78 C142 79.32 142 80.64 142 82 C139.36 82 136.72 82 134 82 C134 80.68 134 79.36 134 78 C129.38 78 124.76 78 120 78 C120 79.32 120 80.64 120 82 C117.525 81.505 117.525 81.505 115 81 C114.67 80.01 114.34 79.02 114 78 C109.71 78 105.42 78 101 78 Z M214 78 C215.65 79.65 217.3 81.3 219 83 C219.33 82.34 219.66 81.68 220 81 C219.67 80.01 219.34 79.02 219 78 C217.35 78 215.7 78 214 78 Z M226 78 C226 78.66 226 79.32 226 80 C228.31 80 230.62 80 233 80 C233 79.34 233 78.68 233 78 C230.69 78 228.38 78 226 78 Z M242 79 C242 79.66 242 80.32 242 81 C243.65 80.67 245.3 80.34 247 80 C247 79.67 247 79.34 247 79 C245.35 79 243.7 79 242 79 Z M-4 82 C-3.67 83.32 -3.34 84.64 -3 86 C-0.03 86.495 -0.03 86.495 3 87 C3 85.68 3 84.36 3 83 C0.69 82.67 -1.62 82.34 -4 82 Z M14 82 C14 82.33 14 82.66 14 83 C18.29 83 22.58 83 27 83 C27 82.67 27 82.34 27 82 C22.71 82 18.42 82 14 82 Z M220 83 C221.32 85.64 222.64 88.28 224 91 C226.18490007 88.32357511 226.18490007 88.32357511 226 86 C226.8353125 86.37125 226.8353125 86.37125 227.6875 86.75 C230.75829175 87.35687403 230.75829175 87.35687403 235 83 C230.05 83 225.1 83 220 83 Z M47 87 C47 87.66 47 88.32 47 89 C48.98 89 50.96 89 53 89 C53 88.34 53 87.68 53 87 C51.02 87 49.04 87 47 87 Z M59 87 C59 87.66 59 88.32 59 89 C60.98 89 62.96 89 65 89 C65 88.34 65 87.68 65 87 C63.02 87 61.04 87 59 87 Z M47 94 C47 94.66 47 95.32 47 96 C49.31 96 51.62 96 54 96 C54 95.34 54 94.68 54 94 C51.69 94 49.38 94 47 94 Z M57 94 C57 94.66 57 95.32 57 96 C59.64 96 62.28 96 65 96 C65 95.34 65 94.68 65 94 C62.36 94 59.72 94 57 94 Z " fill="#0A0A0A" transform="translate(115,27)"/>
<path d="M0 0 C0.495 0.495 0.495 0.495 1 1 C0.71269945 3.33944736 0.38063221 5.6739143 0 8 C-1.98 8.33 -3.96 8.66 -6 9 C-6.33 13.62 -6.66 18.24 -7 23 C-5.515 23.495 -5.515 23.495 -4 24 C-4 41.49 -4 58.98 -4 77 C-0.37 77 3.26 77 7 77 C9.67226006 77.28504107 12.3426823 77.59889544 15 78 C15 78.66 15 79.32 15 80 C11.7 80 8.4 80 5 80 C5 80.66 5 81.32 5 82 C8.79165074 82.0289337 12.58327327 82.04677601 16.375 82.0625 C17.45523438 82.07087891 18.53546875 82.07925781 19.6484375 82.08789062 C21.1953125 82.09272461 21.1953125 82.09272461 22.7734375 82.09765625 C24.20308838 82.10551147 24.20308838 82.10551147 25.66162109 82.11352539 C28.02324406 82.15642599 28.02324406 82.15642599 30 81 C29.34 79.68 28.68 78.36 28 77 C35.26 77 42.52 77 50 77 C49.01 77.66 48.02 78.32 47 79 C47 80.32 47 81.64 47 83 C47.99 82.67 48.98 82.34 50 82 C50.33 81.01 50.66 80.02 51 79 C52.32 79.33 53.64 79.66 55 80 C55 79.01 55 78.02 55 77 C63.25 77 71.5 77 80 77 C80 77.33 80 77.66 80 78 C73.07 78 66.14 78 59 78 C59 79.32 59 80.64 59 82 C68.9 82 78.8 82 89 82 C88.34 80.35 87.68 78.7 87 77 C95.91 77 104.82 77 114 77 C114 77.33 114 77.66 114 78 C109.71 78 105.42 78 101 78 C100.67 79.32 100.34 80.64 100 82 C106.6 82.33 113.2 82.66 120 83 C120 84.98 120 86.96 120 89 C127.26 89 134.52 89 142 89 C142.66 87.35 143.32 85.7 144 84 C144.97236487 82.3170608 145.96564444 80.64556566 147 79 C145.35 78.67 143.7 78.34 142 78 C142 77.67 142 77.34 142 77 C147.32022769 76.97523349 152.64042162 76.95710844 157.96069336 76.94506836 C159.76961858 76.94004762 161.57853976 76.93322971 163.38745117 76.92456055 C165.99138386 76.91239598 168.59526277 76.90674902 171.19921875 76.90234375 C172.00461594 76.89718246 172.81001312 76.89202118 173.63981628 76.88670349 C177.59205289 76.88631092 181.12013406 77.16829757 185 78 C185.33 77.67 185.66 77.34 186 77 C188.52094076 76.91152257 191.01430893 76.88472699 193.53515625 76.90234375 C194.66503212 76.90446617 194.66503212 76.90446617 195.81773376 76.90663147 C198.2326956 76.91224624 200.64756601 76.92480117 203.0625 76.9375 C204.69596221 76.9425131 206.32942586 76.94707634 207.96289062 76.95117188 C211.97529585 76.96222046 215.98763241 76.97949494 220 77 C219.67 77.66 219.34 78.32 219 79 C218.01 79 217.02 79 216 79 C216.49371094 79.55429688 216.98742187 80.10859375 217.49609375 80.6796875 C218.13675781 81.40414062 218.77742188 82.12859375 219.4375 82.875 C220.07558594 83.59429687 220.71367187 84.31359375 221.37109375 85.0546875 C223 87 223 87 224 89 C224.66 88.01 225.32 87.02 226 86 C228.5625 85.375 228.5625 85.375 231 85 C231.33 84.67 231.66 84.34 232 84 C229.36 84 226.72 84 224 84 C224.33 81.69 224.66 79.38 225 77 C227.97 77 230.94 77 234 77 C234 78.65 234 80.3 234 82 C236.31 82.33 238.62 82.66 241 83 C241 81.35 241 79.7 241 78 C241.969375 77.71125 242.93875 77.4225 243.9375 77.125 C247.10664203 76.35785318 247.10664203 76.35785318 248 74 C249.32 74 250.64 74 252 74 C251.67 73.01 251.34 72.02 251 71 C251.66 71 252.32 71 253 71 C254.62514468 69.54166642 254.62514468 69.54166642 256 68 C256 70.31 256 72.62 256 75 C257.32 75.33 258.64 75.66 260 76 C261.00494402 81.82229471 261.15062028 87.47379638 261.125 93.375 C261.12886719 94.28894531 261.13273437 95.20289062 261.13671875 96.14453125 C261.13478516 97.44583984 261.13478516 97.44583984 261.1328125 98.7734375 C261.13168457 99.56153809 261.13055664 100.34963867 261.12939453 101.16162109 C261 103 261 103 260 104 C258.33382885 104.04063832 256.66611905 104.042721 255 104 C254.34 101.69 253.68 99.38 253 97 C252.67 97.66 252.34 98.32 252 99 C250.68 99 249.36 99 248 99 C248 95.04 248 91.08 248 87 C246.35 87 244.7 87 243 87 C243.01160156 87.69867188 243.02320313 88.39734375 243.03515625 89.1171875 C243.04869141 90.48230469 243.04869141 90.48230469 243.0625 91.875 C243.07410156 92.77992187 243.08570313 93.68484375 243.09765625 94.6171875 C243 97 243 97 242 99 C240.68 98.67 239.36 98.34 238 98 C238 94.7 238 91.4 238 88 C236.02 88.99 236.02 88.99 234 90 C234 93.3 234 96.6 234 100 C232.515 100.495 232.515 100.495 231 101 C231.061875 102.3921875 231.061875 102.3921875 231.125 103.8125 C231 107 231 107 229 110 C227.68 109.67 226.36 109.34 225 109 C225 106.36 225 103.72 225 101 C223.68 101 222.36 101 221 101 C220.9175 101.86625 220.835 102.7325 220.75 103.625 C219.39987362 109.7005687 216.04431593 113.50778128 211 117 C205.8707896 118.7097368 200.93852784 118.64617595 195.8125 116.9375 C191.60191829 114.03687705 187.76680545 110.8667498 186.40234375 105.765625 C186.125 103.5625 186.125 103.5625 186 100 C184.02 100 182.04 100 180 100 C179.979375 101.155 179.95875 102.31 179.9375 103.5 C179.25568153 109.05336202 176.05611167 112.36947606 172 116 C167.97101417 118.4793759 163.62963813 118.5566168 159 118 C153.15099083 116.18479026 150.02488959 113.41756175 146 109 C145.67 109.33 145.34 109.66 145 110 C143.33382885 110.04063832 141.66611905 110.042721 140 110 C139.019497 105.09748502 139 101.19057759 139 96 C132.73 95.67 126.46 95.34 120 95 C120 96.98 120 98.96 120 101 C118.33283316 102.66716684 116.3269386 102.12744882 114.03710938 102.12939453 C112.97931274 102.13254669 111.92151611 102.13569885 110.83166504 102.13894653 C109.68065308 102.1369223 108.52964111 102.13489807 107.34375 102.1328125 C105.58484436 102.13424759 105.58484436 102.13424759 103.79040527 102.13571167 C101.30541938 102.1363937 98.82043171 102.13453784 96.33544922 102.13037109 C92.51656113 102.12502319 88.69779065 102.13031536 84.87890625 102.13671875 C82.47135391 102.13605797 80.06380163 102.13477682 77.65625 102.1328125 C75.92973206 102.13584885 75.92973206 102.13584885 74.16833496 102.13894653 C73.11053833 102.13579437 72.0527417 102.13264221 70.96289062 102.12939453 C69.55843689 102.12820114 69.55843689 102.12820114 68.12561035 102.12698364 C66 102 66 102 65 101 C63.66956375 100.9016279 62.33406656 100.86921408 61 100.8671875 C60.195625 100.86589844 59.39125 100.86460938 58.5625 100.86328125 C57.716875 100.86714844 56.87125 100.87101562 56 100.875 C54.7315625 100.86919922 54.7315625 100.86919922 53.4375 100.86328125 C52.633125 100.86457031 51.82875 100.86585937 51 100.8671875 C49.88625 100.86887939 49.88625 100.86887939 48.75 100.87060547 C46.97174189 100.81057784 46.97174189 100.81057784 46 102 C42.93256323 102.10121663 39.88811585 102.13968095 36.8203125 102.1328125 C35.89660858 102.13376923 34.97290466 102.13472595 34.02120972 102.13571167 C32.06247896 102.13639369 30.10374597 102.13453791 28.14501953 102.13037109 C25.144805 102.12503522 22.14474101 102.1303091 19.14453125 102.13671875 C17.24479134 102.13605773 15.34505151 102.13477609 13.4453125 102.1328125 C12.54523468 102.13483673 11.64515686 102.13686096 10.71780396 102.13894653 C9.88038666 102.13579437 9.04296936 102.13264221 8.18017578 102.12939453 C7.07550461 102.12820114 7.07550461 102.12820114 5.94851685 102.12698364 C4 102 4 102 1 101 C0.67 104.3 0.34 107.6 0 111 C-0.70125 110.71125 -1.4025 110.4225 -2.125 110.125 C-4.94389761 109.68154533 -4.94389761 109.68154533 -6.45703125 111.19921875 C-7.46342685 112.29589786 -8.46724373 113.39494782 -9.46875 114.49609375 C-12.60228888 117.57367657 -16.16656243 117.90739583 -20.375 118.375 C-26.04211271 117.78874696 -30.18835298 115.53989997 -34.5 111.875 C-36 110 -36 110 -36 108 C-38.64 108.33 -41.28 108.66 -44 109 C-44.66 108.01 -45.32 107.02 -46 106 C-46.53625 107.0725 -47.0725 108.145 -47.625 109.25 C-49.81978776 113.04099705 -52.01974006 115.00987003 -56 117 C-62.25759162 118.53875204 -67.268786 118.08766511 -73 115 C-76.74062249 111.96367881 -79.15081942 108.88710847 -79.875 104.0625 C-79.936875 102.5465625 -79.936875 102.5465625 -80 101 C-80.66 101 -81.32 101 -82 101 C-82.66 102.32 -83.32 103.64 -84 105 C-86.97 104.67 -89.94 104.34 -93 104 C-95.06462436 99.76030021 -95.20355422 96.37187204 -95.08203125 91.6875 C-95.06412033 90.99615967 -95.04620941 90.30481934 -95.02775574 89.5925293 C-94.98672428 88.13671893 -94.94017845 86.68105468 -94.88842773 85.22558594 C-94.8127477 83.00726044 -94.763745 80.78941004 -94.71679688 78.5703125 C-94.67348948 77.15099149 -94.62861973 75.7317171 -94.58203125 74.3125 C-94.54311768 73.02988281 -94.5042041 71.74726562 -94.46411133 70.42578125 C-93.89363204 66.21485785 -92.78774854 63.39658536 -89.38989258 60.7421875 C-85.35470281 58.80660424 -81.43436614 57.52998878 -77.07421875 56.5 C-76.03072266 56.25121094 -74.98722656 56.00242188 -73.91210938 55.74609375 C-71.75042742 55.24593475 -69.58054521 54.78005776 -67.40429688 54.34765625 C-64.18615087 53.54361977 -61.7635404 52.84577837 -59 51 C-57.13017296 47.08114599 -56.42490516 43.30232327 -56 39 C-57.98 39 -59.96 39 -62 39 C-61.72524783 35.70297393 -61.27233527 34.28058785 -58.9375 31.875 C-55.96510187 29.9777246 -53.21577582 28.85407868 -49.90234375 27.71875 C-47.83393376 27.01235851 -47.83393376 27.01235851 -45.5625 25.4375 C-38.5694005 21.51454175 -31.02003322 21.87839734 -23.25 22.5 C-21.49429688 22.63921875 -21.49429688 22.63921875 -19.703125 22.78125 C-18.81109375 22.8534375 -17.9190625 22.925625 -17 23 C-17.02320312 22.04738281 -17.04640625 21.09476563 -17.0703125 20.11328125 C-17.08835937 18.85902344 -17.10640625 17.60476562 -17.125 16.3125 C-17.14820312 15.07113281 -17.17140625 13.82976563 -17.1953125 12.55078125 C-16.93027006 7.73230963 -16.13648973 5.07667448 -12.625 1.75 C-8.07235661 -1.28509559 -5.33530633 -1.18562363 0 0 Z M-44 42 C-44 45.63 -44 49.26 -44 53 C-39.38 53 -34.76 53 -30 53 C-30 49.37 -30 45.74 -30 42 C-34.62 42 -39.24 42 -44 42 Z M91 78 C91.66 79.32 92.32 80.64 93 82 C93.99 82 94.98 82 96 82 C96.66 80.68 97.32 79.36 98 78 C95.69 78 93.38 78 91 78 Z M226 78 C226 78.66 226 79.32 226 80 C228.31 80 230.62 80 233 80 C233 79.34 233 78.68 233 78 C230.69 78 228.38 78 226 78 Z M242 79 C242 79.66 242 80.32 242 81 C243.65 80.67 245.3 80.34 247 80 C247 79.67 247 79.34 247 79 C245.35 79 243.7 79 242 79 Z M-4 82 C-3.67 83.32 -3.34 84.64 -3 86 C-0.03 86.495 -0.03 86.495 3 87 C3 85.68 3 84.36 3 83 C0.69 82.67 -1.62 82.34 -4 82 Z M47 87 C47 87.66 47 88.32 47 89 C48.98 89 50.96 89 53 89 C53 88.34 53 87.68 53 87 C51.02 87 49.04 87 47 87 Z M59 87 C59 87.66 59 88.32 59 89 C60.98 89 62.96 89 65 89 C65 88.34 65 87.68 65 87 C63.02 87 61.04 87 59 87 Z M47 94 C47 94.66 47 95.32 47 96 C49.31 96 51.62 96 54 96 C54 95.34 54 94.68 54 94 C51.69 94 49.38 94 47 94 Z M57 94 C57 94.66 57 95.32 57 96 C59.64 96 62.28 96 65 96 C65 95.34 65 94.68 65 94 C62.36 94 59.72 94 57 94 Z " fill="#0E0D0E" transform="translate(115,27)"/>
<path d="M0 0 C24.09 0 48.18 0 73 0 C73 2.64 73 5.28 73 8 C73.66 8 74.32 8 75 8 C75 8.66 75 9.32 75 10 C74.34 10 73.68 10 73 10 C73 11.98 73 13.96 73 16 C55.84 16 38.68 16 21 16 C20.67 13.69 20.34 11.38 20 9 C17.525 8.505 17.525 8.505 15 8 C15 7.67 15 7.34 15 7 C16.65 6.67 18.3 6.34 20 6 C20 4.35 20 2.7 20 1 C17.36 1 14.72 1 12 1 C11.67 2.65 11.34 4.3 11 6 C10.4225 5.525625 9.845 5.05125 9.25 4.5625 C7.03045596 3.02114997 5.58332951 2.58333247 3 2 C2.01 1.34 1.02 0.68 0 0 Z " fill="#0A090A" transform="translate(161,111)"/>
<path d="M0 0 C0.33 0 0.66 0 1 0 C1 2.31 1 4.62 1 7 C2.32 7.33 3.64 7.66 5 8 C6.00494402 13.82229471 6.15062028 19.47379638 6.125 25.375 C6.13080078 26.74591797 6.13080078 26.74591797 6.13671875 28.14453125 C6.13542969 29.01207031 6.13414062 29.87960938 6.1328125 30.7734375 C6.13168457 31.56153809 6.13055664 32.34963867 6.12939453 33.16162109 C6 35 6 35 5 36 C3.33382885 36.04063832 1.66611905 36.042721 0 36 C-0.66 33.69 -1.32 31.38 -2 29 C-2.33 29.66 -2.66 30.32 -3 31 C-4.32 31 -5.64 31 -7 31 C-7 27.04 -7 23.08 -7 19 C-8.65 19 -10.3 19 -12 19 C-11.98839844 19.69867188 -11.97679687 20.39734375 -11.96484375 21.1171875 C-11.95582031 22.02726562 -11.94679688 22.93734375 -11.9375 23.875 C-11.92589844 24.77992187 -11.91429687 25.68484375 -11.90234375 26.6171875 C-12 29 -12 29 -13 31 C-14.32 30.67 -15.64 30.34 -17 30 C-17 26.7 -17 23.4 -17 20 C-18.98 20.99 -18.98 20.99 -21 22 C-21 25.3 -21 28.6 -21 32 C-22.485 32.495 -22.485 32.495 -24 33 C-23.938125 34.3921875 -23.938125 34.3921875 -23.875 35.8125 C-24 39 -24 39 -26 42 C-27.32 41.67 -28.64 41.34 -30 41 C-30 38.36 -30 35.72 -30 33 C-31.32 33 -32.64 33 -34 33 C-34.33 34.98 -34.66 36.96 -35 39 C-35.33 39 -35.66 39 -36 39 C-35.67 36.69 -35.34 34.38 -35 32 C-33.35 32 -31.7 32 -30 32 C-30.09539062 31.40832031 -30.19078125 30.81664063 -30.2890625 30.20703125 C-31.49291785 21.62606232 -31.49291785 21.62606232 -29 18 C-26.4375 17.25 -26.4375 17.25 -24 17 C-23.67 16.67 -23.34 16.34 -23 16 C-25.64 16 -28.28 16 -31 16 C-30.67 13.69 -30.34 11.38 -30 9 C-27.03 9 -24.06 9 -21 9 C-21 10.65 -21 12.3 -21 14 C-18.69 14.33 -16.38 14.66 -14 15 C-14 13.35 -14 11.7 -14 10 C-13.030625 9.71125 -12.06125 9.4225 -11.0625 9.125 C-7.89335797 8.35785318 -7.89335797 8.35785318 -7 6 C-5.68 6 -4.36 6 -3 6 C-3.495 4.515 -3.495 4.515 -4 3 C-3.34 3 -2.68 3 -2 3 C-1.34 2.01 -0.68 1.02 0 0 Z M-29 10 C-29 10.66 -29 11.32 -29 12 C-26.69 12 -24.38 12 -22 12 C-22 11.34 -22 10.68 -22 10 C-24.31 10 -26.62 10 -29 10 Z M-13 11 C-13 11.66 -13 12.32 -13 13 C-11.35 12.67 -9.7 12.34 -8 12 C-8 11.67 -8 11.34 -8 11 C-9.65 11 -11.3 11 -13 11 Z " fill="#121012" transform="translate(370,95)"/>
<path d="M0 0 C8.25 0 16.5 0 25 0 C25 0.33 25 0.66 25 1 C18.07 1 11.14 1 4 1 C4 2.32 4 3.64 4 5 C13.9 5 23.8 5 34 5 C33.34 3.35 32.68 1.7 32 0 C40.91 0 49.82 0 59 0 C59 0.33 59 0.66 59 1 C54.71 1 50.42 1 46 1 C45.67 2.32 45.34 3.64 45 5 C51.6 5.33 58.2 5.66 65 6 C65 7.98 65 9.96 65 12 C72.26 12 79.52 12 87 12 C87.66 10.35 88.32 8.7 89 7 C89.97236487 5.3170608 90.96564444 3.64556566 92 2 C90.35 1.67 88.7 1.34 87 1 C87 0.67 87 0.34 87 0 C99.54 0 112.08 0 125 0 C125 0.33 125 0.66 125 1 C124.33991943 1.01981934 123.67983887 1.03963867 122.99975586 1.06005859 C119.97863636 1.15593352 116.95814992 1.26535753 113.9375 1.375 C112.89916016 1.4059375 111.86082031 1.436875 110.79101562 1.46875 C102.68552038 1.7200145 102.68552038 1.7200145 95 4 C93.43842997 6.32652646 93.43842997 6.32652646 92.5 9.0625 C91.0859375 11.77734375 91.0859375 11.77734375 89 14 C83.9367626 15.19918781 79.17766306 15.22397016 74 15 C78.29 15.33 82.58 15.66 87 16 C86.835 17.340625 86.67 18.68125 86.5 20.0625 C86.04889689 24.07795307 85.91410307 27.96284418 86 32 C87.98 32.495 87.98 32.495 90 33 C88.35 33 86.7 33 85 33 C84.019497 28.09748502 84 24.19057759 84 19 C77.73 18.67 71.46 18.34 65 18 C65 19.98 65 21.96 65 24 C64 25 64 25 61.86766052 25.12025452 C60.92834183 25.11803391 59.98902313 25.11581329 59.02124023 25.11352539 C57.96021591 25.11344986 56.89919159 25.11337433 55.80601501 25.11329651 C54.651866 25.10813522 53.49771698 25.10297394 52.30859375 25.09765625 C51.13361832 25.0962413 49.95864288 25.09482635 48.74806213 25.09336853 C44.97784936 25.08774992 41.20769496 25.07519426 37.4375 25.0625 C34.88867273 25.0574874 32.33984453 25.05292408 29.79101562 25.04882812 C23.52732367 25.03777444 17.26366601 25.02101821 11 25 C11 24.67 11 24.34 11 24 C28.49 23.67 45.98 23.34 64 23 C64 21.02 64 19.04 64 17 C64.66 17 65.32 17 66 17 C66 16.34 66 15.68 66 15 C65.34 15 64.68 15 64 15 C64 12.36 64 9.72 64 7 C38.26 7 12.52 7 -14 7 C-14 6.67 -14 6.34 -14 6 C-12.35 6 -10.7 6 -9 6 C-8.67 4.68 -8.34 3.36 -8 2 C-8 3.32 -8 4.64 -8 6 C-7.01 5.67 -6.02 5.34 -5 5 C-4.67 4.01 -4.34 3.02 -4 2 C-2.68 2.33 -1.36 2.66 0 3 C0 2.01 0 1.02 0 0 Z M36 1 C36.66 2.32 37.32 3.64 38 5 C38.99 5 39.98 5 41 5 C41.66 3.68 42.32 2.36 43 1 C40.69 1 38.38 1 36 1 Z " fill="#333134" transform="translate(170,104)"/>
<path d="M0 0 C5.445 0.495 5.445 0.495 11 1 C8 3 8 3 6 3 C6 3.66 6 4.32 6 5 C7.98 5 9.96 5 12 5 C12.33 4.01 12.66 3.02 13 2 C13.66 2.99 14.32 3.98 15 5 C15.66 3.68 16.32 2.36 17 1 C19.64 1 22.28 1 25 1 C26.11351069 6.14998692 26 10.65295529 26 16 C41.84 16 57.68 16 74 16 C74 16.33 74 16.66 74 17 C73.15031143 16.99777939 72.30062286 16.99555878 71.42518616 16.99327087 C63.43463275 16.97326986 55.4440877 16.95802684 47.45351505 16.94818783 C43.34505715 16.94295954 39.23661986 16.93586287 35.12817383 16.92456055 C31.16653172 16.91372975 27.20490948 16.90772276 23.24325371 16.90512276 C21.72851689 16.90326886 20.21378121 16.8996489 18.69905281 16.89426994 C16.58458187 16.88705693 14.47019406 16.88600917 12.35571289 16.88647461 C11.14992081 16.884254 9.94412872 16.88203339 8.70179749 16.87974548 C6.08325599 16.69175539 6.08325599 16.69175539 5 18 C1.89748799 18.08874135 -1.1826812 18.11518455 -4.28515625 18.09765625 C-5.21597519 18.0962413 -6.14679413 18.09482635 -7.1058197 18.09336853 C-10.09141191 18.08775172 -13.07693029 18.0751964 -16.0625 18.0625 C-18.08137913 18.05748716 -20.10025943 18.05292388 -22.11914062 18.04882812 C-27.07945572 18.03777683 -32.03971532 18.02050095 -37 18 C-37 17.67 -37 17.34 -37 17 C-32.22721102 16.05135075 -27.60534023 15.86828579 -22.7578125 15.90234375 C-21.98944061 15.9037587 -21.22106873 15.90517365 -20.42941284 15.90663147 C-17.99456761 15.91219317 -15.55981706 15.9247384 -13.125 15.9375 C-11.46614717 15.94251996 -9.80729288 15.94708199 -8.1484375 15.95117188 C-4.0989223 15.96215002 -0.04947716 15.97938794 4 16 C4.33 13.69 4.66 11.38 5 9 C7.31 9 9.62 9 12 9 C12 8.34 12 7.68 12 7 C9.36 7 6.72 7 4 7 C4 5.02 4 3.04 4 1 C2.68 0.67 1.36 0.34 0 0 Z M18 3 C18 3.66 18 4.32 18 5 C19.98 5 21.96 5 24 5 C24 4.34 24 3.68 24 3 C22.02 3 20.04 3 18 3 Z M6 10 C6 10.66 6 11.32 6 12 C8.31 12 10.62 12 13 12 C13 11.34 13 10.68 13 10 C10.69 10 8.38 10 6 10 Z M16 10 C16 10.66 16 11.32 16 12 C18.64 12 21.28 12 24 12 C24 11.34 24 10.68 24 10 C21.36 10 18.72 10 16 10 Z " fill="#151215" transform="translate(156,111)"/>
<path d="M0 0 C2.475 0.495 2.475 0.495 5 1 C4.855625 1.70125 4.71125 2.4025 4.5625 3.125 C3.98520948 6.07559597 3.48891532 9.03363983 3 12 C4.18774678 11.99815641 5.37549356 11.99631283 6.59923267 11.99441338 C34.77644978 11.95112352 62.95366524 11.91813192 91.13090845 11.89786934 C94.5969566 11.89536784 98.06300469 11.89277921 101.52905273 11.89013672 C102.21909782 11.8896121 102.9091429 11.88908748 103.62009843 11.88854696 C114.80194014 11.87983779 125.98376133 11.86406501 137.16559086 11.84569441 C148.63410153 11.82700957 160.10259554 11.81603604 171.57112187 11.81182301 C178.01495228 11.80921001 184.45873613 11.8030459 190.90255165 11.78853989 C196.96236636 11.77500829 203.02211514 11.77076837 209.08194351 11.77378464 C211.31085378 11.77323249 213.53976616 11.76922883 215.76866341 11.76158905 C218.80238545 11.75169701 221.83585575 11.75401007 224.86958313 11.75949097 C225.75965366 11.75366528 226.64972419 11.7478396 227.56676656 11.74183738 C233.65763637 11.77175758 233.65763637 11.77175758 237 14 C158.79 13.67 80.58 13.34 0 13 C0 8.71 0 4.42 0 0 Z " fill="#282727" transform="translate(121,26)"/>
<path d="M0 0 C8.25 0 16.5 0 25 0 C25 0.33 25 0.66 25 1 C18.07 1 11.14 1 4 1 C4 2.32 4 3.64 4 5 C13.9 5 23.8 5 34 5 C33.34 3.35 32.68 1.7 32 0 C40.91 0 49.82 0 59 0 C59 0.33 59 0.66 59 1 C54.71 1 50.42 1 46 1 C45.67 2.32 45.34 3.64 45 5 C51.6 5.33 58.2 5.66 65 6 C65 7.65 65 9.3 65 11 C64.505 9.02 64.505 9.02 64 7 C38.26 7 12.52 7 -14 7 C-14 6.67 -14 6.34 -14 6 C-12.35 6 -10.7 6 -9 6 C-8.67 4.68 -8.34 3.36 -8 2 C-8 3.32 -8 4.64 -8 6 C-7.01 5.67 -6.02 5.34 -5 5 C-4.67 4.01 -4.34 3.02 -4 2 C-2.68 2.33 -1.36 2.66 0 3 C0 2.01 0 1.02 0 0 Z M36 1 C36.66 2.32 37.32 3.64 38 5 C38.99 5 39.98 5 41 5 C41.66 3.68 42.32 2.36 43 1 C40.69 1 38.38 1 36 1 Z " fill="#2C272C" transform="translate(170,104)"/>
<path d="M0 0 C0.66 0.33 1.32 0.66 2 1 C3.66194453 1.35613097 5.328451 1.69208308 7 2 C7.06058594 2.77085938 7.12117188 3.54171875 7.18359375 4.3359375 C7.30927734 5.84027344 7.30927734 5.84027344 7.4375 7.375 C7.51871094 8.37273437 7.59992188 9.37046875 7.68359375 10.3984375 C7.84965626 12.97927613 7.84965626 12.97927613 9 15 C8.01 14.67 7.02 14.34 6 14 C6 10.7 6 7.4 6 4 C4.02 4.99 4.02 4.99 2 6 C2 9.3 2 12.6 2 16 C1.01 16.33 0.02 16.66 -1 17 C-0.938125 18.3921875 -0.938125 18.3921875 -0.875 19.8125 C-1 23 -1 23 -3 26 C-4.32 25.67 -5.64 25.34 -7 25 C-7 22.36 -7 19.72 -7 17 C-8.32 17 -9.64 17 -11 17 C-11.33 18.98 -11.66 20.96 -12 23 C-12.33 23 -12.66 23 -13 23 C-12.67 20.69 -12.34 18.38 -12 16 C-10.35 16 -8.7 16 -7 16 C-7.09539062 15.40832031 -7.19078125 14.81664063 -7.2890625 14.20703125 C-8.49291785 5.62606232 -8.49291785 5.62606232 -6 2 C-3.4375 1.25 -3.4375 1.25 -1 1 C-0.67 0.67 -0.34 0.34 0 0 Z " fill="#222122" transform="translate(347,111)"/>
<path d="M0 0 C0.33 0 0.66 0 1 0 C1 17.49 1 34.98 1 53 C4.63 53 8.26 53 12 53 C14.67226006 53.28504107 17.3426823 53.59889544 20 54 C20 54.66 20 55.32 20 56 C16.7 56 13.4 56 10 56 C10 56.66 10 57.32 10 58 C19.9 58 29.8 58 40 58 C35.87485791 60.06257104 34.18199862 60.23756602 29.703125 60.1953125 C27.89521484 60.18564453 27.89521484 60.18564453 26.05078125 60.17578125 C24.79652344 60.15902344 23.54226562 60.14226562 22.25 60.125 C20.98027344 60.11597656 19.71054688 60.10695312 18.40234375 60.09765625 C15.26803907 60.07409005 12.13411459 60.04118832 9 60 C9 61.32 9 62.64 9 64 C7.68 63.67 6.36 63.34 5 63 C5.99 63 6.98 63 8 63 C8 61.68 8 60.36 8 59 C5.36 59 2.72 59 0 59 C0 39.53 0 20.06 0 0 Z " fill="#5F5D60" transform="translate(110,51)"/>
<path d="M0 0 C0.495 0.99 0.495 0.99 1 2 C3.31 2 5.62 2 8 2 C8.33 1.34 8.66 0.68 9 0 C9.66 0 10.32 0 11 0 C11 0.66 11 1.32 11 2 C13.64 2 16.28 2 19 2 C19 2.33 19 2.66 19 3 C16.36 3.33 13.72 3.66 11 4 C13.97 4.33 16.94 4.66 20 5 C19.67 5.66 19.34 6.32 19 7 C17.06833984 6.98259766 17.06833984 6.98259766 15.09765625 6.96484375 C13.41927228 6.9554673 11.74088674 6.94636695 10.0625 6.9375 C9.21236328 6.92912109 8.36222656 6.92074219 7.48632812 6.91210938 C6.67744141 6.90888672 5.86855469 6.90566406 5.03515625 6.90234375 C4.2862915 6.89710693 3.53742676 6.89187012 2.76586914 6.88647461 C0.97332261 6.80658248 0.97332261 6.80658248 0 8 C-3.10251201 8.08874135 -6.1826812 8.11518455 -9.28515625 8.09765625 C-10.21597519 8.0962413 -11.14679413 8.09482635 -12.1058197 8.09336853 C-15.09141191 8.08775172 -18.07693029 8.0751964 -21.0625 8.0625 C-23.08137913 8.05748716 -25.10025943 8.05292388 -27.11914062 8.04882812 C-32.07945572 8.03777683 -37.03971532 8.02050095 -42 8 C-42 7.67 -42 7.34 -42 7 C-37.22721102 6.05135075 -32.60534023 5.86828579 -27.7578125 5.90234375 C-26.98944061 5.9037587 -26.22106873 5.90517365 -25.42941284 5.90663147 C-22.99456761 5.91219317 -20.55981706 5.9247384 -18.125 5.9375 C-16.46614717 5.94251996 -14.80729288 5.94708199 -13.1484375 5.95117188 C-9.0989223 5.96215002 -5.04947716 5.97938794 -1 6 C-0.67 4.02 -0.34 2.04 0 0 Z " fill="#272328" transform="translate(161,121)"/>
<path d="M0 0 C2.475 0.495 2.475 0.495 5 1 C4.855625 1.70125 4.71125 2.4025 4.5625 3.125 C3.9857295 6.07293814 3.49382685 9.03703889 3 12 C29.73 12 56.46 12 84 12 C84 12.33 84 12.66 84 13 C56.28 13 28.56 13 0 13 C0 8.71 0 4.42 0 0 Z " fill="#292829" transform="translate(121,26)"/>
<path d="M0 0 C0.33 0 0.66 0 1 0 C2.00494402 5.82229471 2.15062028 11.47379638 2.125 17.375 C2.12886719 18.28894531 2.13273437 19.20289062 2.13671875 20.14453125 C2.13542969 21.01207031 2.13414062 21.87960938 2.1328125 22.7734375 C2.13168457 23.56153809 2.13055664 24.34963867 2.12939453 25.16162109 C2 27 2 27 1 28 C-0.66617115 28.04063832 -2.33388095 28.042721 -4 28 C-5.53266582 24.93466836 -5.10276471 21.73245728 -5.0625 18.375 C-5.05798828 17.66859375 -5.05347656 16.9621875 -5.04882812 16.234375 C-5.03703875 14.48954725 -5.01910324 12.744763 -5 11 C-5.66 10.67 -6.32 10.34 -7 10 C-5.68 10 -4.36 10 -3 10 C-2.67 12.64 -2.34 15.28 -2 18 C-1.67 18 -1.34 18 -1 18 C-0.505 9.09 -0.505 9.09 0 0 Z " fill="#6D6B6D" transform="translate(374,103)"/>
<path d="M0 0 C7.26 0 14.52 0 22 0 C20.68 0.33 19.36 0.66 18 1 C18 2.65 18 4.3 18 6 C13.15369374 7.29234833 7.96435499 7.79291781 3 7 C0.81817659 4.56149148 0 3.2678851 0 0 Z " fill="#2A2629" transform="translate(143,104)"/>
<path d="M0 0 C12.54 0 25.08 0 38 0 C38 0.33 38 0.66 38 1 C37.33991943 1.01981934 36.67983887 1.03963867 35.99975586 1.06005859 C32.97863636 1.15593352 29.95814992 1.26535753 26.9375 1.375 C25.89916016 1.4059375 24.86082031 1.436875 23.79101562 1.46875 C15.69123897 1.73466665 15.69123897 1.73466665 8 4 C6.59122923 6.1410654 6.59122923 6.1410654 5.75 8.625 C4.3515625 11.06640625 4.3515625 11.06640625 2 13 C-4.21222849 14.22440188 -10.73677787 13.50229801 -17 13 C-17 12.67 -17 12.34 -17 12 C-11.39 12 -5.78 12 0 12 C0.66 10.35 1.32 8.7 2 7 C2.97236487 5.3170608 3.96564444 3.64556566 5 2 C2.525 1.505 2.525 1.505 0 1 C0 0.67 0 0.34 0 0 Z " fill="#3F3A3E" transform="translate(257,104)"/>
<path d="M0 0 C8.25 0 16.5 0 25 0 C25 0.33 25 0.66 25 1 C18.07 1 11.14 1 4 1 C4 2.32 4 3.64 4 5 C6.31 5 8.62 5 11 5 C11 5.33 11 5.66 11 6 C5.67132017 7.10941367 0.53718145 7.11548069 -4.875 7.0625 C-5.75414062 7.05798828 -6.63328125 7.05347656 -7.5390625 7.04882812 C-9.69273803 7.03712337 -11.84637817 7.01919069 -14 7 C-14 6.67 -14 6.34 -14 6 C-12.35 6 -10.7 6 -9 6 C-8.67 4.68 -8.34 3.36 -8 2 C-8 3.32 -8 4.64 -8 6 C-7.01 5.67 -6.02 5.34 -5 5 C-4.67 4.01 -4.34 3.02 -4 2 C-2.68 2.33 -1.36 2.66 0 3 C0 2.01 0 1.02 0 0 Z " fill="#555054" transform="translate(170,104)"/>
<path d="M0 0 C2.97 0 5.94 0 9 0 C9 1.65 9 3.3 9 5 C11.31 5.33 13.62 5.66 16 6 C16 4.35 16 2.7 16 1 C18.31 1 20.62 1 23 1 C23.33 1.66 23.66 2.32 24 3 C23.01 3.495 23.01 3.495 22 4 C22.66 4.66 23.32 5.32 24 6 C20.9317362 6.89749822 18.20730024 7.11711768 15.015625 7.09765625 C14.08105469 7.09443359 13.14648438 7.09121094 12.18359375 7.08789062 C11.21550781 7.07951172 10.24742187 7.07113281 9.25 7.0625 C8.26644531 7.05798828 7.28289062 7.05347656 6.26953125 7.04882812 C3.84629209 7.03706483 1.42317727 7.02062684 -1 7 C-0.67 4.69 -0.34 2.38 0 0 Z M1 1 C1 1.66 1 2.32 1 3 C3.31 3 5.62 3 8 3 C8 2.34 8 1.68 8 1 C5.69 1 3.38 1 1 1 Z M17 2 C17 2.66 17 3.32 17 4 C18.65 3.67 20.3 3.34 22 3 C22 2.67 22 2.34 22 2 C20.35 2 18.7 2 17 2 Z " fill="#4E494D" transform="translate(340,104)"/>
<path d="M0 0 C1.65 0.33 3.3 0.66 5 1 C4.835 1.598125 4.67 2.19625 4.5 2.8125 C3.7628888 6.03736149 3.87083786 7.71584329 5.25 10.75 C6.08480319 14.36748049 5.88793 14.82993909 4.125 17.875 C3.42375 18.90625 2.7225 19.9375 2 21 C1.67 20.34 1.34 19.68 1 19 C0.34 19 -0.32 19 -1 19 C-1 15.37 -1 11.74 -1 8 C-0.34 8 0.32 8 1 8 C1 6.68 1 5.36 1 4 C1.66 4 2.32 4 3 4 C3 3.34 3 2.68 3 2 C2.01 2 1.02 2 0 2 C0 1.34 0 0.68 0 0 Z M1 12 C2 14 2 14 2 14 Z " fill="#3E3A3D" transform="translate(378,55)"/>
<path d="M0 0 C1.65322266 0.01740234 1.65322266 0.01740234 3.33984375 0.03515625 C4.99693359 0.04869141 4.99693359 0.04869141 6.6875 0.0625 C7.54214844 0.07410156 8.39679688 0.08570312 9.27734375 0.09765625 C8.78363281 0.48824219 8.28992188 0.87882812 7.78125 1.28125 C5.77549893 3.70378051 6.02808054 5.06717533 6.21484375 8.16015625 C6.3671875 10.8203125 6.3671875 10.8203125 6.27734375 13.09765625 C5.61734375 13.75765625 4.95734375 14.41765625 4.27734375 15.09765625 C2.27734375 13.09765625 2.27734375 13.09765625 2.08203125 10.49609375 C2.10523438 9.49835938 2.1284375 8.500625 2.15234375 7.47265625 C2.17039062 6.46976562 2.1884375 5.466875 2.20703125 4.43359375 C2.23023438 3.66273437 2.2534375 2.891875 2.27734375 2.09765625 C1.65859375 2.30390625 1.03984375 2.51015625 0.40234375 2.72265625 C-0.29890625 2.84640625 -1.00015625 2.97015625 -1.72265625 3.09765625 C-2.38265625 2.43765625 -3.04265625 1.77765625 -3.72265625 1.09765625 C-2.72265625 0.09765625 -2.72265625 0.09765625 0 0 Z " fill="#121115" transform="translate(351.72265625,110.90234375)"/>
<path d="M0 0 C0.33 0 0.66 0 1 0 C1.33 20.46 1.66 40.92 2 62 C0.68 61.34 -0.64 60.68 -2 60 C-1.01 59.505 -1.01 59.505 0 59 C0 39.53 0 20.06 0 0 Z " fill="#1F1D1E" transform="translate(109,50)"/>
<path d="M0 0 C8.91 0 17.82 0 27 0 C27 0.33 27 0.66 27 1 C22.71 1 18.42 1 14 1 C13.34 2.65 12.68 4.3 12 6 C8.94927674 6.28780408 6.03878335 6.45258475 3 6 C0 2.45454545 0 2.45454545 0 0 Z M4 1 C4.66 2.32 5.32 3.64 6 5 C6.99 5 7.98 5 9 5 C9.66 3.68 10.32 2.36 11 1 C8.69 1 6.38 1 4 1 Z " fill="#544B51" transform="translate(202,104)"/>
<path d="M0 0 C0.66 0.33 1.32 0.66 2 1 C3.66194453 1.35613097 5.328451 1.69208308 7 2 C7.06058594 2.77085938 7.12117188 3.54171875 7.18359375 4.3359375 C7.26738281 5.33882813 7.35117187 6.34171875 7.4375 7.375 C7.51871094 8.37273437 7.59992188 9.37046875 7.68359375 10.3984375 C7.84965626 12.97927613 7.84965626 12.97927613 9 15 C8.01 14.67 7.02 14.34 6 14 C6 10.7 6 7.4 6 4 C4.02 4.99 4.02 4.99 2 6 C2 9.3 2 12.6 2 16 C1.01 16.33 0.02 16.66 -1 17 C-1 18.98 -1 20.96 -1 23 C-1.33 23 -1.66 23 -2 23 C-2 20.69 -2 18.38 -2 16 C-1.34 16 -0.68 16 0 16 C0 11.71 0 7.42 0 3 C-0.66 2.67 -1.32 2.34 -2 2 C-1.34 1.34 -0.68 0.68 0 0 Z " fill="#444247" transform="translate(347,111)"/>
<path d="M0 0 C0.33 1.32 0.66 2.64 1 4 C2.65 3.67 4.3 3.34 6 3 C5.01 4.485 5.01 4.485 4 6 C2.68 6 1.36 6 0 6 C0 9.96 0 13.92 0 18 C0.99 18 1.98 18 3 18 C3 18.66 3 19.32 3 20 C1.68 20 0.36 20 -1 20 C-1 16.04 -1 12.08 -1 8 C-2.98 8 -4.96 8 -7 8 C-6.54625 7.5875 -6.0925 7.175 -5.625 6.75 C-3.9085616 5.06583565 -3.9085616 5.06583565 -2.9375 2.875 C-2 1 -2 1 0 0 Z " fill="#2D282E" transform="translate(364,106)"/>
<path d="M0 0 C0.33 0.33 0.66 0.66 1 1 C0.71269945 3.33944736 0.38063221 5.6739143 0 8 C-1.65 8 -3.3 8 -5 8 C-5 5.69 -5 3.38 -5 1 C-6.32 0.67 -7.64 0.34 -9 0 C-5.50340123 -1.16553292 -3.55568859 -0.77297578 0 0 Z " fill="#333234" transform="translate(115,27)"/>
<path d="M0 0 C2.475 0.495 2.475 0.495 5 1 C4.855625 1.70125 4.71125 2.4025 4.5625 3.125 C3.98521625 6.07556141 3.48304859 9.03270151 3 12 C3.99 12.33 4.98 12.66 6 13 C4.02 13 2.04 13 0 13 C0 8.71 0 4.42 0 0 Z " fill="#474348" transform="translate(121,26)"/>
<path d="M0 0 C1.98 0.99 1.98 0.99 4 2 C4 5.3 4 8.6 4 12 C2.68 12 1.36 12 0 12 C0 8.04 0 4.08 0 0 Z " fill="#0F0B0E" transform="translate(364,112)"/>
<path d="M0 0 C3.63 0.33 7.26 0.66 11 1 C8 3 8 3 6 3 C6 3.66 6 4.32 6 5 C7.98 5 9.96 5 12 5 C12.33 4.01 12.66 3.02 13 2 C13.33 3.65 13.66 5.3 14 7 C10.7 7 7.4 7 4 7 C4 5.02 4 3.04 4 1 C2.68 0.67 1.36 0.34 0 0 Z " fill="#322E31" transform="translate(156,111)"/>
<path d="M0 0 C0 2.31 0 4.62 0 7 C0.99 7 1.98 7 3 7 C3.33 6.01 3.66 5.02 4 4 C4.33 4.99 4.66 5.98 5 7 C0.56923077 9.09230769 0.56923077 9.09230769 -2.3125 8.625 C-2.869375 8.41875 -3.42625 8.2125 -4 8 C-4.33 5.69 -4.66 3.38 -5 1 C-2 0 -2 0 0 0 Z " fill="#363437" transform="translate(74,127)"/>
<path d="M0 0 C2.64 0 5.28 0 8 0 C8.38218767 1.65614657 8.71395102 3.32457024 9 5 C8 6 8 6 5.93359375 6.09765625 C5.10988281 6.08605469 4.28617188 6.07445313 3.4375 6.0625 C2.61121094 6.05347656 1.78492188 6.04445313 0.93359375 6.03515625 C0.29550781 6.02355469 -0.34257812 6.01195313 -1 6 C-0.67 4.02 -0.34 2.04 0 0 Z M1 2 C1 2.66 1 3.32 1 4 C2.98 4 4.96 4 7 4 C7 3.34 7 2.68 7 2 C5.02 2 3.04 2 1 2 Z " fill="#403E40" transform="translate(173,112)"/>
<path d="M0 0 C1.09067447 2.67711007 1.05161958 3.84514126 0.125 6.625 C-2 9 -2 9 -4.0300293 9.40356445 C-6.59882439 9.49352024 -9.12009627 9.43457845 -11.6875 9.3125 C-12.58017578 9.28994141 -13.47285156 9.26738281 -14.39257812 9.24414062 C-16.59674272 9.18520574 -18.79752672 9.10300818 -21 9 C-21 8.67 -21 8.34 -21 8 C-15.39 8 -9.78 8 -4 8 C-3.34 6.35 -2.68 4.7 -2 3 C-1.34 2.01 -0.68 1.02 0 0 Z " fill="#525051" transform="translate(261,108)"/>
<path d="M0 0 C0.66 0 1.32 0 2 0 C2.18451025 12.66970387 2.18451025 12.66970387 1 18 C0.67 18 0.34 18 0 18 C-1.21715636 12.06636277 -1.93703061 5.81109182 0 0 Z " fill="#0B0A0B" transform="translate(372,109)"/>
<path d="M0 0 C0.33 0 0.66 0 1 0 C1 2.31 1 4.62 1 7 C1.99 7.33 2.98 7.66 4 8 C2.625 9.5 2.625 9.5 1 11 C-1 11 -1 11 -2.4375 9.625 C-2.953125 9.08875 -3.46875 8.5525 -4 8 C-4.99 7.34 -5.98 6.68 -7 6 C-5.68 6 -4.36 6 -3 6 C-3.33 5.01 -3.66 4.02 -4 3 C-3.34 3 -2.68 3 -2 3 C-1.34 2.01 -0.68 1.02 0 0 Z " fill="#4E4C4E" transform="translate(370,95)"/>
<path d="M0 0 C0.33 0.66 0.66 1.32 1 2 C3.31 2 5.62 2 8 2 C8.33 1.34 8.66 0.68 9 0 C9.66 0 10.32 0 11 0 C11 0.66 11 1.32 11 2 C13.64 2 16.28 2 19 2 C19 2.33 19 2.66 19 3 C12.43507888 3.78441153 6.53162622 4.10914408 0 3 C0 2.01 0 1.02 0 0 Z " fill="#49474B" transform="translate(161,121)"/>
<path d="M0 0 C0.66 0 1.32 0 2 0 C4 3 4 3 4.4375 5.125 C4.7159375 6.053125 4.7159375 6.053125 5 7 C5.99 7.33 6.98 7.66 8 8 C6.02 8 4.04 8 2 8 C1.67 8.66 1.34 9.32 1 10 C0.67 6.7 0.34 3.4 0 0 Z " fill="#443D44" transform="translate(119,94)"/>
<path d="M0 0 C1.65 0 3.3 0 5 0 C5 3.96 5 7.92 5 12 C4.67 12 4.34 12 4 12 C4 9.36 4 6.72 4 4 C3.01 3.67 2.02 3.34 1 3 C0.67 2.01 0.34 1.02 0 0 Z " fill="#181518" transform="translate(342,114)"/>
<path d="M0 0 C1.72863281 0.30550781 1.72863281 0.30550781 3.4921875 0.6171875 C4.36101562 0.78476562 5.22984375 0.95234375 6.125 1.125 C6.125 1.455 6.125 1.785 6.125 2.125 C-0.145 2.125 -6.415 2.125 -12.875 2.125 C-12.875 1.795 -12.875 1.465 -12.875 1.125 C-8.14148891 -0.81732218 -5.00892561 -0.92000674 0 0 Z " fill="#525155" transform="translate(88.875,48.875)"/>
<path d="M0 0 C0.33 0 0.66 0 1 0 C1 3.96 1 7.92 1 12 C1.99 12.33 2.98 12.66 4 13 C2.68 13.33 1.36 13.66 0 14 C-1.10370043 10.6888987 -0.92673641 8.75251051 -0.5625 5.3125 C-0.46066406 4.31863281 -0.35882813 3.32476562 -0.25390625 2.30078125 C-0.17011719 1.54152344 -0.08632813 0.78226562 0 0 Z " fill="#2A262B" transform="translate(341,123)"/>
<path d="M0 0 C1.9375 0.375 1.9375 0.375 4 1 C4.33 1.66 4.66 2.32 5 3 C5.99 3.66 6.98 4.32 8 5 C5.125 5.125 5.125 5.125 2 5 C1.34 4.34 0.68 3.68 0 3 C0 2.01 0 1.02 0 0 Z " fill="#625D64" transform="translate(203,105)"/>
<path d="M0 0 C0.66 0 1.32 0 2 0 C2 1.65 2 3.3 2 5 C2.99 5 3.98 5 5 5 C5 5.66 5 6.32 5 7 C3.35 7 1.7 7 0 7 C0 4.69 0 2.38 0 0 Z " fill="#595859" transform="translate(110,28)"/>
<path d="M0 0 C0.33 0 0.66 0 1 0 C1.33 4.62 1.66 9.24 2 14 C0.68 13.34 -0.64 12.68 -2 12 C-1.34 11.67 -0.68 11.34 0 11 C0 7.37 0 3.74 0 0 Z " fill="#2A2929" transform="translate(109,98)"/>
<path d="M0 0 C-1.32 0.33 -2.64 0.66 -4 1 C-4 1.66 -4 2.32 -4 3 C-6.31 3 -8.62 3 -11 3 C-7.48550811 -0.37391222 -4.73940561 -0.27342725 0 0 Z " fill="#1D1A1D" transform="translate(368,111)"/>
<path d="M0 0 C2.875 -0.1875 2.875 -0.1875 6 0 C6.66 0.99 7.32 1.98 8 3 C5.69 3 3.38 3 1 3 C0.67 2.01 0.34 1.02 0 0 Z " fill="#130D12" transform="translate(121,102)"/>
<path d="M0 0 C1.65 0.33 3.3 0.66 5 1 C4.01 1.495 4.01 1.495 3 2 C3.33 2.99 3.66 3.98 4 5 C2.35 5 0.7 5 -1 5 C-0.67 3.35 -0.34 1.7 0 0 Z " fill="#878488" transform="translate(340,106)"/>
</svg>
