<?xml version="1.0" standalone="no"?>
<!DOCTYPE svg PUBLIC "-//W3C//DTD SVG 20010904//EN"
 "http://www.w3.org/TR/2001/REC-SVG-20010904/DTD/svg10.dtd">
<svg version="1.0" xmlns="http://www.w3.org/2000/svg"
 width="400.000000pt" height="400.000000pt" viewBox="0 0 400.000000 400.000000"
 preserveAspectRatio="xMidYMid meet">

<g transform="translate(0.000000,400.000000) scale(0.100000,-0.100000)"
fill="#000000" stroke="none">
<path d="M922 2875 c-12 -9 -77 -108 -144 -221 -67 -113 -134 -214 -148 -223
-14 -10 -108 -62 -210 -115 -276 -144 -300 -178 -300 -432 0 -136 10 -174 47
-174 14 0 13 -4 -5 -23 -20 -21 -22 -34 -22 -124 0 -98 1 -102 26 -122 24 -19
40 -21 185 -21 l159 0 0 23 c0 42 59 145 103 181 67 54 105 69 188 74 112 7
167 -15 246 -93 51 -51 65 -73 80 -123 l18 -62 88 0 87 0 0 70 c0 76 16 122
49 140 12 6 130 10 311 10 l292 0 29 -29 c27 -28 29 -34 29 -110 l0 -81 60 0
c56 0 60 2 60 23 0 37 46 123 89 166 60 60 113 84 202 89 112 7 167 -15 246
-93 52 -53 65 -72 79 -124 15 -52 21 -61 41 -61 17 0 23 6 23 23 0 37 57 143
96 176 60 53 112 74 195 79 55 3 91 0 127 -12 93 -31 185 -136 207 -233 l7
-33 186 0 c103 0 192 4 198 8 6 4 16 17 23 29 11 22 10 23 -37 23 -65 0 -102
27 -102 76 0 49 29 74 85 74 50 0 55 9 27 52 -39 59 -114 92 -282 125 -47 10
-86 18 -88 19 -1 0 20 23 47 50 159 159 38 418 -188 402 -201 -14 -290 -248
-153 -400 l34 -38 -497 0 -497 0 37 42 c89 105 80 247 -23 340 -51 46 -99 61
-178 56 -75 -5 -130 -37 -179 -106 -25 -37 -30 -55 -33 -117 -4 -65 -1 -79 24
-125 16 -29 39 -60 52 -71 25 -19 24 -19 -162 -19 l-186 0 0 469 c0 308 -4
479 -11 498 -5 15 -22 40 -37 56 l-26 27 -276 0 c-232 0 -279 -2 -298 -15z
m268 -295 l0 -210 -40 0 c-44 0 -57 -10 -107 -83 l-33 -47 -135 0 c-122 0
-137 2 -155 20 -42 42 -29 81 90 286 60 104 123 201 140 217 29 26 35 27 135
27 l105 0 0 -210z m200 195 c55 -28 65 -63 65 -223 0 -139 -1 -144 -24 -163
-18 -15 -39 -19 -102 -19 l-79 0 0 210 0 210 55 0 c31 0 69 -7 85 -15z m733
-609 c49 -21 79 -59 84 -109 17 -148 -187 -207 -251 -72 -32 67 -5 142 65 177
41 22 60 22 102 4z m1303 -12 c75 -50 79 -152 7 -214 -33 -30 -41 -32 -91 -28
-48 4 -60 10 -89 41 -27 30 -33 45 -33 82 0 71 35 122 95 138 29 8 84 -2 111
-19z m-3153 -164 c54 -61 18 -153 -65 -167 l-38 -6 0 108 0 108 38 -6 c24 -4
47 -17 65 -37z"/>
<path d="M2055 2143 c-56 -15 -93 -73 -79 -127 9 -39 59 -76 101 -76 44 0 103
54 103 94 0 42 -28 86 -65 102 -19 8 -36 13 -37 13 -2 -1 -12 -4 -23 -6z"/>
<path d="M3323 2138 c-90 -23 -99 -153 -13 -188 100 -42 185 75 115 158 -28
34 -56 42 -102 30z"/>
<path d="M2594 2715 c-138 -30 -265 -95 -381 -196 -62 -53 -65 -54 -265 -112
-121 -34 -221 -69 -248 -85 -65 -40 -101 -105 -108 -190 -7 -106 -1 -112 112
-112 l94 0 7 48 c21 146 128 243 269 244 143 1 256 -100 273 -241 l6 -51 363
0 364 0 0 43 c0 132 130 250 275 249 142 -1 265 -119 265 -256 l0 -36 100 0
c120 0 120 -1 120 132 0 119 -13 163 -60 211 l-38 38 50 25 c43 22 49 28 46
52 l-3 27 -105 3 c-101 3 -109 1 -163 -28 l-56 -30 -83 60 c-115 83 -284 165
-403 195 -81 21 -120 25 -234 24 -75 0 -163 -7 -197 -14z m186 -150 l0 -135
-302 0 -302 0 30 31 c130 136 343 230 542 238 l32 1 0 -135z m162 121 c148
-29 272 -83 426 -186 51 -34 92 -63 92 -66 0 -2 -144 -4 -320 -4 l-320 0 0
135 0 135 24 0 c13 0 57 -6 98 -14z"/>
<path d="M727 1646 c-66 -24 -120 -74 -155 -141 -21 -40 -26 -64 -25 -120 0
-108 46 -186 140 -242 63 -37 171 -44 235 -15 62 27 122 84 150 140 27 57 30
167 6 223 -22 50 -73 105 -125 136 -55 32 -166 42 -226 19z m182 -135 c116
-83 65 -266 -78 -278 -163 -14 -226 210 -81 289 45 25 115 20 159 -11z"/>
<path d="M754 1481 c-67 -41 -67 -151 -1 -191 60 -37 142 -18 172 40 56 108
-66 215 -171 151z"/>
<path d="M2362 1644 c-60 -22 -135 -98 -155 -158 -37 -108 -13 -221 63 -296
128 -129 347 -98 436 62 25 46 29 63 29 133 0 63 -5 89 -22 121 -28 53 -75 99
-127 126 -54 28 -165 34 -224 12z m186 -131 c49 -37 67 -71 67 -128 0 -155
-203 -213 -281 -80 -30 52 -31 105 -2 156 41 74 151 101 216 52z"/>
<path d="M2384 1466 c-29 -29 -34 -41 -34 -81 0 -40 5 -52 34 -81 29 -29 41
-34 80 -34 67 0 107 38 114 108 4 49 2 54 -31 87 -30 30 -42 35 -82 35 -40 0
-52 -5 -81 -34z"/>
<path d="M3044 1644 c-175 -64 -232 -296 -109 -442 73 -87 212 -118 316 -70
63 29 111 73 142 132 31 58 31 184 0 242 -27 51 -77 100 -128 126 -52 27 -164
34 -221 12z m184 -131 c49 -37 67 -71 67 -128 0 -85 -56 -145 -142 -152 -122
-10 -200 115 -143 227 38 75 151 103 218 53z"/>
<path d="M3075 1478 c-41 -32 -59 -81 -45 -124 27 -81 126 -111 189 -58 53 44
54 123 1 175 -37 37 -103 40 -145 7z"/>
<path d="M1375 1585 c-22 -21 -25 -33 -25 -94 0 -85 13 -117 53 -131 40 -13
506 -14 543 0 44 17 53 38 54 123 0 70 -3 81 -25 102 l-24 25 -276 0 -276 0
-24 -25z m103 -102 c-2 -44 -7 -58 -18 -58 -11 0 -16 14 -18 58 -3 52 -1 57
18 57 19 0 21 -5 18 -57z m107 -3 c0 -42 -3 -55 -15 -55 -11 0 -16 14 -18 58
-3 52 -1 58 15 55 15 -3 18 -13 18 -58z m105 0 c0 -47 -3 -60 -15 -60 -12 0
-15 13 -15 60 0 47 3 60 15 60 12 0 15 -13 15 -60z m110 0 c0 -47 -3 -60 -15
-60 -12 0 -15 13 -15 60 0 47 3 60 15 60 12 0 15 -13 15 -60z m108 3 c-2 -44
-7 -58 -18 -58 -11 0 -16 13 -18 44 -4 52 2 71 23 71 13 0 15 -10 13 -57z"/>
<path d="M3764 1585 c-13 -21 -15 -31 -6 -50 10 -22 18 -25 67 -25 l56 0 -3
48 -3 47 -47 3 c-41 3 -49 0 -64 -23z"/>
</g>
</svg>
