<?xml version="1.0" encoding="UTF-8"?>
<svg version="1.1" xmlns="http://www.w3.org/2000/svg" width="566" height="441">
<path d="M0 0 C1.63167594 0.00488742 3.26335343 0.00928079 4.89503193 0.0132246 C8.43310874 0.02252831 11.97115976 0.03474958 15.50922012 0.0489769 C21.21002623 0.07117421 26.91082405 0.08236201 32.61166382 0.09170532 C57.40092898 0.13439501 82.19008094 0.21471935 106.97921276 0.30529499 C119.46123136 0.35057919 131.94321805 0.39000024 144.42529297 0.41601562 C155.41742 0.43893462 166.40945661 0.47221799 177.40151197 0.51828164 C183.19361892 0.54220608 188.98563673 0.56094264 194.77779198 0.56719398 C200.18976983 0.57320543 205.60151487 0.59306016 211.01340675 0.62385559 C213.00086481 0.63268415 214.9883532 0.63634853 216.97583008 0.63458824 C219.67749423 0.63294971 222.37843628 0.64950891 225.08000183 0.67085266 C225.87381876 0.66600509 226.66763568 0.66115751 227.48550767 0.65616304 C229.66624737 0.68481922 229.66624737 0.68481922 233.11987305 1.06958008 C235.36130977 4.43173517 235.37229668 5.53525568 235.38056946 9.46607971 C235.38765427 10.58639587 235.39473907 11.70671204 235.40203857 12.86097717 C235.39956116 14.09069748 235.39708374 15.32041779 235.39453125 16.58740234 C235.40219765 18.52907791 235.40219765 18.52907791 235.41001892 20.50997925 C235.42341999 24.06150417 235.42398656 27.61292276 235.42145562 31.16446805 C235.42038702 34.12695009 235.42526623 37.08941051 235.43006104 40.05188793 C235.44115927 47.03786357 235.44159135 54.02378543 235.43554688 61.00976562 C235.42950069 68.22450528 235.44183361 75.43905024 235.46311694 82.65375668 C235.4807065 88.84319415 235.48673865 95.03256949 235.4834792 101.22203106 C235.48166253 104.92099389 235.48434076 108.61981773 235.49819374 112.31875801 C235.51304974 116.43968579 235.5038253 120.56021431 235.4921875 124.68115234 C235.49983124 125.91289688 235.50747498 127.14464142 235.51535034 128.41371155 C235.50833603 129.53120789 235.50132172 130.64870422 235.49409485 131.80006409 C235.49434646 133.26263563 235.49434646 133.26263563 235.49460316 134.75475407 C235.37094222 135.51864665 235.24728128 136.28253923 235.11987305 137.06958008 C231.36791471 139.57088564 228.42815976 139.36177524 224.08277893 139.3547821 C223.25371456 139.36128007 222.42465018 139.36777804 221.57046264 139.37447292 C218.78034226 139.39388167 215.99037567 139.39904168 213.20019531 139.40429688 C211.20219964 139.41523094 209.2042085 139.42702145 207.20622253 139.43960571 C201.75735347 139.47131173 196.3085038 139.49050209 190.85957074 139.50722861 C185.11988681 139.52662789 179.38025536 139.55636293 173.64060974 139.58467102 C163.95671508 139.63084647 154.27281363 139.66916802 144.58886719 139.70263672 C133.51005794 139.74099483 122.43134185 139.7902302 111.35260731 139.84596699 C100.61371951 139.89982236 89.87481198 139.94664146 79.13587761 139.99015236 C74.61438795 140.008521 70.0929156 140.02896967 65.57144356 140.05124474 C43.7723755 140.15574463 21.97331339 140.1875518 0.1764735 139.80928004 C-1.76462444 139.77690738 -3.7058062 139.74918579 -5.64704025 139.72639215 C-8.30748005 139.69322026 -10.96684575 139.64101282 -13.62684631 139.58308411 C-14.40930336 139.57652648 -15.1917604 139.56996886 -15.99792826 139.56321251 C-19.10933353 139.47710941 -21.54263742 139.23185329 -24.36505222 137.8747673 C-26.43944167 135.40316557 -26.37818781 133.88220224 -26.37460327 130.67308044 C-26.38299225 129.55276428 -26.39138123 128.43244812 -26.40002441 127.27818298 C-26.3887854 126.04846268 -26.37754639 124.81874237 -26.3659668 123.55175781 C-26.36976349 122.25730743 -26.37356018 120.96285706 -26.37747192 119.62918091 C-26.38717248 116.07749706 -26.37185445 112.52631524 -26.35156584 108.97469211 C-26.33401255 105.26137779 -26.33751956 101.5480794 -26.33828735 97.83473206 C-26.33641386 91.59953395 -26.31904236 85.36453044 -26.29174805 79.12939453 C-26.26028288 71.91468105 -26.24975229 64.70018062 -26.25121915 57.48540348 C-26.25243871 50.55114747 -26.24223793 43.61696103 -26.22563553 36.68272591 C-26.21856412 33.72861247 -26.21490822 30.77452364 -26.21384811 27.82040215 C-26.21147097 23.69950112 -26.19206738 19.57885382 -26.1706543 15.45800781 C-26.17156067 14.22626328 -26.17246704 12.99451874 -26.17340088 11.72544861 C-26.16487091 10.60795227 -26.15634094 9.49045593 -26.14755249 8.33909607 C-26.1442008 7.36404838 -26.14084911 6.38900068 -26.13739586 5.38440609 C-25.88012695 3.06958008 -25.88012695 3.06958008 -23.88012695 1.06958008 C-16.0351245 -0.48477678 -7.96395979 -0.04240537 0 0 Z " fill="#040404" transform="translate(264.880126953125,148.930419921875)"/>
<path d="M0 0 C0.9077417 -0.01283524 1.8154834 -0.02567047 2.75073242 -0.03889465 C3.72373291 -0.04628159 4.6967334 -0.05366852 5.69921875 -0.0612793 C6.70509033 -0.06935104 7.71096191 -0.07742279 8.74731445 -0.08573914 C10.87221565 -0.09955446 12.9971388 -0.11028799 15.12207031 -0.11816406 C18.37477198 -0.13543461 21.62647202 -0.17935042 24.87890625 -0.22338867 C26.94400295 -0.23351111 29.00910827 -0.24202861 31.07421875 -0.2487793 C32.04721924 -0.26628738 33.02021973 -0.28379547 34.02270508 -0.30183411 C34.93044678 -0.29890854 35.83818848 -0.29598297 36.7734375 -0.29296875 C37.96779419 -0.30176811 37.96779419 -0.30176811 39.1862793 -0.31074524 C42.45621783 0.41406604 43.48863715 1.40478287 45.38671875 4.17700195 C45.98258851 7.26388777 45.95047826 10.30734919 45.93261719 13.44360352 C45.94295486 14.3805304 45.95329254 15.31745728 45.96394348 16.28277588 C45.99342794 19.3779005 45.99487187 22.47237278 45.99609375 25.56762695 C46.01107156 27.71426648 46.02779785 29.86089446 46.04620361 32.00750732 C46.089934 37.65621462 46.10988893 43.30476646 46.12493896 48.95361328 C46.14448946 54.71827407 46.1864618 60.48276647 46.2265625 66.24731445 C46.30192633 77.55715842 46.3521805 88.8669648 46.38671875 100.17700195 C63.84258284 100.20045234 81.29844195 100.21804039 98.75431824 100.22881413 C106.86095713 100.23395144 114.96758618 100.24094477 123.07421875 100.25244141 C130.14708622 100.26246713 137.21994655 100.26887399 144.29282093 100.27109045 C148.03135372 100.27238427 151.76986613 100.27538466 155.50839233 100.28273201 C175.47598284 100.40787192 175.47598284 100.40787192 195.40161133 99.29466248 C198.55110968 99.17052235 201.29985561 99.57872097 204.38671875 100.17700195 C206.11414454 100.26505664 207.84455807 100.30723542 209.57421875 100.30200195 C210.41339844 100.30458008 211.25257813 100.3071582 212.1171875 100.30981445 C213.92675696 100.23630745 215.73773513 100.13743426 217.53739929 99.93457031 C225.95378125 98.98740586 234.29341668 99.21737455 242.73828125 99.48168945 C244.28956897 99.52599729 245.84086936 99.56986363 247.3921814 99.61331177 C250.61787496 99.70508679 253.84339097 99.80137742 257.06884766 99.90112305 C261.21033593 100.02893536 265.3520416 100.14641676 269.49392128 100.26075554 C272.68520112 100.34976419 275.87632705 100.44352519 279.06742477 100.53882217 C280.59607432 100.58401023 282.1247645 100.62784455 283.65349197 100.67031479 C285.77649587 100.73012432 287.89921227 100.79617404 290.02197266 100.86401367 C291.23011627 100.90033905 292.43825989 100.93666443 293.68301392 100.97409058 C296.38671875 101.17700195 296.38671875 101.17700195 297.38671875 102.17700195 C297.62451921 105.72891037 297.78265206 109.27392979 297.90429688 112.83129883 C298.0869717 116.8398048 298.37596049 119.63105897 300.38671875 123.17700195 C300.01171875 126.42700195 300.01171875 126.42700195 299.38671875 129.17700195 C297.57421875 129.80200195 297.57421875 129.80200195 295.38671875 130.17700195 C294.39671875 129.51700195 293.40671875 128.85700195 292.38671875 128.17700195 C292.05671875 123.88700195 291.72671875 119.59700195 291.38671875 115.17700195 C271.58671875 115.17700195 251.78671875 115.17700195 231.38671875 115.17700195 C231.38671875 117.48700195 231.38671875 119.79700195 231.38671875 122.17700195 C230.72671875 122.83700195 230.06671875 123.49700195 229.38671875 124.17700195 C226.26171875 123.80200195 226.26171875 123.80200195 223.38671875 123.17700195 C223.15597656 123.90145508 222.92523438 124.6259082 222.6875 125.37231445 C219.52541868 134.74607332 215.67842725 140.03188258 206.98828125 144.9152832 C198.51033053 149.026962 189.25801913 149.20210942 180.3515625 146.13012695 C172.84896497 142.85846935 167.67537345 139.76829877 164.16796875 132.21606445 C163.15427868 129.57033337 162.66805967 126.99041114 162.38671875 124.17700195 C161.19046875 124.34200195 159.99421875 124.50700195 158.76171875 124.67700195 C155.27844578 125.1216751 151.89854577 125.17700195 148.38671875 125.17700195 C147.72671875 125.50700195 147.06671875 125.83700195 146.38671875 126.17700195 C142.83193066 126.54450784 139.25385694 126.62260638 135.68359375 126.7590332 C134.57715515 126.80179886 133.47071655 126.84456451 132.33074951 126.8886261 C119.73926108 127.31454585 107.1619907 127.16804902 94.56787109 126.93505859 C91.23858203 126.87530424 87.90953033 126.82684309 84.58000565 126.78422832 C81.35396599 126.7404788 78.12818317 126.68262573 74.90234375 126.6262207 C73.71602356 126.61153244 72.52970337 126.59684418 71.30743408 126.58171082 C70.20727966 126.55861343 69.10712524 126.53551605 67.97363281 126.51171875 C67.01201233 126.49537888 66.05039185 126.479039 65.05963135 126.46220398 C62.16146861 126.15296757 59.99094073 125.47607877 57.38671875 124.17700195 C55.90839615 121.22035676 56.32639092 118.43470458 56.38671875 115.17700195 C53.08671875 115.17700195 49.78671875 115.17700195 46.38671875 115.17700195 C46.44859375 116.76512695 46.51046875 118.35325195 46.57421875 119.98950195 C46.75712959 124.68421349 46.75712959 124.68421349 45.0625 126.9387207 C41.24029708 129.76305246 37.0327322 129.33145482 32.50634766 129.33813477 C31.70439468 129.34309967 30.90244171 129.34806458 30.07618713 129.35317993 C27.42187646 129.36779096 24.76762554 129.37460155 22.11328125 129.38012695 C20.26866657 129.38587898 18.4240519 129.3916367 16.57943726 129.3973999 C12.71083294 129.40790667 8.84224939 129.41375156 4.97363281 129.41723633 C0.01813754 129.42272245 -4.93708316 129.44675436 -9.89249229 129.47520828 C-13.70320436 129.4938371 -17.51385028 129.49904038 -21.32460403 129.5005722 C-23.15143969 129.50359837 -24.97827419 129.51162567 -26.80506516 129.52475739 C-29.36162943 129.54182416 -31.91752286 129.5399363 -34.47412109 129.53344727 C-35.22754288 129.54266205 -35.98096466 129.55187683 -36.75721741 129.56137085 C-41.19503014 129.52610988 -44.13539249 129.01280537 -47.61328125 126.17700195 C-48.4765625 123.13793945 -48.4765625 123.13793945 -48.92578125 119.55200195 C-50.31029595 112.18060228 -52.5725707 107.7147606 -58.61328125 103.17700195 C-70.08126002 96.93950367 -81.12712735 95.77631974 -93.640625 99.13012695 C-101.60617757 101.93534126 -106.97841552 106.71799841 -111.23828125 113.92700195 C-112.6914509 117.36176658 -113.38986101 120.55855297 -113.98828125 124.22387695 C-114.61328125 126.17700195 -114.61328125 126.17700195 -117.61328125 128.17700195 C-124.02581189 128.58102246 -129.77696711 127.45168692 -135.01953125 123.6809082 C-139.0046695 119.92042235 -139.78522616 115.48622677 -140.05078125 110.23950195 C-140.14063479 106.65135057 -139.30667215 104.49057082 -137.58984375 101.42700195 C-135.19690329 96.88984198 -135.23928149 93.14543639 -135.55078125 88.11450195 C-135.89542004 82.01902492 -135.74054053 77.67156289 -132.61328125 72.17700195 C-128.05373092 67.45799387 -122.16714658 66.16776664 -116.06640625 64.3137207 C-113.75377679 63.58431333 -111.44128094 62.85448221 -109.12890625 62.12426758 C-105.49946523 60.99215061 -101.86833732 59.8660568 -98.234375 58.74853516 C-94.71471686 57.66156783 -91.20299036 56.55145075 -87.69140625 55.4387207 C-86.61610657 55.11554367 -85.54080688 54.79236664 -84.43292236 54.45939636 C-77.31418021 52.18730771 -72.2031785 49.1072448 -66.61328125 44.17700195 C-65.49181189 43.24982063 -64.36855681 42.32478696 -63.2421875 41.40356445 C-62.21814893 40.53862516 -61.19601447 39.67142656 -60.17578125 38.80200195 C-59.34747803 38.09938232 -59.34747803 38.09938232 -58.50244141 37.38256836 C-55.11255203 34.4941593 -51.78346357 31.54857475 -48.48828125 28.55200195 C-43.35049481 23.89484714 -38.03908017 19.49382414 -32.61328125 15.17700195 C-31.64261719 14.3880957 -30.67195313 13.59918945 -29.671875 12.78637695 C-21.02956786 5.98070093 -11.28914939 0.13957229 0 0 Z M-130.61328125 81.17700195 C-130.89542945 84.49959442 -130.89542945 84.49959442 -130.80078125 88.23950195 C-130.79433594 89.50922852 -130.78789062 90.77895508 -130.78125 92.0871582 C-130.96516623 95.04767748 -130.96516623 95.04767748 -129.61328125 96.17700195 C-124.53512375 96.76036845 -120.64889856 96.70389497 -116.05078125 94.36450195 C-113.43854218 92.02018484 -112.7412675 90.68009631 -112.4453125 87.2043457 C-112.42652926 85.19453889 -112.51768031 83.18462161 -112.61328125 81.17700195 C-114.52045764 78.8391974 -114.52045764 78.8391974 -117.80078125 78.91137695 C-119.05890625 78.9165332 -120.31703125 78.92168945 -121.61328125 78.92700195 C-123.50046875 78.91926758 -123.50046875 78.91926758 -125.42578125 78.91137695 C-128.70610486 78.8391974 -128.70610486 78.8391974 -130.61328125 81.17700195 Z M150.38671875 116.17700195 C151.38671875 118.17700195 151.38671875 118.17700195 151.38671875 118.17700195 Z M203.38671875 122.17700195 C201.42806651 125.11498032 200.03172809 127.69395153 199.38671875 131.17700195 C200.37671875 131.17700195 201.36671875 131.17700195 202.38671875 131.17700195 C204.2444864 128.04201904 204.58812351 125.80228763 204.38671875 122.17700195 C204.05671875 122.17700195 203.72671875 122.17700195 203.38671875 122.17700195 Z M181.38671875 124.17700195 C182.38671875 126.17700195 182.38671875 126.17700195 182.38671875 126.17700195 Z M187.38671875 132.17700195 C187.38671875 132.83700195 187.38671875 133.49700195 187.38671875 134.17700195 C190.35671875 134.17700195 193.32671875 134.17700195 196.38671875 134.17700195 C196.71671875 133.51700195 197.04671875 132.85700195 197.38671875 132.17700195 C194.08671875 132.17700195 190.78671875 132.17700195 187.38671875 132.17700195 Z " fill="#080808" transform="translate(189.61328125,189.822998046875)"/>
<path d="M0 0 C5.38743919 0.8450885 10.91640033 0.86872889 16.33818054 0.25756836 C24.7545625 -0.68959609 33.09419793 -0.4596274 41.5390625 -0.1953125 C43.09035022 -0.15100466 44.64165061 -0.10713832 46.19296265 -0.06369019 C49.41865621 0.02808484 52.64417222 0.12437547 55.86962891 0.22412109 C60.01111718 0.35193341 64.15282285 0.46941481 68.29470253 0.58375359 C71.48598237 0.67276224 74.6771083 0.76652324 77.86820602 0.86182022 C79.39685557 0.90700827 80.92554575 0.9508426 82.45427322 0.99331284 C84.57727712 1.05312236 86.69999352 1.11917208 88.82275391 1.18701172 C90.03089752 1.2233371 91.23904114 1.25966248 92.48379517 1.29708862 C95.1875 1.5 95.1875 1.5 96.1875 2.5 C96.42530046 6.05190842 96.58343331 9.59692784 96.70507812 13.15429688 C96.88775295 17.16280285 97.17674174 19.95405701 99.1875 23.5 C98.8125 26.75 98.8125 26.75 98.1875 29.5 C96.375 30.125 96.375 30.125 94.1875 30.5 C93.1975 29.84 92.2075 29.18 91.1875 28.5 C90.8575 24.21 90.5275 19.92 90.1875 15.5 C70.3875 15.5 50.5875 15.5 30.1875 15.5 C30.1875 17.81 30.1875 20.12 30.1875 22.5 C29.5275 23.16 28.8675 23.82 28.1875 24.5 C25.0625 24.125 25.0625 24.125 22.1875 23.5 C21.95675781 24.22445313 21.72601563 24.94890625 21.48828125 25.6953125 C18.32619993 35.06907136 14.4792085 40.35488062 5.7890625 45.23828125 C-2.68888822 49.34996005 -11.94119962 49.52510747 -20.84765625 46.453125 C-28.35025378 43.18146739 -33.5238453 40.09129681 -37.03125 32.5390625 C-38.04494007 29.89333142 -38.53115908 27.31340918 -38.8125 24.5 C-40.606875 24.7475 -40.606875 24.7475 -42.4375 25 C-45.92077297 25.44467315 -49.30067298 25.5 -52.8125 25.5 C-53.4725 25.83 -54.1325 26.16 -54.8125 26.5 C-58.36728809 26.86750589 -61.94536181 26.94560443 -65.515625 27.08203125 C-66.6220636 27.12479691 -67.7285022 27.16756256 -68.86846924 27.21162415 C-81.45995767 27.6375439 -94.03722805 27.49104706 -106.63134766 27.25805664 C-109.96063672 27.19830229 -113.28968842 27.14984114 -116.6192131 27.10722637 C-119.84525276 27.06347685 -123.07103558 27.00562377 -126.296875 26.94921875 C-127.48319519 26.93453049 -128.66951538 26.91984222 -129.89178467 26.90470886 C-130.99193909 26.88161148 -132.09209351 26.8585141 -133.22558594 26.8347168 C-134.18720642 26.81837692 -135.1488269 26.80203705 -136.1395874 26.78520203 C-139.03775014 26.47596562 -141.20827802 25.79907681 -143.8125 24.5 C-145.2908226 21.54335481 -144.87282783 18.75770263 -144.8125 15.5 C-148.1125 15.5 -151.4125 15.5 -154.8125 15.5 C-154.750625 17.088125 -154.68875 18.67625 -154.625 20.3125 C-154.44208916 25.00721154 -154.44208916 25.00721154 -156.13671875 27.26171875 C-159.95892167 30.08605051 -164.16648655 29.65445287 -168.69287109 29.66113281 C-169.49482407 29.66609772 -170.29677704 29.67106262 -171.12303162 29.67617798 C-173.77734229 29.69078901 -176.43159321 29.69759959 -179.0859375 29.703125 C-180.93055218 29.70887702 -182.77516685 29.71463475 -184.61978149 29.72039795 C-188.48838581 29.73090471 -192.35696936 29.7367496 -196.22558594 29.74023438 C-201.18108121 29.7457205 -206.13630191 29.76975241 -211.09171104 29.79820633 C-214.90242311 29.81683515 -218.71306903 29.82203842 -222.52382278 29.82357025 C-224.35065844 29.82659641 -226.17749294 29.83462372 -228.00428391 29.84775543 C-230.56084818 29.86482221 -233.11674161 29.86293434 -235.67333984 29.85644531 C-236.80347252 29.87026749 -236.80347252 29.87026749 -237.95643616 29.8843689 C-242.37284349 29.84927801 -245.39564895 29.40259399 -248.8125 26.5 C-249.125 22.8125 -249.125 22.8125 -248.8125 19.5 C-248.4825 19.5 -248.1525 19.5 -247.8125 19.5 C-247.1525 21.81 -246.4925 24.12 -245.8125 26.5 C-234.92936126 26.54632061 -224.04624593 26.58186784 -213.16302872 26.60362434 C-208.10962698 26.61406585 -203.05629264 26.62823181 -198.00292969 26.65087891 C-193.12704556 26.67259411 -188.2512263 26.68456586 -183.37529755 26.68975449 C-181.51414722 26.69345261 -179.65300049 26.70067403 -177.79187775 26.71146011 C-175.18701986 26.72595741 -172.58243074 26.72797868 -169.97753906 26.72705078 C-168.82091766 26.73783661 -168.82091766 26.73783661 -167.64093018 26.74884033 C-162.39481808 26.76002898 -162.39481808 26.76002898 -157.8125 24.5 C-157.10876983 21.85212912 -157.10876983 21.85212912 -157.0625 18.875 C-156.98 17.10125 -156.8975 15.3275 -156.8125 13.5 C-152.1925 13.5 -147.5725 13.5 -142.8125 13.5 C-142.64973958 15.51822917 -142.48697917 17.53645833 -142.32421875 19.5546875 C-141.93856964 21.89519216 -141.93856964 21.89519216 -138.8125 23.5 C-136.17532827 23.68915909 -133.64486624 23.76268484 -131.00805664 23.74291992 C-129.8173481 23.74576744 -129.8173481 23.74576744 -128.60258484 23.74867249 C-125.97584183 23.7523802 -123.34937474 23.74167499 -120.72265625 23.73046875 C-118.89806653 23.72927668 -117.0734762 23.72882385 -115.24888611 23.7290802 C-111.42312788 23.72751527 -107.59746321 23.71922567 -103.77172852 23.70581055 C-98.86779538 23.68883277 -93.96396522 23.6849959 -89.06000614 23.68575573 C-85.29136675 23.68548375 -81.52274987 23.67999788 -77.75411797 23.67275429 C-75.94601042 23.66957191 -74.13790031 23.66760122 -72.32979012 23.66686058 C-69.80192857 23.66469179 -67.27417601 23.65593546 -64.74633789 23.64526367 C-63.99867157 23.64571686 -63.25100525 23.64617004 -62.48068237 23.64663696 C-59.11908397 23.62589225 -56.02630191 23.54892365 -52.8125 22.5 C-52.8125 19.86 -52.8125 17.22 -52.8125 14.5 C-50.10370665 13.14560332 -47.80316732 13.43498549 -44.8125 13.5 C-44.6875 21.25 -44.6875 21.25 -45.8125 23.5 C-44.8225 23.5 -43.8325 23.5 -42.8125 23.5 C-42.750625 22.530625 -42.68875 21.56125 -42.625 20.5625 C-41.73533392 14.39749 -38.58314156 9.18828613 -34.125 4.9375 C-31.8125 3.5 -31.8125 3.5 -29.8125 3.5 C-29.8125 2.84 -29.8125 2.18 -29.8125 1.5 C-26.81301609 1.16134859 -23.81305074 0.82894927 -20.8125 0.5 C-19.97332031 0.40460938 -19.13414062 0.30921875 -18.26953125 0.2109375 C-12.1722171 -0.45078652 -6.08113574 -1.0810908 0 0 Z M-50.8125 16.5 C-49.8125 18.5 -49.8125 18.5 -49.8125 18.5 Z M2.1875 22.5 C0.22884776 25.43797836 -1.16749066 28.01694958 -1.8125 31.5 C-0.8225 31.5 0.1675 31.5 1.1875 31.5 C3.04526765 28.36501708 3.38890476 26.12528568 3.1875 22.5 C2.8575 22.5 2.5275 22.5 2.1875 22.5 Z M-19.8125 24.5 C-18.8125 26.5 -18.8125 26.5 -18.8125 26.5 Z M-13.8125 32.5 C-13.8125 33.16 -13.8125 33.82 -13.8125 34.5 C-10.8425 34.5 -7.8725 34.5 -4.8125 34.5 C-4.4825 33.84 -4.1525 33.18 -3.8125 32.5 C-7.1125 32.5 -10.4125 32.5 -13.8125 32.5 Z " fill="#3A3A3A" transform="translate(390.8125,289.5)"/>
<path d="M0 0 C2.41586586 0.03703422 4.83021479 0.04101481 7.24633789 0.04052734 C8.78476268 0.05034195 10.3231771 0.06199166 11.86157227 0.07568359 C12.58232437 0.07790924 13.30307648 0.08013489 14.04566956 0.08242798 C19.0940791 0.17928418 19.0940791 0.17928418 21.32641602 2.41162109 C21.5385639 5.25685417 21.63038238 8.00229342 21.62719727 10.84912109 C21.63148239 11.68499756 21.63576752 12.52087402 21.6401825 13.38208008 C21.64592975 15.15070692 21.64642315 16.91935741 21.64208984 18.68798828 C21.63892844 21.4009612 21.66238821 24.11284551 21.68774414 26.82568359 C21.69001687 28.54182805 21.69072075 30.25797544 21.68969727 31.97412109 C21.69890701 32.78872803 21.70811676 33.60333496 21.71760559 34.44262695 C21.69873047 36.72802734 21.69873047 36.72802734 21.32641602 40.41162109 C17.70506094 42.82585781 15.05739894 42.70080007 10.87329102 42.6862793 C9.73869446 42.69394569 9.73869446 42.69394569 8.58117676 42.70176697 C6.07950949 42.71567357 3.57811735 42.71470562 1.07641602 42.71240234 C-0.66088972 42.71628831 -2.3981945 42.72062277 -4.13549805 42.72538757 C-7.77713094 42.73285179 -11.41866689 42.73255677 -15.06030273 42.72729492 C-19.73129395 42.72149586 -24.40188922 42.7384407 -29.07281494 42.7616396 C-32.66042406 42.7763564 -36.24793733 42.77725152 -39.83557129 42.77412987 C-41.55799139 42.77464398 -43.28041672 42.77989853 -45.00280762 42.78994179 C-47.40895496 42.80225122 -49.8143245 42.79554847 -52.22045898 42.78393555 C-52.93431763 42.79157928 -53.64817627 42.79922302 -54.38366699 42.80709839 C-57.28720176 42.77605658 -59.22113474 42.72698374 -61.6418457 41.03971863 C-62.67358398 39.41162109 -62.67358398 39.41162109 -62.63452148 36.98974609 C-61.42771519 33.7519731 -59.92348557 32.39734169 -57.29858398 30.16162109 C-56.38850586 29.37916016 -55.47842773 28.59669922 -54.54077148 27.79052734 C-50.93204154 24.79636312 -47.31556701 21.81472329 -43.65795898 18.88037109 C-41.46531117 17.06655772 -39.3519806 15.2327556 -37.25170898 13.31787109 C-36.65777344 12.78460205 -36.06383789 12.25133301 -35.4519043 11.7019043 C-34.30908373 10.67189098 -33.17712863 9.62962089 -32.05932617 8.57250977 C-22.66219897 0.17540521 -11.97422882 -0.19051878 0 0 Z " fill="#CDCDCD" transform="translate(194.673583984375,200.58837890625)"/>
<path d="M0 0 C5.80645174 4.28551431 10.18016477 7.82657541 12 15 C12.72069856 21.24605423 11.33426961 26.70589252 8 32 C-0.20531855 39.52730741 -8.11866913 41.67789078 -18.9765625 41.37109375 C-26.67933003 40.86561087 -31.93424459 37.47885974 -37.0625 31.875 C-41.83297754 26.10552833 -41.49908536 20.21754219 -41 13 C-38.89171852 6.01631761 -32.86752044 1.77786267 -26.875 -1.9375 C-18.86745183 -4.89441572 -7.43657188 -4.2609547 0 0 Z M-4 17 C-5.95865224 19.93797836 -7.35499066 22.51694958 -8 26 C-7.01 26 -6.02 26 -5 26 C-3.14223235 22.86501708 -2.79859524 20.62528568 -3 17 C-3.33 17 -3.66 17 -4 17 Z M-26 19 C-25 21 -25 21 -25 21 Z M-20 27 C-20 27.66 -20 28.32 -20 29 C-17.03 29 -14.06 29 -11 29 C-10.67 28.34 -10.34 27.68 -10 27 C-13.3 27 -16.6 27 -20 27 Z " fill="#040404" transform="translate(397,295)"/>
<path d="M0 0 C5.31791537 3.68011583 8.13731583 7.56279014 10.41796875 13.64453125 C11.46169433 21.99433589 9.19030235 26.86103085 4.66796875 33.64453125 C4.00796875 33.64453125 3.34796875 33.64453125 2.66796875 33.64453125 C2.66796875 34.30453125 2.66796875 34.96453125 2.66796875 35.64453125 C-5.36094192 41.66621425 -15.75362415 41.47304326 -25.33203125 40.64453125 C-32.87957528 38.74786863 -38.63672904 35.3421084 -43.08203125 28.89453125 C-45.90679972 24.05845612 -46.89295843 19.96919338 -45.95703125 14.421875 C-44.07869948 7.57770363 -40.2044163 1.90396671 -34.015625 -1.70703125 C-22.23391994 -7.10293571 -11.3078164 -6.5725499 0 0 Z M-31.20703125 10.83203125 C-32.81540076 14.85295501 -32.88262002 17.30864466 -32.33203125 21.64453125 C-28.83087644 25.44578505 -24.65612852 27.45487463 -19.5078125 27.875 C-18.09048828 27.85373047 -18.09048828 27.85373047 -16.64453125 27.83203125 C-15.69191406 27.82558594 -14.73929688 27.81914062 -13.7578125 27.8125 C-11.32272346 27.80002748 -11.32272346 27.80002748 -9.33203125 26.64453125 C-9.33203125 25.98453125 -9.33203125 25.32453125 -9.33203125 24.64453125 C-8.71328125 24.43828125 -8.09453125 24.23203125 -7.45703125 24.01953125 C-5.07924639 22.74005605 -5.07924639 22.74005605 -3.95703125 19.83203125 C-3.22419733 16.09457825 -3.34813214 14.8683673 -5.33203125 11.64453125 C-9.33266237 7.69946445 -12.43556328 5.4971943 -18.08203125 5.39453125 C-23.6826403 5.46726643 -27.4517523 6.45087247 -31.20703125 10.83203125 Z " fill="#111111" transform="translate(127.33203125,296.35546875)"/>
<path d="M0 0 C6.10569107 0.11792026 12.21120819 0.24214373 18.31665039 0.37231445 C20.39539057 0.41573334 22.47416803 0.45740312 24.55297852 0.49731445 C27.53413145 0.55484921 30.51509549 0.61859119 33.49609375 0.68359375 C34.43150497 0.70030624 35.3669162 0.71701874 36.33067322 0.73423767 C37.62189842 0.7641555 37.62189842 0.7641555 38.93920898 0.79467773 C39.70087875 0.81022202 40.46254852 0.8257663 41.24729919 0.84178162 C43 1 43 1 44 2 C44.23780046 5.55190842 44.39593331 9.09692784 44.51757812 12.65429688 C44.70025295 16.66280285 44.98924174 19.45405701 47 23 C46.625 26.25 46.625 26.25 46 29 C44.1875 29.625 44.1875 29.625 42 30 C41.01 29.34 40.02 28.68 39 28 C38.67 23.71 38.34 19.42 38 15 C18.2 15 -1.6 15 -22 15 C-22 17.31 -22 19.62 -22 22 C-23.65 22.33 -25.3 22.66 -27 23 C-27.17015625 22.43152344 -27.3403125 21.86304688 -27.515625 21.27734375 C-30.05257398 13.19419246 -32.86334545 8.13665455 -39 2 C-26.13 2 -13.26 2 0 2 C0 1.34 0 0.68 0 0 Z " fill="#010101" transform="translate(443,290)"/>
<path d="M0 0 C1.32 0 2.64 0 4 0 C2.79618552 2.49361571 1.54571278 4.68143083 0 7 C-1.08603232 10.95479695 -1.10376492 14.7272725 -1.0625 18.8125 C-1.05347656 19.97394531 -1.04445313 21.13539063 -1.03515625 22.33203125 C-1.02355469 23.21246094 -1.01195312 24.09289062 -1 25 C-3.12508244 21.81237635 -3.5020163 19.73487777 -4 16 C-5.794375 16.2475 -5.794375 16.2475 -7.625 16.5 C-11.10827297 16.94467315 -14.48817298 17 -18 17 C-18.66 17.33 -19.32 17.66 -20 18 C-23.55478809 18.36750589 -27.13286181 18.44560443 -30.703125 18.58203125 C-31.8095636 18.62479691 -32.9160022 18.66756256 -34.05596924 18.71162415 C-46.64745767 19.1375439 -59.22472805 18.99104706 -71.81884766 18.75805664 C-75.14813672 18.69830229 -78.47718842 18.64984114 -81.8067131 18.60722637 C-85.03275276 18.56347685 -88.25853558 18.50562377 -91.484375 18.44921875 C-92.67069519 18.43453049 -93.85701538 18.41984222 -95.07928467 18.40470886 C-96.17943909 18.38161148 -97.27959351 18.3585141 -98.41308594 18.3347168 C-99.37470642 18.31837692 -100.3363269 18.30203705 -101.3270874 18.28520203 C-104.22525014 17.97596562 -106.39577802 17.29907681 -109 16 C-110.4783226 13.04335481 -110.06032783 10.25770263 -110 7 C-113.3 7 -116.6 7 -120 7 C-119.938125 8.588125 -119.87625 10.17625 -119.8125 11.8125 C-119.62958916 16.50721154 -119.62958916 16.50721154 -121.32421875 18.76171875 C-125.14642167 21.58605051 -129.35398655 21.15445287 -133.88037109 21.16113281 C-134.68232407 21.16609772 -135.48427704 21.17106262 -136.31053162 21.17617798 C-138.96484229 21.19078901 -141.61909321 21.19759959 -144.2734375 21.203125 C-146.11805218 21.20887702 -147.96266685 21.21463475 -149.80728149 21.22039795 C-153.67588581 21.23090471 -157.54446936 21.2367496 -161.41308594 21.24023438 C-166.36858121 21.2457205 -171.32380191 21.26975241 -176.27921104 21.29820633 C-180.08992311 21.31683515 -183.90056903 21.32203842 -187.71132278 21.32357025 C-189.53815844 21.32659641 -191.36499294 21.33462372 -193.19178391 21.34775543 C-195.74834818 21.36482221 -198.30424161 21.36293434 -200.86083984 21.35644531 C-201.99097252 21.37026749 -201.99097252 21.37026749 -203.14393616 21.3843689 C-207.56034349 21.34927801 -210.58314895 20.90259399 -214 18 C-214.3125 14.3125 -214.3125 14.3125 -214 11 C-213.67 11 -213.34 11 -213 11 C-212.34 13.31 -211.68 15.62 -211 18 C-200.11686126 18.04632061 -189.23374593 18.08186784 -178.35052872 18.10362434 C-173.29712698 18.11406585 -168.24379264 18.12823181 -163.19042969 18.15087891 C-158.31454556 18.17259411 -153.4387263 18.18456586 -148.56279755 18.18975449 C-146.70164722 18.19345261 -144.84050049 18.20067403 -142.97937775 18.21146011 C-140.37451986 18.22595741 -137.76993074 18.22797868 -135.16503906 18.22705078 C-134.00841766 18.23783661 -134.00841766 18.23783661 -132.82843018 18.24884033 C-127.58231808 18.26002898 -127.58231808 18.26002898 -123 16 C-122.29626983 13.35212912 -122.29626983 13.35212912 -122.25 10.375 C-122.1675 8.60125 -122.085 6.8275 -122 5 C-117.38 5 -112.76 5 -108 5 C-107.83723958 7.01822917 -107.67447917 9.03645833 -107.51171875 11.0546875 C-107.12606964 13.39519216 -107.12606964 13.39519216 -104 15 C-101.36282827 15.18915909 -98.83236624 15.26268484 -96.19555664 15.24291992 C-95.0048481 15.24576744 -95.0048481 15.24576744 -93.79008484 15.24867249 C-91.16334183 15.2523802 -88.53687474 15.24167499 -85.91015625 15.23046875 C-84.08556653 15.22927668 -82.2609762 15.22882385 -80.43638611 15.2290802 C-76.61062788 15.22751527 -72.78496321 15.21922567 -68.95922852 15.20581055 C-64.05529538 15.18883277 -59.15146522 15.1849959 -54.24750614 15.18575573 C-50.47886675 15.18548375 -46.71024987 15.17999788 -42.94161797 15.17275429 C-41.13351042 15.16957191 -39.32540031 15.16760122 -37.51729012 15.16686058 C-34.98942857 15.16469179 -32.46167601 15.15593546 -29.93383789 15.14526367 C-29.18617157 15.14571686 -28.43850525 15.14617004 -27.66818237 15.14663696 C-24.30658397 15.12589225 -21.21380191 15.04892365 -18 14 C-18 11.36 -18 8.72 -18 6 C-15.29120665 4.64560332 -12.99066732 4.93498549 -10 5 C-9.875 12.75 -9.875 12.75 -11 15 C-9.35 15 -7.7 15 -6 15 C-6.12375 14.195625 -6.2475 13.39125 -6.375 12.5625 C-5.84717178 7.54813192 -3.5095434 3.62223516 0 0 Z M-16 8 C-15 10 -15 10 -15 10 Z " fill="#313131" transform="translate(356,298)"/>
<path d="M0 0 C3.91170151 1.82257916 6.47272163 3.46747839 8.74609375 7.23828125 C9.54502846 11.27290153 9.67384637 15.43431782 7.76171875 19.15234375 C4.70161929 22.98691283 1.77366419 24.99542462 -3.05859375 25.57421875 C-13.5429942 25.70760807 -13.5429942 25.70760807 -18.25390625 21.23828125 C-21.40792948 17.55858748 -21.83608075 14.09395033 -21.671875 9.38671875 C-20.98182455 5.83973046 -19.06039807 4.35874174 -16.25390625 2.23828125 C-15.51140625 1.64015625 -14.76890625 1.04203125 -14.00390625 0.42578125 C-9.33525724 -1.59022628 -4.82461189 -1.63050142 0 0 Z M4.74609375 10.23828125 C2.78744151 13.17625961 1.39110309 15.75523083 0.74609375 19.23828125 C1.73609375 19.23828125 2.72609375 19.23828125 3.74609375 19.23828125 C5.6038614 16.10329833 5.94749851 13.86356693 5.74609375 10.23828125 C5.41609375 10.23828125 5.08609375 10.23828125 4.74609375 10.23828125 Z M-17.25390625 12.23828125 C-16.25390625 14.23828125 -16.25390625 14.23828125 -16.25390625 14.23828125 Z M-11.25390625 20.23828125 C-11.25390625 20.89828125 -11.25390625 21.55828125 -11.25390625 22.23828125 C-8.28390625 22.23828125 -5.31390625 22.23828125 -2.25390625 22.23828125 C-1.92390625 21.57828125 -1.59390625 20.91828125 -1.25390625 20.23828125 C-4.55390625 20.23828125 -7.85390625 20.23828125 -11.25390625 20.23828125 Z " fill="#2F2F2F" transform="translate(388.25390625,301.76171875)"/>
<path d="M0 0 C1.32 0 2.64 0 4 0 C2.79618552 2.49361571 1.54571278 4.68143083 0 7 C-1.08603232 10.95479695 -1.10376492 14.7272725 -1.0625 18.8125 C-1.05347656 19.97394531 -1.04445313 21.13539063 -1.03515625 22.33203125 C-1.02355469 23.21246094 -1.01195312 24.09289062 -1 25 C-3.12508244 21.81237635 -3.5020163 19.73487777 -4 16 C-5.794375 16.2475 -5.794375 16.2475 -7.625 16.5 C-11.10827297 16.94467315 -14.48817298 17 -18 17 C-18.66 17.33 -19.32 17.66 -20 18 C-23.55860911 18.37082896 -27.14051938 18.45167922 -30.71484375 18.58984375 C-32.37434303 18.65461159 -32.37434303 18.65461159 -34.06736755 18.72068787 C-47.90439202 19.18794016 -61.72516517 18.86683639 -75.5625 18.5625 C-78.24280925 18.50824372 -80.92316082 18.45624717 -83.60351562 18.40429688 C-90.06918713 18.27730086 -96.53464337 18.14208562 -103 18 C-103 17.67 -103 17.34 -103 17 C-76.27 17 -49.54 17 -22 17 C-22 16.34 -22 15.68 -22 15 C-20.68 14.67 -19.36 14.34 -18 14 C-18 11.36 -18 8.72 -18 6 C-15.29120665 4.64560332 -12.99066732 4.93498549 -10 5 C-9.875 12.75 -9.875 12.75 -11 15 C-9.35 15 -7.7 15 -6 15 C-6.12375 14.195625 -6.2475 13.39125 -6.375 12.5625 C-5.84717178 7.54813192 -3.5095434 3.62223516 0 0 Z M-16 8 C-15 10 -15 10 -15 10 Z " fill="#202020" transform="translate(356,298)"/>
<path d="M0 0 C1.6396875 0.2475 1.6396875 0.2475 3.3125 0.5 C10.23605413 1.35325491 17.04514569 1.21493793 23.96875 0.46484375 C30.73631732 -0.17549379 37.40756805 0.11951936 44.1875 0.4375 C46.0447168 0.51581055 46.0447168 0.51581055 47.93945312 0.59570312 C50.95997908 0.72398801 53.98005141 0.85887493 57 1 C57 1.66 57 2.32 57 3 C38.19 3.495 38.19 3.495 19 4 C20.65 5.32 22.3 6.64 24 8 C28.17480947 13.01820532 29.65408507 17.54292136 30 24 C30.99 24.33 31.98 24.66 33 25 C31.02 24.67 29.04 24.34 27 24 C26.34 26.31 25.68 28.62 25 31 C24.67 31 24.34 31 24 31 C23.97421875 30.29875 23.9484375 29.5975 23.921875 28.875 C23.42383106 20.54408311 21.97205214 14.44951634 15.6875 8.6875 C10.96555996 4.9665708 5.97450189 2.90522756 0 2 C0 1.34 0 0.68 0 0 Z " fill="#2E2E2E" transform="translate(386,289)"/>
<path d="M0 0 C0.02687279 1.81242052 0.04633715 3.62495233 0.0625 5.4375 C0.07410156 6.44683594 0.08570313 7.45617187 0.09765625 8.49609375 C0 11 0 11 -1 12 C-2.4887186 12.08669432 -3.981445 12.10703494 -5.47265625 12.09765625 C-6.37177734 12.09443359 -7.27089844 12.09121094 -8.19726562 12.08789062 C-9.14279297 12.07951172 -10.08832031 12.07113281 -11.0625 12.0625 C-12.01189453 12.05798828 -12.96128906 12.05347656 -13.93945312 12.04882812 C-16.29303065 12.0370011 -18.64648477 12.02052025 -21 12 C-19.35187755 8.43107416 -17.6666788 6.68236839 -14.5 4.3125 C-13.7059375 3.71050781 -12.911875 3.10851562 -12.09375 2.48828125 C-7.90654792 -0.48806948 -5.05265786 -0.08149448 0 0 Z " fill="#0F0F0F" transform="translate(161,226)"/>
<path d="M0 0 C1.9375 1.1875 1.9375 1.1875 3 3 C3.53520313 6.59350675 3.44814771 8.31881548 1.4375 11.375 C-1.94989681 13.63326454 -4.0017159 13.56116268 -8 13 C-10.9375 11.375 -10.9375 11.375 -13 9 C-13.5 5.9375 -13.5 5.9375 -13 3 C-9.56330029 -1.74591865 -5.28687907 -1.13290266 0 0 Z " fill="#202020" transform="translate(114,308)"/>
<path d="M0 0 C0.33 0.66 0.66 1.32 1 2 C3.02463255 2.65213292 3.02463255 2.65213292 5 3 C5.33 4.32 5.66 5.64 6 7 C4.02 7.99 4.02 7.99 2 9 C1.525625 8.175 1.05125 7.35 0.5625 6.5 C-2.20994447 3.79517612 -2.76394449 3.55867778 -6.4375 3.375 C-10.22941292 3.56271846 -10.94730797 3.9569861 -14.0625 6.5 C-14.701875 7.325 -15.34125 8.15 -16 9 C-15.525625 9.886875 -15.05125 10.77375 -14.5625 11.6875 C-13.20262851 14.57042756 -12.45939614 16.87610623 -12 20 C-11.01 20.33 -10.02 20.66 -9 21 C-13.01349645 20.71998862 -14.72035142 20.24236211 -17.8125 17.5625 C-20.15525165 14.81813378 -20.89381149 13.77871576 -21.375 10.25 C-20.86474888 5.82782362 -19.14512961 4.07523784 -16 1 C-10.9573533 -1.84456993 -5.47432353 -1.56409244 0 0 Z M-18 10 C-17 12 -17 12 -17 12 Z " fill="#1A1A1A" transform="translate(389,304)"/>
<path d="M0 0 C8.32728947 -0.02312684 16.65456563 -0.04091683 24.98187923 -0.05181217 C28.84820118 -0.05704026 32.71450121 -0.06413654 36.58081055 -0.07543945 C40.30903401 -0.086271 44.03723634 -0.0922774 47.76547432 -0.09487724 C49.19089656 -0.09673101 50.61631759 -0.10035071 52.04173088 -0.10573006 C54.03163408 -0.11294393 56.02155834 -0.11340808 58.01147461 -0.11352539 C59.14620712 -0.115746 60.28093964 -0.11796661 61.45005798 -0.12025452 C64 0 64 0 65 1 C65.07271741 3.35313555 65.08370868 5.70833668 65.0625 8.0625 C65.05347656 9.35285156 65.04445313 10.64320313 65.03515625 11.97265625 C65.02355469 12.97167969 65.01195312 13.97070312 65 15 C64.67 15 64.34 15 64 15 C63.67 10.71 63.34 6.42 63 2 C43.2 2 23.4 2 3 2 C3 4.31 3 6.62 3 9 C2.01 9.495 2.01 9.495 1 10 C-0.1577506 6.52674819 -0.06866652 3.63932552 0 0 Z " fill="#323232" transform="translate(418,303)"/>
<path d="M0 0 C1.875 1.25 1.875 1.25 3 3 C3.4375 5.5 3.4375 5.5 3 8 C0.76218351 10.49602608 -0.68046606 10.9534013 -4 11.4375 C-7 11 -7 11 -9.375 9.3125 C-11 7 -11 7 -11.5625 4.4375 C-11 2 -11 2 -8.875 0.125 C-5.36406615 -1.24884368 -3.58368277 -1.09068606 0 0 Z " fill="#040404" transform="translate(386,309)"/>
<path d="M0 0 C5.96313166 -0.02464574 11.92623395 -0.042834 17.8894043 -0.05493164 C19.91968298 -0.05997278 21.94995802 -0.06680557 23.98022461 -0.07543945 C26.89177347 -0.08751467 29.8032745 -0.09323034 32.71484375 -0.09765625 C33.6283812 -0.10281754 34.54191864 -0.10797882 35.48313904 -0.11329651 C37.65575427 -0.11349168 39.82827296 -0.06211805 42 0 C44.08823375 2.08823375 43.37222011 6.47865575 43.5 9.375 C43.69815991 15.27188313 43.69815991 15.27188313 45 21 C43.68 20.34 42.36 19.68 41 19 C41 13.39 41 7.78 41 2 C39.35 2.33 37.7 2.66 36 3 C34.14318984 3.02597173 32.28497604 2.99357936 30.4296875 2.9140625 C29.3675 2.87023437 28.3053125 2.82640625 27.2109375 2.78125 C26.11007812 2.7296875 25.00921875 2.678125 23.875 2.625 C22.79734375 2.58117187 21.7196875 2.53734375 20.609375 2.4921875 C13.71664267 2.19322562 6.86428323 1.69140368 0 1 C0 0.67 0 0.34 0 0 Z " fill="#3F3F3F" transform="translate(444,291)"/>
<path d="M0 0 C1 2 1 2 0.8125 5.9375 C0.71722272 9.2533049 0.71722272 9.2533049 2.6875 11.875 C7.64723065 14.28784194 11.22229788 15.23793338 16.8125 15.125 C17.97394531 15.10695313 19.13539062 15.08890625 20.33203125 15.0703125 C21.65267578 15.03550781 21.65267578 15.03550781 23 15 C23 14.34 23 13.68 23 13 C23.9590625 12.195625 23.9590625 12.195625 24.9375 11.375 C27.87203419 7.99583942 27.70569771 5.41453428 28 1 C30 3 30 3 30.375 5.75 C29.81513494 10.60216383 27.57457684 13.57303974 24 16.8125 C19.18354664 19.67226918 13.44043092 19.62741146 8 19 C3.99266782 16.95990362 1.36317012 14.80695129 -1 11 C-1.328125 8.45703125 -1.328125 8.45703125 -1.25 5.8125 C-1.23453125 4.93207031 -1.2190625 4.05164063 -1.203125 3.14453125 C-1 1 -1 1 0 0 Z " fill="#454545" transform="translate(95,308)"/>
<path d="M0 0 C3.37696533 3.37696533 3.21220009 6.73565665 3.3125 11.3125 C3.24575017 16.78598571 2.95599009 19.94511015 -1 24 C-9.17248194 31.16200153 -17.13262103 34 -28 34 C-33.95615191 33.40251768 -40.09300464 31.51751453 -45 28 C-45.33 27.01 -45.66 26.02 -46 25 C-44.02727284 25.96890582 -42.09204968 26.94517041 -40.203125 28.0703125 C-32.86401716 32.03343073 -25.08060933 31.94111514 -17 31 C-10.99304357 29.13997796 -5.85800393 26.02709603 -2 21 C1.63440529 14.01189551 1.49344044 7.65388225 0 0 Z " fill="#494949" transform="translate(407,304)"/>
<path d="M0 0 C4.02930797 3.29670652 4.81817452 7.36357067 5.375 12.375 C4.78393318 18.08864591 2.1435092 22.28473621 -1 27 C-1.66 27 -2.32 27 -3 27 C-3 27.66 -3 28.32 -3 29 C-11.25408991 35.19056743 -21.24919625 34.22853446 -31 34 C-31 33.67 -31 33.34 -31 33 C-30.10539062 32.97421875 -29.21078125 32.9484375 -28.2890625 32.921875 C-19.11634675 32.49159836 -10.69546413 31.75334999 -4 25 C-3.34 25 -2.68 25 -2 25 C-1.71125 24.278125 -1.4225 23.55625 -1.125 22.8125 C-0.42499829 21.06249572 0.3181376 19.32837618 1.125 17.625 C3.16150584 11.51548247 1.67935037 5.9826857 0 0 Z " fill="#393939" transform="translate(133,303)"/>
<path d="M0 0 C0 0.66 0 1.32 0 2 C1.155 2.061875 2.31 2.12375 3.5 2.1875 C10.85910423 3.11227239 16.14120763 7.68569585 21 13 C20.67 13.66 20.34 14.32 20 15 C19.45472656 14.45730469 18.90945313 13.91460937 18.34765625 13.35546875 C9.87768814 5.31985797 3.11161469 3.36062139 -8.546875 3.5625 C-12.98431352 4.12470941 -16.21357675 5.6082145 -20.01171875 7.90625 C-22 9 -22 9 -25 9 C-24.01 8.21625 -23.02 7.4325 -22 6.625 C-20.515 5.325625 -20.515 5.325625 -19 4 C-19 3.34 -19 2.68 -19 2 C-16.95928485 1.66089006 -14.91737379 1.32897296 -12.875 1 C-11.73804688 0.814375 -10.60109375 0.62875 -9.4296875 0.4375 C-6.23862398 0.03043951 -3.21182209 -0.07809902 0 0 Z " fill="#454545" transform="translate(386,289)"/>
<path d="M0 0 C0.94875 0.04125 1.8975 0.0825 2.875 0.125 C0.72393854 1.7980478 -1.37974375 3.27056786 -3.75 4.625 C-6.37338109 6.05634808 -6.37338109 6.05634808 -8.125 9.125 C-8.49476362 12.60077801 -8.58752876 14.43120686 -6.625 17.375 C-5.8825 18.24125 -5.8825 18.24125 -5.125 19.125 C-5.125 19.785 -5.125 20.445 -5.125 21.125 C-4.18527344 21.21587891 -4.18527344 21.21587891 -3.2265625 21.30859375 C-2.40929687 21.39238281 -1.59203125 21.47617187 -0.75 21.5625 C0.46816406 21.68431641 0.46816406 21.68431641 1.7109375 21.80859375 C3.875 22.125 3.875 22.125 5.875 23.125 C8.00868655 22.65531734 8.00868655 22.65531734 10.3125 21.8125 C11.09496094 21.54824219 11.87742187 21.28398437 12.68359375 21.01171875 C15.10422152 20.11815073 15.10422152 20.11815073 17.875 18.125 C16.40577607 21.99840853 14.54087011 23.29719922 10.875 25.125 C5.32691396 25.95385269 0.40359117 25.8490695 -4.6875 23.4375 C-8.60531297 19.72060051 -10.28425586 17.03207143 -10.625 11.625 C-10.5137867 7.91171142 -10.22055761 7.24318968 -7.75 4.1875 C-6.88375 3.506875 -6.0175 2.82625 -5.125 2.125 C-3.125 0.125 -3.125 0.125 0 0 Z " fill="#383838" transform="translate(377.125,301.875)"/>
<path d="M0 0 C1.33784024 0.05845643 2.67573165 0.11575362 4.01367188 0.171875 C7.23896806 0.31159902 10.46326898 0.46281083 13.6875 0.625 C13.6875 1.285 13.6875 1.945 13.6875 2.625 C-5.1225 3.12 -5.1225 3.12 -24.3125 3.625 C-24.3125 4.615 -24.3125 5.605 -24.3125 6.625 C-26.3125 5.25 -26.3125 5.25 -28.3125 3.625 C-28.3125 2.965 -28.3125 2.305 -28.3125 1.625 C-18.72891673 -0.24848244 -9.73215375 -0.49226878 0 0 Z " fill="#4D4D4D" transform="translate(429.3125,289.375)"/>
<path d="M0 0 C2.51806172 0.58933359 3.61167943 1.28348402 5.390625 3.140625 C7.203125 6.515625 7.203125 6.515625 6.703125 9.765625 C5.203125 12.515625 5.203125 12.515625 2.203125 14.515625 C-0.27734375 14.9296875 -0.27734375 14.9296875 -2.984375 15.140625 C-3.88542969 15.21539062 -4.78648437 15.29015625 -5.71484375 15.3671875 C-6.40191406 15.41617187 -7.08898437 15.46515625 -7.796875 15.515625 C-11.796875 9.890625 -11.796875 9.890625 -11.796875 6.515625 C-12.456875 6.185625 -13.116875 5.855625 -13.796875 5.515625 C-12.806875 5.185625 -11.816875 4.855625 -10.796875 4.515625 C-10.260625 3.835 -9.724375 3.154375 -9.171875 2.453125 C-6.06312794 -0.08295813 -3.93598377 -0.18246282 0 0 Z M-9.796875 4.515625 C-9.53293999 7.94792948 -9.53293999 7.94792948 -8.796875 11.515625 C-5.30818849 13.84141601 -3.89968981 13.93427957 0.203125 13.515625 C2.64558247 12.47619655 2.64558247 12.47619655 4.203125 10.515625 C4.95333744 8.05930168 4.95333744 8.05930168 4.203125 5.515625 C2.03645833 3.09895833 2.03645833 3.09895833 -0.796875 1.515625 C-5.07397199 1.515625 -6.35617876 2.22182751 -9.796875 4.515625 Z " fill="#323232" transform="translate(384.796875,306.484375)"/>
<path d="M0 0 C1.32 0 2.64 0 4 0 C2.79618552 2.49361571 1.54571278 4.68143083 0 7 C-1.08603232 10.95479695 -1.10376492 14.7272725 -1.0625 18.8125 C-1.04896484 20.55466797 -1.04896484 20.55466797 -1.03515625 22.33203125 C-1.02355469 23.21246094 -1.01195312 24.09289062 -1 25 C-3.12508244 21.81237635 -3.5020163 19.73487777 -4 16 C-4.66 16 -5.32 16 -6 16 C-6.77503072 9.92892603 -5.03564132 6.76350795 -1.703125 1.72265625 C-1.14109375 1.15417969 -0.5790625 0.58570313 0 0 Z " fill="#1E1E1E" transform="translate(356,298)"/>
<path d="M0 0 C1.10021484 -0.01836914 1.10021484 -0.01836914 2.22265625 -0.03710938 C6.06063514 -0.04759566 7.85847074 0.00981383 11.125 2.1875 C11.93844324 6.69333758 11.63026549 10.97486282 9.875 15.1875 C7.2259269 18.21501211 5.17200338 19.10653906 1.14453125 19.41796875 C-0.44294922 19.39669922 -0.44294922 19.39669922 -2.0625 19.375 C-3.12855469 19.36855469 -4.19460937 19.36210937 -5.29296875 19.35546875 C-7.875 19.1875 -7.875 19.1875 -8.875 18.1875 C-8.97486975 15.34414952 -9.01377881 12.53052837 -9 9.6875 C-9.00386719 8.88957031 -9.00773437 8.09164063 -9.01171875 7.26953125 C-8.99811915 -0.74063123 -7.32768059 0.0063719 0 0 Z M-7.875 3.1875 C-8.1571482 6.51009247 -8.1571482 6.51009247 -8.0625 10.25 C-8.05605469 11.51972656 -8.04960938 12.78945313 -8.04296875 14.09765625 C-8.22688498 17.05817553 -8.22688498 17.05817553 -6.875 18.1875 C-1.7968425 18.77086649 2.08938269 18.71439302 6.6875 16.375 C9.29973907 14.03068289 9.99701375 12.69059436 10.29296875 9.21484375 C10.31175199 7.20503694 10.22060094 5.19511966 10.125 3.1875 C8.21782361 0.84969545 8.21782361 0.84969545 4.9375 0.921875 C3.679375 0.92703125 2.42125 0.9321875 1.125 0.9375 C-0.7621875 0.92976563 -0.7621875 0.92976563 -2.6875 0.921875 C-5.96782361 0.84969545 -5.96782361 0.84969545 -7.875 3.1875 Z " fill="#9B9B9B" transform="translate(66.875,267.8125)"/>
<path d="M0 0 C14.85 0 29.7 0 45 0 C45 0.33 45 0.66 45 1 C31.14 1 17.28 1 3 1 C3 3.31 3 5.62 3 8 C2.01 8.495 2.01 8.495 1 9 C0.67 6.03 0.34 3.06 0 0 Z " fill="#545454" transform="translate(418,304)"/>
<path d="M0 0 C4 2 4 2 7 4 C6.67 5.98 6.34 7.96 6 10 C2.25 11.125 2.25 11.125 0 10 C0 6.7 0 3.4 0 0 Z " fill="#101010" transform="translate(483,309)"/>
<path d="M0 0 C2.3125 0.5625 2.3125 0.5625 5 2 C8.12834225 7.63101604 8.12834225 7.63101604 7.8125 11 C7.544375 11.66 7.27625 12.32 7 13 C6.649375 14.2375 6.29875 15.475 5.9375 16.75 C5.628125 17.8225 5.31875 18.895 5 20 C4.67 20 4.34 20 4 20 C3.96261719 19.31035156 3.92523438 18.62070312 3.88671875 17.91015625 C3.43921852 11.51353535 2.34350199 5.96929752 0 0 Z " fill="#202020" transform="translate(406,300)"/>
<path d="M0 0 C0.66 0.33 1.32 0.66 2 1 C0.515 3.475 0.515 3.475 -1 6 C0.32 6.66 1.64 7.32 3 8 C0.69 9.65 -1.62 11.3 -4 13 C-4.33 11.68 -4.66 10.36 -5 9 C-5.99 8.34 -6.98 7.68 -8 7 C-5.36 4.69 -2.72 2.38 0 0 Z " fill="#404040" transform="translate(163,200)"/>
<path d="M0 0 C0.66 0.33 1.32 0.66 2 1 C0.625 3 0.625 3 -1 5 C-1.66 5 -2.32 5 -3 5 C-2.83628906 5.64324219 -2.67257813 6.28648437 -2.50390625 6.94921875 C-1.84665324 10.92840171 -1.893647 14.7881437 -1.9375 18.8125 C-1.94201172 19.60076172 -1.94652344 20.38902344 -1.95117188 21.20117188 C-1.96288688 23.13414761 -1.98082002 25.06708393 -2 27 C-2.66 27 -3.32 27 -4 27 C-4.11622939 23.25026094 -4.1872595 19.50098536 -4.25 15.75 C-4.28351562 14.68652344 -4.31703125 13.62304688 -4.3515625 12.52734375 C-4.36445312 11.50253906 -4.37734375 10.47773438 -4.390625 9.421875 C-4.41157227 8.47924805 -4.43251953 7.53662109 -4.45410156 6.56542969 C-3.87271731 3.28092125 -2.50740841 2.10830534 0 0 Z " fill="#292929" transform="translate(60,259)"/>
<path d="M0 0 C0.66 0 1.32 0 2 0 C2.09796875 0.86882812 2.1959375 1.73765625 2.296875 2.6328125 C3.42136094 11.53942123 3.42136094 11.53942123 8 19 C7.34 19.66 6.68 20.32 6 21 C-0.17280768 14.35236096 -0.1760297 8.80148524 0 0 Z " fill="#2F2F2F" transform="translate(354,310)"/>
<path d="M0 0 C3.98585549 1.3286185 4.82053515 3.22655687 6.92578125 6.72265625 C8.55355187 10.17352996 8.79683373 13.20756296 9 17 C9.99 17.33 10.98 17.66 12 18 C9.6328125 17.83203125 9.6328125 17.83203125 7 17 C5.7421875 14.63671875 5.7421875 14.63671875 4.875 11.6875 C3.70732045 7.81762397 2.48240216 5.17663328 0 2 C0 1.34 0 0.68 0 0 Z " fill="#363636" transform="translate(407,296)"/>
<path d="M0 0 C1.65 0 3.3 0 5 0 C4.67 2.97 4.34 5.94 4 9 C2.02 9 0.04 9 -2 9 C-1.505 7.88625 -1.505 7.88625 -1 6.75 C0.22782871 3.86116688 0.22782871 3.86116688 0 0 Z " fill="#171717" transform="translate(340,305)"/>
<path d="M0 0 C3 0 3 0 5.1875 1.75 C7 4 7 4 7 8 C7.99 8.33 8.98 8.66 10 9 C4.64951939 8.62671065 2.49087093 7.0042343 -1 3 C-0.67 2.01 -0.34 1.02 0 0 Z " fill="#1F1F1F" transform="translate(370,316)"/>
<path d="M0 0 C1.32 0.66 2.64 1.32 4 2 C4.33 1.34 4.66 0.68 5 0 C4.78515625 1.890625 4.78515625 1.890625 4 4 C1.93359375 5.046875 1.93359375 5.046875 -0.5625 5.75 C-1.38878906 5.99234375 -2.21507812 6.2346875 -3.06640625 6.484375 C-4.02353516 6.73960937 -4.02353516 6.73960937 -5 7 C-5.66 6.34 -6.32 5.68 -7 5 C-5.35 4.67 -3.7 4.34 -2 4 C-4.64 3.67 -7.28 3.34 -10 3 C-10 2.67 -10 2.34 -10 2 C-9.04287109 1.90912109 -9.04287109 1.90912109 -8.06640625 1.81640625 C-6.82697266 1.69072266 -6.82697266 1.69072266 -5.5625 1.5625 C-4.73878906 1.48128906 -3.91507812 1.40007812 -3.06640625 1.31640625 C-1.01337975 1.21069185 -1.01337975 1.21069185 0 0 Z " fill="#1B1B1B" transform="translate(388,319)"/>
<path d="M0 0 C-0.55558594 0.27585937 -1.11117188 0.55171875 -1.68359375 0.8359375 C-3.2862117 1.64130031 -4.88221078 2.45992031 -6.47265625 3.2890625 C-7.75462891 3.95035156 -7.75462891 3.95035156 -9.0625 4.625 C-9.91972656 5.07101562 -10.77695312 5.51703125 -11.66015625 5.9765625 C-14 7 -14 7 -17 7 C-16.01 6.21625 -15.02 5.4325 -14 4.625 C-12.515 3.325625 -12.515 3.325625 -11 2 C-11 1.34 -11 0.68 -11 0 C-7.01803543 -1.05404945 -4.01804691 -0.84098656 0 0 Z " fill="#4D4D4D" transform="translate(378,291)"/>
<path d="M0 0 C3.42219091 3.42219091 3.186917 6.80615675 3.25 11.4375 C3.27578125 12.57058594 3.3015625 13.70367187 3.328125 14.87109375 C2.97468205 18.24142471 2.27823183 19.5598938 0 22 C-1 19 -1 19 -0.0625 16.25 C1.74385335 10.72468386 1.09824707 5.62851621 0 0 Z " fill="#3A3A3A" transform="translate(407,304)"/>
<path d="M0 0 C0.66 0.33 1.32 0.66 2 1 C-4.93 7.435 -4.93 7.435 -12 14 C-12.66 13.34 -13.32 12.68 -14 12 C-9.38 8.04 -4.76 4.08 0 0 Z " fill="#B2B2B2" transform="translate(155,216)"/>
<path d="M0 0 C2 2 2 2 2.375 4.75 C1.91040578 8.77648325 0.52880371 10.87618365 -2 14 C-2.66 14 -3.32 14 -4 14 C-3.71125 13.46375 -3.4225 12.9275 -3.125 12.375 C-1.11963434 8.14145027 0 4.71256829 0 0 Z " fill="#474747" transform="translate(123,309)"/>
<path d="M0 0 C1 2 1 2 0.75 5.875 C0.64266081 8.0022951 0.64266081 8.0022951 1 10 C3.33830958 12.5404226 3.33830958 12.5404226 6 14 C5.67 14.66 5.34 15.32 5 16 C1.83884224 14.63016497 1.0072908 14.0109362 -1 11 C-1.23046875 8.5546875 -1.23046875 8.5546875 -1.1875 5.875 C-1.18105469 4.98554688 -1.17460938 4.09609375 -1.16796875 3.1796875 C-1 1 -1 1 0 0 Z " fill="#848484" transform="translate(95,308)"/>
<path d="M0 0 C1.32 0.33 2.64 0.66 4 1 C4.33 2.32 4.66 3.64 5 5 C3.02 5.99 3.02 5.99 1 7 C0.67 4.69 0.34 2.38 0 0 Z " fill="#141414" transform="translate(390,306)"/>
<path d="M0 0 C2 2 2 2 3 4.0625 C3.84589942 6.16865601 3.84589942 6.16865601 6 7 C6 7.66 6 8.32 6 9 C3.5625 8.625 3.5625 8.625 1 8 C-0.35439668 5.29120665 -0.06501451 2.99066732 0 0 Z " fill="#202020" transform="translate(246,306)"/>
<path d="M0 0 C0 3.77910478 -0.99703962 4.46106101 -3.5 7.1875 C-4.47453125 8.26064453 -4.47453125 8.26064453 -5.46875 9.35546875 C-5.9740625 9.89816406 -6.479375 10.44085938 -7 11 C-7.33 10.01 -7.66 9.02 -8 8 C-5.33333333 5.33333333 -2.66666667 2.66666667 0 0 Z " fill="#B1B1B1" transform="translate(140,229)"/>
<path d="M0 0 C4.875 4.75 4.875 4.75 6 7 C5.34 7.66 4.68 8.32 4 9 C1.47740939 7.02579865 1.0070192 6.03254358 0.3125 2.8125 C0.209375 1.884375 0.10625 0.95625 0 0 Z " fill="#383838" transform="translate(356,322)"/>
<path d="M0 0 C0.66 0 1.32 0 2 0 C2 2.31 2 4.62 2 7 C1.01 7.495 1.01 7.495 0 8 C-1.125 2.25 -1.125 2.25 0 0 Z " fill="#313131" transform="translate(419,305)"/>
</svg>
