<?xml version="1.0" standalone="no"?>
<!DOCTYPE svg PUBLIC "-//W3C//DTD SVG 20010904//EN"
 "http://www.w3.org/TR/2001/REC-SVG-20010904/DTD/svg10.dtd">
<svg version="1.0" xmlns="http://www.w3.org/2000/svg"
 width="512.000000pt" height="512.000000pt" viewBox="0 0 512.000000 512.000000"
 preserveAspectRatio="xMidYMid meet">
<metadata>
Created by potrace 1.16, written by Peter Selinger 2001-2019
</metadata>
<g transform="translate(0.000000,339.000000) scale(0.100000,-0.100000)"
fill="#000000" stroke="none">
<path d="M2267 2804 c-32 -10 -51 -23 -59 -39 -12 -27 -23 -30 -168 -45 -198
-21 -387 -71 -515 -138 -49 -25 -97 -64 -161 -127 -80 -80 -98 -104 -143 -195
-58 -121 -82 -214 -137 -534 l-38 -219 -40 -24 c-23 -13 -89 -50 -147 -82
-176 -97 -327 -220 -363 -295 -40 -84 1 -166 81 -166 79 0 208 55 438 186 78
44 82 45 151 40 102 -6 228 -52 474 -173 346 -170 434 -194 620 -172 244 28
446 131 733 372 l46 39 157 -11 c218 -15 289 -14 304 4 20 24 32 229 27 465
-6 255 -19 327 -84 460 -103 212 -407 401 -851 530 -68 20 -73 23 -88 61 -11
25 -28 46 -47 55 -43 23 -133 27 -190 8z"/>
</g>
</svg>
